<svg width="1072" height="287" viewBox="0 0 1072 287" fill="none" xmlns="http://www.w3.org/2000/svg">
<g clipPath="url(#clip0_31_441)">
<path d="M20 97.9127H1052" stroke="#E9E9E9" strokeWidth="1.17394" strokeLinecap="round" stroke-dasharray="7.04 7.83"/>
<path d="M20 131.913H1052" stroke="#E9E9E9" strokeWidth="1.17394" strokeLinecap="round" stroke-dasharray="7.04 7.83"/>
<path d="M20 166.913H1052" stroke="#E9E9E9" strokeWidth="1.17394" strokeLinecap="round" stroke-dasharray="7.04 7.83"/>
<path d="M20 200.913H1052" stroke="#E9E9E9" strokeWidth="1.17394" strokeLinecap="round" stroke-dasharray="7.04 7.83"/>
<path d="M64.0402 256.333V261.195C64.0402 261.736 63.8734 262.17 63.5399 262.497C63.2064 262.818 62.7658 262.979 62.2183 262.979C61.6645 262.979 61.2209 262.815 60.8873 262.488C60.5538 262.154 60.387 261.701 60.387 261.129H61.246C61.2523 261.45 61.3341 261.711 61.4915 261.912C61.6551 262.113 61.8974 262.214 62.2183 262.214C62.5393 262.214 62.7784 262.12 62.9358 261.931C63.0931 261.736 63.1717 261.49 63.1717 261.195V256.333H64.0402ZM65.4115 260.307C65.4115 259.779 65.5185 259.316 65.7325 258.92C65.9465 258.517 66.2391 258.205 66.6104 257.985C66.988 257.765 67.4065 257.655 67.8659 257.655C68.319 257.655 68.7123 257.752 69.0458 257.947C69.3794 258.142 69.6279 258.388 69.7916 258.684V257.74H70.66V262.913H69.7916V261.95C69.6216 262.252 69.3668 262.504 69.0269 262.705C68.6934 262.9 68.3032 262.998 67.8564 262.998C67.397 262.998 66.9817 262.884 66.6104 262.658C66.2391 262.431 65.9465 262.113 65.7325 261.704C65.5185 261.295 65.4115 260.83 65.4115 260.307ZM69.7916 260.317C69.7916 259.927 69.7129 259.587 69.5556 259.297C69.3982 259.008 69.1843 258.788 68.9137 258.636C68.6494 258.479 68.3567 258.4 68.0358 258.4C67.7148 258.4 67.4222 258.476 67.1579 258.627C66.8936 258.778 66.6828 258.998 66.5254 259.288C66.3681 259.577 66.2894 259.917 66.2894 260.307C66.2894 260.704 66.3681 261.05 66.5254 261.346C66.6828 261.635 66.8936 261.859 67.1579 262.016C67.4222 262.167 67.7148 262.242 68.0358 262.242C68.3567 262.242 68.6494 262.167 68.9137 262.016C69.1843 261.859 69.3982 261.635 69.5556 261.346C69.7129 261.05 69.7916 260.707 69.7916 260.317ZM74.6321 257.645C75.2614 257.645 75.7711 257.837 76.1613 258.221C76.5515 258.599 76.7466 259.146 76.7466 259.864V262.913H75.897V259.986C75.897 259.47 75.768 259.077 75.51 258.806C75.2519 258.53 74.8995 258.391 74.4527 258.391C73.9996 258.391 73.6378 258.533 73.3671 258.816C73.1028 259.099 72.9707 259.511 72.9707 260.052V262.913H72.1117V257.74H72.9707V258.476C73.1406 258.212 73.3703 258.007 73.6598 257.862C73.9556 257.718 74.2797 257.645 74.6321 257.645Z" fill="#85878D"/>
<path d="M150.083 256.333V257.032H147.222V259.25H149.545V259.949H147.222V262.913H146.363V256.333H150.083ZM155.84 260.128C155.84 260.292 155.83 260.465 155.812 260.647H151.677C151.708 261.157 151.882 261.557 152.196 261.846C152.517 262.129 152.904 262.271 153.357 262.271C153.729 262.271 154.037 262.186 154.282 262.016C154.534 261.84 154.71 261.607 154.811 261.317H155.736C155.598 261.815 155.321 262.22 154.905 262.535C154.49 262.843 153.974 262.998 153.357 262.998C152.866 262.998 152.426 262.888 152.036 262.667C151.652 262.447 151.35 262.135 151.13 261.733C150.909 261.324 150.799 260.852 150.799 260.317C150.799 259.782 150.906 259.313 151.12 258.91C151.334 258.507 151.633 258.199 152.017 257.985C152.407 257.765 152.854 257.655 153.357 257.655C153.848 257.655 154.282 257.762 154.66 257.976C155.038 258.19 155.327 258.485 155.528 258.863C155.736 259.234 155.84 259.656 155.84 260.128ZM154.953 259.949C154.953 259.621 154.88 259.341 154.735 259.108C154.591 258.869 154.392 258.69 154.141 258.57C153.895 258.445 153.622 258.382 153.32 258.382C152.885 258.382 152.514 258.52 152.206 258.797C151.904 259.074 151.73 259.458 151.686 259.949H154.953ZM157.833 258.703C158.009 258.394 158.267 258.142 158.607 257.947C158.947 257.752 159.334 257.655 159.768 257.655C160.234 257.655 160.652 257.765 161.023 257.985C161.395 258.205 161.687 258.517 161.901 258.92C162.115 259.316 162.222 259.779 162.222 260.307C162.222 260.83 162.115 261.295 161.901 261.704C161.687 262.113 161.392 262.431 161.014 262.658C160.643 262.884 160.227 262.998 159.768 262.998C159.321 262.998 158.928 262.9 158.588 262.705C158.254 262.51 158.003 262.261 157.833 261.959V262.913H156.974V255.927H157.833V258.703ZM161.344 260.307C161.344 259.917 161.266 259.577 161.108 259.288C160.951 258.998 160.737 258.778 160.466 258.627C160.202 258.476 159.91 258.4 159.589 258.4C159.274 258.4 158.981 258.479 158.711 258.636C158.446 258.788 158.232 259.011 158.069 259.307C157.911 259.596 157.833 259.933 157.833 260.317C157.833 260.707 157.911 261.05 158.069 261.346C158.232 261.635 158.446 261.859 158.711 262.016C158.981 262.167 159.274 262.242 159.589 262.242C159.91 262.242 160.202 262.167 160.466 262.016C160.737 261.859 160.951 261.635 161.108 261.346C161.266 261.05 161.344 260.704 161.344 260.307Z" fill="#85878D"/>
<path d="M237.673 256.38V262.913H236.814V258.042L234.643 262.913H234.039L231.859 258.032V262.913H231V256.38H231.925L234.341 261.78L236.758 256.38H237.673ZM238.809 260.307C238.809 259.779 238.916 259.316 239.13 258.92C239.344 258.517 239.637 258.205 240.008 257.985C240.386 257.765 240.804 257.655 241.264 257.655C241.717 257.655 242.11 257.752 242.444 257.947C242.777 258.142 243.026 258.388 243.189 258.684V257.74H244.058V262.913H243.189V261.95C243.019 262.252 242.765 262.504 242.425 262.705C242.091 262.9 241.701 262.998 241.254 262.998C240.795 262.998 240.379 262.884 240.008 262.658C239.637 262.431 239.344 262.113 239.13 261.704C238.916 261.295 238.809 260.83 238.809 260.307ZM243.189 260.317C243.189 259.927 243.111 259.587 242.953 259.297C242.796 259.008 242.582 258.788 242.311 258.636C242.047 258.479 241.754 258.4 241.434 258.4C241.113 258.4 240.82 258.476 240.556 258.627C240.291 258.778 240.081 258.998 239.923 259.288C239.766 259.577 239.687 259.917 239.687 260.307C239.687 260.704 239.766 261.05 239.923 261.346C240.081 261.635 240.291 261.859 240.556 262.016C240.82 262.167 241.113 262.242 241.434 262.242C241.754 262.242 242.047 262.167 242.311 262.016C242.582 261.859 242.796 261.635 242.953 261.346C243.111 261.05 243.189 260.707 243.189 260.317ZM246.368 258.58C246.519 258.284 246.733 258.054 247.01 257.891C247.294 257.727 247.637 257.645 248.039 257.645V258.533H247.813C246.85 258.533 246.368 259.055 246.368 260.1V262.913H245.509V257.74H246.368V258.58Z" fill="#85878D"/>
<path d="M321.525 261.45H318.656L318.127 262.913H317.221L319.599 256.371H320.591L322.96 262.913H322.054L321.525 261.45ZM321.28 260.751L320.09 257.428L318.901 260.751H321.28ZM324.856 258.693C325.026 258.397 325.277 258.152 325.611 257.957C325.951 257.755 326.344 257.655 326.791 257.655C327.25 257.655 327.666 257.765 328.037 257.985C328.415 258.205 328.71 258.517 328.924 258.92C329.138 259.316 329.245 259.779 329.245 260.307C329.245 260.83 329.138 261.295 328.924 261.704C328.71 262.113 328.415 262.431 328.037 262.658C327.666 262.884 327.25 262.998 326.791 262.998C326.35 262.998 325.96 262.9 325.62 262.705C325.287 262.504 325.032 262.255 324.856 261.959V265.367H323.997V257.74H324.856V258.693ZM328.367 260.307C328.367 259.917 328.289 259.577 328.131 259.288C327.974 258.998 327.76 258.778 327.489 258.627C327.225 258.476 326.933 258.4 326.612 258.4C326.297 258.4 326.004 258.479 325.734 258.636C325.469 258.788 325.255 259.011 325.092 259.307C324.934 259.596 324.856 259.933 324.856 260.317C324.856 260.707 324.934 261.05 325.092 261.346C325.255 261.635 325.469 261.859 325.734 262.016C326.004 262.167 326.297 262.242 326.612 262.242C326.933 262.242 327.225 262.167 327.489 262.016C327.76 261.859 327.974 261.635 328.131 261.346C328.289 261.05 328.367 260.704 328.367 260.307ZM331.235 258.58C331.386 258.284 331.6 258.054 331.877 257.891C332.16 257.727 332.503 257.645 332.906 257.645V258.533H332.679C331.716 258.533 331.235 259.055 331.235 260.1V262.913H330.376V257.74H331.235V258.58Z" fill="#85878D"/>
<path d="M408.946 256.38V262.913H408.087V258.042L405.916 262.913H405.312L403.131 258.032V262.913H402.272V256.38H403.197L405.614 261.78L408.03 256.38H408.946ZM410.082 260.307C410.082 259.779 410.189 259.316 410.403 258.92C410.617 258.517 410.91 258.205 411.281 257.985C411.658 257.765 412.077 257.655 412.536 257.655C412.989 257.655 413.383 257.752 413.716 257.947C414.05 258.142 414.298 258.388 414.462 258.684V257.74H415.33V262.913H414.462V261.95C414.292 262.252 414.037 262.504 413.697 262.705C413.364 262.9 412.974 262.998 412.527 262.998C412.067 262.998 411.652 262.884 411.281 262.658C410.91 262.431 410.617 262.113 410.403 261.704C410.189 261.295 410.082 260.83 410.082 260.307ZM414.462 260.317C414.462 259.927 414.383 259.587 414.226 259.297C414.069 259.008 413.855 258.788 413.584 258.636C413.32 258.479 413.027 258.4 412.706 258.4C412.385 258.4 412.093 258.476 411.828 258.627C411.564 258.778 411.353 258.998 411.196 259.288C411.039 259.577 410.96 259.917 410.96 260.307C410.96 260.704 411.039 261.05 411.196 261.346C411.353 261.635 411.564 261.859 411.828 262.016C412.093 262.167 412.385 262.242 412.706 262.242C413.027 262.242 413.32 262.167 413.584 262.016C413.855 261.859 414.069 261.635 414.226 261.346C414.383 261.05 414.462 260.707 414.462 260.317ZM421.238 257.74L418.123 265.348H417.235L418.255 262.856L416.169 257.74H417.122L418.746 261.931L420.35 257.74H421.238Z" fill="#85878D"/>
<path d="M493.222 256.333V261.195C493.222 261.736 493.055 262.17 492.722 262.497C492.388 262.818 491.948 262.979 491.4 262.979C490.846 262.979 490.403 262.815 490.069 262.488C489.736 262.154 489.569 261.701 489.569 261.129H490.428C490.434 261.45 490.516 261.711 490.673 261.912C490.837 262.113 491.079 262.214 491.4 262.214C491.721 262.214 491.96 262.12 492.118 261.931C492.275 261.736 492.354 261.49 492.354 261.195V256.333H493.222ZM499.502 257.74V262.913H498.643V262.148C498.479 262.412 498.25 262.62 497.954 262.771C497.664 262.916 497.343 262.988 496.991 262.988C496.588 262.988 496.226 262.906 495.905 262.743C495.584 262.573 495.33 262.321 495.141 261.988C494.958 261.654 494.867 261.248 494.867 260.77V257.74H495.717V260.657C495.717 261.166 495.846 261.56 496.104 261.837C496.362 262.107 496.714 262.242 497.161 262.242C497.62 262.242 497.982 262.101 498.246 261.818C498.511 261.534 498.643 261.122 498.643 260.581V257.74H499.502ZM503.473 257.645C504.102 257.645 504.612 257.837 505.002 258.221C505.392 258.599 505.587 259.146 505.587 259.864V262.913H504.738V259.986C504.738 259.47 504.609 259.077 504.351 258.806C504.093 258.53 503.74 258.391 503.293 258.391C502.84 258.391 502.478 258.533 502.208 258.816C501.944 259.099 501.811 259.511 501.811 260.052V262.913H500.952V257.74H501.811V258.476C501.981 258.212 502.211 258.007 502.5 257.862C502.796 257.718 503.12 257.645 503.473 257.645ZM511.71 260.128C511.71 260.292 511.701 260.465 511.682 260.647H507.547C507.579 261.157 507.752 261.557 508.067 261.846C508.388 262.129 508.775 262.271 509.228 262.271C509.599 262.271 509.907 262.186 510.153 262.016C510.404 261.84 510.581 261.607 510.681 261.317H511.606C511.468 261.815 511.191 262.22 510.776 262.535C510.36 262.843 509.844 262.998 509.228 262.998C508.737 262.998 508.296 262.888 507.906 262.667C507.522 262.447 507.22 262.135 507 261.733C506.78 261.324 506.669 260.852 506.669 260.317C506.669 259.782 506.776 259.313 506.99 258.91C507.204 258.507 507.503 258.199 507.887 257.985C508.277 257.765 508.724 257.655 509.228 257.655C509.719 257.655 510.153 257.762 510.53 257.976C510.908 258.19 511.197 258.485 511.399 258.863C511.606 259.234 511.71 259.656 511.71 260.128ZM510.823 259.949C510.823 259.621 510.751 259.341 510.606 259.108C510.461 258.869 510.263 258.69 510.011 258.57C509.766 258.445 509.492 258.382 509.19 258.382C508.756 258.382 508.384 258.52 508.076 258.797C507.774 259.074 507.601 259.458 507.557 259.949H510.823Z" fill="#85878D"/>
<path d="M583.858 256.333V261.195C583.858 261.736 583.692 262.17 583.358 262.497C583.024 262.818 582.584 262.979 582.036 262.979C581.483 262.979 581.039 262.815 580.705 262.488C580.372 262.154 580.205 261.701 580.205 261.129H581.064C581.07 261.45 581.152 261.711 581.31 261.912C581.473 262.113 581.715 262.214 582.036 262.214C582.357 262.214 582.597 262.12 582.754 261.931C582.911 261.736 582.99 261.49 582.99 261.195V256.333H583.858ZM590.138 257.74V262.913H589.279V262.148C589.116 262.412 588.886 262.62 588.59 262.771C588.301 262.916 587.98 262.988 587.627 262.988C587.225 262.988 586.863 262.906 586.542 262.743C586.221 262.573 585.966 262.321 585.777 261.988C585.595 261.654 585.503 261.248 585.503 260.77V257.74H586.353V260.657C586.353 261.166 586.482 261.56 586.74 261.837C586.998 262.107 587.35 262.242 587.797 262.242C588.257 262.242 588.619 262.101 588.883 261.818C589.147 261.534 589.279 261.122 589.279 260.581V257.74H590.138ZM592.448 255.927V262.913H591.589V255.927H592.448ZM598.367 257.74L595.252 265.348H594.365L595.384 262.856L593.298 257.74H594.252L595.875 261.931L597.48 257.74H598.367Z" fill="#85878D"/>
<path d="M671.071 261.45H668.201L667.672 262.913H666.766L669.145 256.371H670.136L672.505 262.913H671.599L671.071 261.45ZM670.825 260.751L669.636 257.428L668.446 260.751H670.825ZM678.13 257.74V262.913H677.271V262.148C677.107 262.412 676.878 262.62 676.582 262.771C676.292 262.916 675.971 262.988 675.619 262.988C675.216 262.988 674.854 262.906 674.533 262.743C674.212 262.573 673.958 262.321 673.769 261.988C673.586 261.654 673.495 261.248 673.495 260.77V257.74H674.345V260.657C674.345 261.166 674.474 261.56 674.732 261.837C674.99 262.107 675.342 262.242 675.789 262.242C676.248 262.242 676.61 262.101 676.874 261.818C677.139 261.534 677.271 261.122 677.271 260.581V257.74H678.13ZM681.714 257.655C682.16 257.655 682.551 257.752 682.884 257.947C683.224 258.142 683.476 258.388 683.639 258.684V257.74H684.508V263.026C684.508 263.498 684.407 263.916 684.206 264.281C684.004 264.653 683.715 264.942 683.337 265.15C682.966 265.358 682.532 265.461 682.035 265.461C681.355 265.461 680.789 265.301 680.335 264.98C679.882 264.659 679.615 264.222 679.533 263.668H680.383C680.477 263.983 680.672 264.234 680.968 264.423C681.264 264.618 681.619 264.716 682.035 264.716C682.507 264.716 682.89 264.568 683.186 264.272C683.488 263.976 683.639 263.561 683.639 263.026V261.94C683.469 262.242 683.218 262.494 682.884 262.696C682.551 262.897 682.16 262.998 681.714 262.998C681.254 262.998 680.836 262.884 680.458 262.658C680.087 262.431 679.794 262.113 679.58 261.704C679.366 261.295 679.259 260.83 679.259 260.307C679.259 259.779 679.366 259.316 679.58 258.92C679.794 258.517 680.087 258.205 680.458 257.985C680.836 257.765 681.254 257.655 681.714 257.655ZM683.639 260.317C683.639 259.927 683.561 259.587 683.403 259.297C683.246 259.008 683.032 258.788 682.761 258.636C682.497 258.479 682.205 258.4 681.884 258.4C681.563 258.4 681.27 258.476 681.006 258.627C680.741 258.778 680.531 258.998 680.373 259.288C680.216 259.577 680.137 259.917 680.137 260.307C680.137 260.704 680.216 261.05 680.373 261.346C680.531 261.635 680.741 261.859 681.006 262.016C681.27 262.167 681.563 262.242 681.884 262.242C682.205 262.242 682.497 262.167 682.761 262.016C683.032 261.859 683.246 261.635 683.403 261.346C683.561 261.05 683.639 260.707 683.639 260.317Z" fill="#85878D"/>
<path d="M755.904 262.979C755.47 262.979 755.079 262.903 754.733 262.752C754.394 262.595 754.126 262.381 753.931 262.11C753.736 261.833 753.635 261.516 753.629 261.157H754.545C754.576 261.465 754.702 261.726 754.922 261.94C755.149 262.148 755.476 262.252 755.904 262.252C756.313 262.252 756.634 262.151 756.867 261.95C757.106 261.742 757.225 261.478 757.225 261.157C757.225 260.905 757.156 260.701 757.018 260.543C756.879 260.386 756.706 260.266 756.499 260.185C756.291 260.103 756.011 260.015 755.658 259.92C755.224 259.807 754.875 259.694 754.611 259.58C754.353 259.467 754.129 259.291 753.94 259.052C753.758 258.806 753.667 258.479 753.667 258.07C753.667 257.711 753.758 257.394 753.94 257.117C754.123 256.84 754.378 256.626 754.705 256.475C755.039 256.324 755.419 256.248 755.847 256.248C756.464 256.248 756.967 256.402 757.358 256.711C757.754 257.019 757.977 257.428 758.028 257.938H757.084C757.052 257.686 756.92 257.466 756.687 257.277C756.455 257.082 756.146 256.985 755.762 256.985C755.404 256.985 755.111 257.079 754.884 257.268C754.658 257.45 754.545 257.708 754.545 258.042C754.545 258.281 754.611 258.476 754.743 258.627C754.881 258.778 755.048 258.895 755.243 258.976C755.444 259.052 755.725 259.14 756.083 259.241C756.517 259.36 756.867 259.48 757.131 259.599C757.395 259.713 757.622 259.892 757.811 260.137C757.999 260.377 758.094 260.704 758.094 261.119C758.094 261.44 758.009 261.742 757.839 262.025C757.669 262.309 757.417 262.538 757.084 262.714C756.75 262.891 756.357 262.979 755.904 262.979ZM764.078 260.128C764.078 260.292 764.068 260.465 764.05 260.647H759.915C759.946 261.157 760.119 261.557 760.434 261.846C760.755 262.129 761.142 262.271 761.595 262.271C761.966 262.271 762.275 262.186 762.52 262.016C762.772 261.84 762.948 261.607 763.049 261.317H763.974C763.836 261.815 763.559 262.22 763.143 262.535C762.728 262.843 762.212 262.998 761.595 262.998C761.104 262.998 760.664 262.888 760.274 262.667C759.89 262.447 759.588 262.135 759.367 261.733C759.147 261.324 759.037 260.852 759.037 260.317C759.037 259.782 759.144 259.313 759.358 258.91C759.572 258.507 759.871 258.199 760.255 257.985C760.645 257.765 761.092 257.655 761.595 257.655C762.086 257.655 762.52 257.762 762.898 257.976C763.275 258.19 763.565 258.485 763.766 258.863C763.974 259.234 764.078 259.656 764.078 260.128ZM763.191 259.949C763.191 259.621 763.118 259.341 762.973 259.108C762.829 258.869 762.63 258.69 762.379 258.57C762.133 258.445 761.86 258.382 761.557 258.382C761.123 258.382 760.752 258.52 760.444 258.797C760.141 259.074 759.968 259.458 759.924 259.949H763.191ZM766.071 258.693C766.241 258.397 766.492 258.152 766.826 257.957C767.166 257.755 767.559 257.655 768.006 257.655C768.465 257.655 768.881 257.765 769.252 257.985C769.629 258.205 769.925 258.517 770.139 258.92C770.353 259.316 770.46 259.779 770.46 260.307C770.46 260.83 770.353 261.295 770.139 261.704C769.925 262.113 769.629 262.431 769.252 262.658C768.881 262.884 768.465 262.998 768.006 262.998C767.565 262.998 767.175 262.9 766.835 262.705C766.502 262.504 766.247 262.255 766.071 261.959V265.367H765.212V257.74H766.071V258.693ZM769.582 260.307C769.582 259.917 769.504 259.577 769.346 259.288C769.189 258.998 768.975 258.778 768.704 258.627C768.44 258.476 768.147 258.4 767.827 258.4C767.512 258.4 767.219 258.479 766.949 258.636C766.684 258.788 766.47 259.011 766.307 259.307C766.149 259.596 766.071 259.933 766.071 260.317C766.071 260.707 766.149 261.05 766.307 261.346C766.47 261.635 766.684 261.859 766.949 262.016C767.219 262.167 767.512 262.242 767.827 262.242C768.147 262.242 768.44 262.167 768.704 262.016C768.975 261.859 769.189 261.635 769.346 261.346C769.504 261.05 769.582 260.704 769.582 260.307ZM772.639 258.448V261.497C772.639 261.748 772.692 261.928 772.799 262.035C772.906 262.135 773.092 262.186 773.356 262.186H773.989V262.913H773.215C772.736 262.913 772.378 262.803 772.138 262.582C771.899 262.362 771.78 262 771.78 261.497V258.448H771.109V257.74H771.78V256.437H772.639V257.74H773.989V258.448H772.639Z" fill="#85878D"/>
<path d="M846.437 262.979C845.827 262.979 845.27 262.837 844.766 262.554C844.263 262.264 843.863 261.865 843.567 261.355C843.278 260.839 843.133 260.26 843.133 259.618C843.133 258.976 843.278 258.4 843.567 257.891C843.863 257.375 844.263 256.975 844.766 256.692C845.27 256.402 845.827 256.258 846.437 256.258C847.054 256.258 847.614 256.402 848.117 256.692C848.621 256.975 849.017 257.372 849.307 257.881C849.596 258.391 849.741 258.97 849.741 259.618C849.741 260.266 849.596 260.845 849.307 261.355C849.017 261.865 848.621 262.264 848.117 262.554C847.614 262.837 847.054 262.979 846.437 262.979ZM846.437 262.233C846.897 262.233 847.309 262.126 847.674 261.912C848.045 261.698 848.334 261.393 848.542 260.996C848.756 260.6 848.863 260.141 848.863 259.618C848.863 259.09 848.756 258.63 848.542 258.24C848.334 257.844 848.048 257.538 847.683 257.324C847.318 257.11 846.903 257.003 846.437 257.003C845.971 257.003 845.556 257.11 845.191 257.324C844.826 257.538 844.537 257.844 844.323 258.24C844.115 258.63 844.011 259.09 844.011 259.618C844.011 260.141 844.115 260.6 844.323 260.996C844.537 261.393 844.826 261.698 845.191 261.912C845.562 262.126 845.978 262.233 846.437 262.233ZM850.554 260.317C850.554 259.782 850.661 259.316 850.875 258.92C851.089 258.517 851.385 258.205 851.762 257.985C852.146 257.765 852.584 257.655 853.074 257.655C853.71 257.655 854.232 257.809 854.641 258.117C855.057 258.426 855.331 258.854 855.463 259.401H854.538C854.45 259.086 854.276 258.838 854.018 258.655C853.767 258.473 853.452 258.382 853.074 258.382C852.584 258.382 852.187 258.552 851.885 258.891C851.583 259.225 851.432 259.7 851.432 260.317C851.432 260.94 851.583 261.421 851.885 261.761C852.187 262.101 852.584 262.271 853.074 262.271C853.452 262.271 853.767 262.183 854.018 262.006C854.27 261.83 854.443 261.579 854.538 261.251H855.463C855.324 261.78 855.047 262.205 854.632 262.526C854.217 262.84 853.697 262.998 853.074 262.998C852.584 262.998 852.146 262.888 851.762 262.667C851.385 262.447 851.089 262.135 850.875 261.733C850.661 261.33 850.554 260.858 850.554 260.317ZM857.657 258.448V261.497C857.657 261.748 857.71 261.928 857.817 262.035C857.924 262.135 858.11 262.186 858.374 262.186H859.007V262.913H858.233C857.754 262.913 857.396 262.803 857.156 262.582C856.917 262.362 856.798 262 856.798 261.497V258.448H856.127V257.74H856.798V256.437H857.657V257.74H859.007V258.448H857.657Z" fill="#85878D"/>
<path d="M933.263 262.913H932.404L928.949 257.674V262.913H928.09V256.324H928.949L932.404 261.553V256.324H933.263V262.913ZM936.984 262.998C936.499 262.998 936.059 262.888 935.662 262.667C935.272 262.447 934.964 262.135 934.737 261.733C934.517 261.324 934.407 260.852 934.407 260.317C934.407 259.788 934.52 259.322 934.747 258.92C934.979 258.511 935.294 258.199 935.691 257.985C936.087 257.765 936.531 257.655 937.022 257.655C937.512 257.655 937.956 257.765 938.353 257.985C938.749 258.199 939.061 258.507 939.287 258.91C939.52 259.313 939.636 259.782 939.636 260.317C939.636 260.852 939.517 261.324 939.278 261.733C939.045 262.135 938.727 262.447 938.324 262.667C937.921 262.888 937.475 262.998 936.984 262.998ZM936.984 262.242C937.292 262.242 937.582 262.17 937.852 262.025C938.123 261.881 938.34 261.663 938.504 261.374C938.673 261.085 938.758 260.732 938.758 260.317C938.758 259.901 938.677 259.549 938.513 259.26C938.349 258.97 938.135 258.756 937.871 258.618C937.607 258.473 937.32 258.4 937.012 258.4C936.697 258.4 936.408 258.473 936.144 258.618C935.886 258.756 935.678 258.97 935.521 259.26C935.363 259.549 935.285 259.901 935.285 260.317C935.285 260.738 935.36 261.094 935.511 261.383C935.669 261.673 935.876 261.89 936.134 262.035C936.392 262.173 936.675 262.242 936.984 262.242ZM942.691 262.12L944.296 257.74H945.212L943.182 262.913H942.182L940.152 257.74H941.077L942.691 262.12Z" fill="#85878D"/>
<path d="M1015.78 256.333C1016.49 256.333 1017.11 256.468 1017.63 256.739C1018.16 257.003 1018.57 257.384 1018.84 257.881C1019.13 258.378 1019.27 258.964 1019.27 259.637C1019.27 260.31 1019.13 260.896 1018.84 261.393C1018.57 261.884 1018.16 262.261 1017.63 262.526C1017.11 262.784 1016.49 262.913 1015.78 262.913H1013.73V256.333H1015.78ZM1015.78 262.205C1016.62 262.205 1017.27 261.981 1017.72 261.534C1018.17 261.081 1018.39 260.449 1018.39 259.637C1018.39 258.819 1018.16 258.18 1017.71 257.721C1017.26 257.261 1016.62 257.032 1015.78 257.032H1014.59V262.205H1015.78ZM1025.12 260.128C1025.12 260.292 1025.11 260.465 1025.09 260.647H1020.96C1020.99 261.157 1021.16 261.557 1021.48 261.846C1021.8 262.129 1022.19 262.271 1022.64 262.271C1023.01 262.271 1023.32 262.186 1023.56 262.016C1023.82 261.84 1023.99 261.607 1024.09 261.317H1025.02C1024.88 261.815 1024.6 262.22 1024.19 262.535C1023.77 262.843 1023.25 262.998 1022.64 262.998C1022.15 262.998 1021.71 262.888 1021.32 262.667C1020.93 262.447 1020.63 262.135 1020.41 261.733C1020.19 261.324 1020.08 260.852 1020.08 260.317C1020.08 259.782 1020.19 259.313 1020.4 258.91C1020.61 258.507 1020.91 258.199 1021.3 257.985C1021.69 257.765 1022.13 257.655 1022.64 257.655C1023.13 257.655 1023.56 257.762 1023.94 257.976C1024.32 258.19 1024.61 258.485 1024.81 258.863C1025.02 259.234 1025.12 259.656 1025.12 260.128ZM1024.23 259.949C1024.23 259.621 1024.16 259.341 1024.02 259.108C1023.87 258.869 1023.67 258.69 1023.42 258.57C1023.18 258.445 1022.9 258.382 1022.6 258.382C1022.17 258.382 1021.79 258.52 1021.49 258.797C1021.18 259.074 1021.01 259.458 1020.97 259.949H1024.23ZM1025.93 260.317C1025.93 259.782 1026.04 259.316 1026.25 258.92C1026.47 258.517 1026.76 258.205 1027.14 257.985C1027.53 257.765 1027.96 257.655 1028.45 257.655C1029.09 257.655 1029.61 257.809 1030.02 258.117C1030.44 258.426 1030.71 258.854 1030.84 259.401H1029.92C1029.83 259.086 1029.66 258.838 1029.4 258.655C1029.15 258.473 1028.83 258.382 1028.45 258.382C1027.96 258.382 1027.57 258.552 1027.26 258.891C1026.96 259.225 1026.81 259.7 1026.81 260.317C1026.81 260.94 1026.96 261.421 1027.26 261.761C1027.57 262.101 1027.96 262.271 1028.45 262.271C1028.83 262.271 1029.15 262.183 1029.4 262.006C1029.65 261.83 1029.82 261.579 1029.92 261.251H1030.84C1030.7 261.78 1030.43 262.205 1030.01 262.526C1029.6 262.84 1029.08 262.998 1028.45 262.998C1027.96 262.998 1027.53 262.888 1027.14 262.667C1026.76 262.447 1026.47 262.135 1026.25 261.733C1026.04 261.33 1025.93 260.858 1025.93 260.317Z" fill="#85878D"/>
<rect x="17.522" y="18.2631" width="15.9094" height="15.9094" rx="3.97736" fill="#F59A3B"/>
<path d="M47.2509 28.3589H43.605L42.9334 30.2178H41.782L44.8043 21.9065H46.0636L49.0739 30.2178H47.9226L47.2509 28.3589ZM46.9391 27.4714L45.428 23.2497L43.9168 27.4714H46.9391ZM49.9833 26.9197C49.9833 26.2401 50.1193 25.6484 50.3911 25.1447C50.663 24.633 51.0387 24.2372 51.5185 23.9574C52.0062 23.6775 52.5619 23.5376 53.1855 23.5376C53.9931 23.5376 54.6567 23.7335 55.1764 24.1253C55.7041 24.517 56.0519 25.0607 56.2198 25.7563H55.0445C54.9326 25.3566 54.7127 25.0407 54.3849 24.8089C54.065 24.577 53.6653 24.4611 53.1855 24.4611C52.5619 24.4611 52.0582 24.6769 51.6744 25.1087C51.2906 25.5325 51.0987 26.1361 51.0987 26.9197C51.0987 27.7112 51.2906 28.3229 51.6744 28.7547C52.0582 29.1864 52.5619 29.4023 53.1855 29.4023C53.6653 29.4023 54.065 29.2904 54.3849 29.0665C54.7047 28.8426 54.9246 28.5228 55.0445 28.107H56.2198C56.0439 28.7786 55.6921 29.3183 55.1644 29.7261C54.6367 30.1259 53.9771 30.3258 53.1855 30.3258C52.5619 30.3258 52.0062 30.1859 51.5185 29.906C51.0387 29.6262 50.663 29.2304 50.3911 28.7187C50.1193 28.207 49.9833 27.6073 49.9833 26.9197ZM59.0073 24.545V28.4188C59.0073 28.7387 59.0753 28.9665 59.2112 29.1025C59.3471 29.2304 59.583 29.2944 59.9188 29.2944H60.7224V30.2178H59.7389C59.1313 30.2178 58.6755 30.0779 58.3717 29.7981C58.0679 29.5182 57.9159 29.0585 57.9159 28.4188V24.545H57.0644V23.6455H57.9159V21.9905H59.0073V23.6455H60.7224V24.545H59.0073ZM62.6084 22.5781C62.4005 22.5781 62.2246 22.5062 62.0807 22.3622C61.9368 22.2183 61.8648 22.0424 61.8648 21.8345C61.8648 21.6267 61.9368 21.4508 62.0807 21.3068C62.2246 21.1629 62.4005 21.091 62.6084 21.091C62.8083 21.091 62.9762 21.1629 63.1121 21.3068C63.256 21.4508 63.328 21.6267 63.328 21.8345C63.328 22.0424 63.256 22.2183 63.1121 22.3622C62.9762 22.5062 62.8083 22.5781 62.6084 22.5781ZM63.1361 23.6455V30.2178H62.0447V23.6455H63.1361ZM67.4428 29.2104L69.4817 23.6455H70.645L68.0665 30.2178H66.7952L64.2166 23.6455H65.392L67.4428 29.2104ZM77.7156 26.6798C77.7156 26.8877 77.7036 27.1076 77.6796 27.3395H72.4266C72.4665 27.9871 72.6864 28.4948 73.0862 28.8626C73.494 29.2224 73.9857 29.4023 74.5614 29.4023C75.0331 29.4023 75.4249 29.2944 75.7367 29.0785C76.0565 28.8546 76.2804 28.5588 76.4083 28.191H77.5837C77.4078 28.8226 77.056 29.3383 76.5283 29.7381C76.0006 30.1299 75.3449 30.3258 74.5614 30.3258C73.9377 30.3258 73.378 30.1859 72.8823 29.906C72.3946 29.6262 72.0108 29.2304 71.731 28.7187C71.4511 28.199 71.3112 27.5993 71.3112 26.9197C71.3112 26.2401 71.4471 25.6444 71.719 25.1327C71.9908 24.621 72.3706 24.2292 72.8583 23.9574C73.354 23.6775 73.9217 23.5376 74.5614 23.5376C75.185 23.5376 75.7367 23.6735 76.2164 23.9454C76.6962 24.2172 77.064 24.593 77.3198 25.0727C77.5837 25.5445 77.7156 26.0802 77.7156 26.6798ZM76.5882 26.452C76.5882 26.0362 76.4963 25.6804 76.3124 25.3846C76.1285 25.0807 75.8766 24.8528 75.5568 24.7009C75.245 24.541 74.8972 24.4611 74.5134 24.4611C73.9617 24.4611 73.49 24.637 73.0982 24.9888C72.7144 25.3406 72.4945 25.8283 72.4386 26.452H76.5882ZM83.445 29.3303H86.3714V30.2178H82.3536V21.8585H83.445V29.3303ZM93.527 26.6798C93.527 26.8877 93.515 27.1076 93.491 27.3395H88.238C88.278 27.9871 88.4978 28.4948 88.8976 28.8626C89.3054 29.2224 89.7971 29.4023 90.3728 29.4023C90.8445 29.4023 91.2363 29.2944 91.5481 29.0785C91.868 28.8546 92.0918 28.5588 92.2198 28.191H93.3951C93.2192 28.8226 92.8674 29.3383 92.3397 29.7381C91.812 30.1299 91.1564 30.3258 90.3728 30.3258C89.7491 30.3258 89.1895 30.1859 88.6937 29.906C88.206 29.6262 87.8222 29.2304 87.5424 28.7187C87.2625 28.199 87.1226 27.5993 87.1226 26.9197C87.1226 26.2401 87.2585 25.6444 87.5304 25.1327C87.8022 24.621 88.182 24.2292 88.6698 23.9574C89.1655 23.6775 89.7332 23.5376 90.3728 23.5376C90.9964 23.5376 91.5481 23.6735 92.0279 23.9454C92.5076 24.2172 92.8754 24.593 93.1312 25.0727C93.3951 25.5445 93.527 26.0802 93.527 26.6798ZM92.3997 26.452C92.3997 26.0362 92.3077 25.6804 92.1238 25.3846C91.9399 25.0807 91.6881 24.8528 91.3682 24.7009C91.0564 24.541 90.7086 24.4611 90.3248 24.4611C89.7731 24.4611 89.3014 24.637 88.9096 24.9888C88.5258 25.3406 88.306 25.8283 88.25 26.452H92.3997ZM94.5599 26.9077C94.5599 26.2361 94.6958 25.6484 94.9676 25.1447C95.2395 24.633 95.6113 24.2372 96.083 23.9574C96.5627 23.6775 97.0944 23.5376 97.6781 23.5376C98.2538 23.5376 98.7535 23.6615 99.1773 23.9094C99.601 24.1572 99.9168 24.4691 100.125 24.8449V23.6455H101.228V30.2178H100.125V28.9945C99.9088 29.3783 99.585 29.6981 99.1533 29.954C98.7295 30.2018 98.2338 30.3258 97.6661 30.3258C97.0824 30.3258 96.5547 30.1819 96.083 29.894C95.6113 29.6062 95.2395 29.2024 94.9676 28.6827C94.6958 28.163 94.5599 27.5713 94.5599 26.9077ZM100.125 26.9197C100.125 26.424 100.025 25.9922 99.8249 25.6244C99.625 25.2566 99.3532 24.9768 99.0094 24.7849C98.6735 24.585 98.3017 24.4851 97.894 24.4851C97.4862 24.4851 97.1144 24.581 96.7786 24.7729C96.4428 24.9648 96.1749 25.2446 95.9751 25.6124C95.7752 25.9802 95.6752 26.412 95.6752 26.9077C95.6752 27.4114 95.7752 27.8512 95.9751 28.227C96.1749 28.5947 96.4428 28.8786 96.7786 29.0785C97.1144 29.2704 97.4862 29.3663 97.894 29.3663C98.3017 29.3663 98.6735 29.2704 99.0094 29.0785C99.3532 28.8786 99.625 28.5947 99.8249 28.227C100.025 27.8512 100.125 27.4154 100.125 26.9197ZM104.164 24.7129C104.356 24.3371 104.628 24.0453 104.979 23.8374C105.339 23.6295 105.775 23.5256 106.287 23.5256V24.653H105.999C104.775 24.653 104.164 25.3166 104.164 26.6438V30.2178H103.072V23.6455H104.164V24.7129ZM110.749 23.5256C111.548 23.5256 112.196 23.7695 112.692 24.2572C113.187 24.7369 113.435 25.4325 113.435 26.344V30.2178H112.356V26.4999C112.356 25.8443 112.192 25.3446 111.864 25.0008C111.536 24.649 111.088 24.4731 110.521 24.4731C109.945 24.4731 109.485 24.653 109.142 25.0128C108.806 25.3726 108.638 25.8963 108.638 26.5839V30.2178H107.546V23.6455H108.638V24.581C108.854 24.2452 109.146 23.9853 109.513 23.8014C109.889 23.6175 110.301 23.5256 110.749 23.5256ZM121.215 26.6798C121.215 26.8877 121.203 27.1076 121.179 27.3395H115.926C115.966 27.9871 116.185 28.4948 116.585 28.8626C116.993 29.2224 117.485 29.4023 118.06 29.4023C118.532 29.4023 118.924 29.2944 119.236 29.0785C119.556 28.8546 119.779 28.5588 119.907 28.191H121.083C120.907 28.8226 120.555 29.3383 120.027 29.7381C119.5 30.1299 118.844 30.3258 118.06 30.3258C117.437 30.3258 116.877 30.1859 116.381 29.906C115.894 29.6262 115.51 29.2304 115.23 28.7187C114.95 28.199 114.81 27.5993 114.81 26.9197C114.81 26.2401 114.946 25.6444 115.218 25.1327C115.49 24.621 115.87 24.2292 116.357 23.9574C116.853 23.6775 117.421 23.5376 118.06 23.5376C118.684 23.5376 119.236 23.6735 119.715 23.9454C120.195 24.2172 120.563 24.593 120.819 25.0727C121.083 25.5445 121.215 26.0802 121.215 26.6798ZM120.087 26.452C120.087 26.0362 119.995 25.6804 119.811 25.3846C119.627 25.0807 119.376 24.8528 119.056 24.7009C118.744 24.541 118.396 24.4611 118.012 24.4611C117.461 24.4611 116.989 24.637 116.597 24.9888C116.213 25.3406 115.994 25.8283 115.938 26.452H120.087ZM123.747 24.7129C123.938 24.3371 124.21 24.0453 124.562 23.8374C124.922 23.6295 125.358 23.5256 125.869 23.5256V24.653H125.582C124.358 24.653 123.747 25.3166 123.747 26.6438V30.2178H122.655V23.6455H123.747V24.7129Z" fill="#85878D"/>
<rect x="136.386" y="18.2631" width="15.9094" height="15.9094" rx="3.97736" fill="#7AA43E"/>
<path d="M166.331 22.3982L162.997 30.2178H161.894L165.276 22.5062H160.646V21.5707H166.331V22.3982ZM173.07 22.4942H168.86V25.2286C169.044 24.9728 169.316 24.7649 169.676 24.605C170.036 24.4371 170.424 24.3531 170.839 24.3531C171.503 24.3531 172.043 24.4931 172.458 24.7729C172.874 25.0447 173.17 25.4005 173.346 25.8403C173.53 26.2721 173.622 26.7318 173.622 27.2195C173.622 27.7952 173.514 28.3109 173.298 28.7666C173.082 29.2224 172.75 29.5822 172.302 29.846C171.863 30.1099 171.315 30.2418 170.659 30.2418C169.82 30.2418 169.14 30.0259 168.621 29.5942C168.101 29.1624 167.785 28.5868 167.673 27.8672H168.74C168.844 28.3229 169.064 28.6787 169.4 28.9346C169.736 29.1904 170.16 29.3183 170.671 29.3183C171.303 29.3183 171.779 29.1304 172.099 28.7547C172.418 28.3709 172.578 27.8672 172.578 27.2435C172.578 26.6199 172.418 26.1401 172.099 25.8043C171.779 25.4605 171.307 25.2886 170.683 25.2886C170.26 25.2886 169.888 25.3925 169.568 25.6004C169.256 25.8003 169.028 26.0762 168.884 26.428H167.853V21.5347H173.07V22.4942ZM174.832 23.5016C174.832 22.9579 174.996 22.5262 175.324 22.2063C175.652 21.8785 176.072 21.7146 176.583 21.7146C177.095 21.7146 177.515 21.8785 177.843 22.2063C178.17 22.5262 178.334 22.9579 178.334 23.5016C178.334 24.0533 178.17 24.4931 177.843 24.8209C177.515 25.1407 177.095 25.3006 176.583 25.3006C176.072 25.3006 175.652 25.1407 175.324 24.8209C174.996 24.4931 174.832 24.0533 174.832 23.5016ZM181.836 21.8465L176.979 30.2178H175.9L180.757 21.8465H181.836ZM176.583 22.3862C176.311 22.3862 176.096 22.4822 175.936 22.6741C175.784 22.858 175.708 23.1338 175.708 23.5016C175.708 23.8694 175.784 24.1492 175.936 24.3411C176.096 24.533 176.311 24.629 176.583 24.629C176.855 24.629 177.071 24.533 177.231 24.3411C177.391 24.1412 177.471 23.8614 177.471 23.5016C177.471 23.1338 177.391 22.858 177.231 22.6741C177.071 22.4822 176.855 22.3862 176.583 22.3862ZM179.426 28.5628C179.426 28.0111 179.59 27.5753 179.917 27.2555C180.245 26.9277 180.665 26.7638 181.177 26.7638C181.688 26.7638 182.104 26.9277 182.424 27.2555C182.752 27.5753 182.916 28.0111 182.916 28.5628C182.916 29.1065 182.752 29.5422 182.424 29.87C182.104 30.1978 181.688 30.3618 181.177 30.3618C180.665 30.3618 180.245 30.2018 179.917 29.882C179.59 29.5542 179.426 29.1145 179.426 28.5628ZM181.165 27.4474C180.893 27.4474 180.677 27.5433 180.517 27.7352C180.357 27.9191 180.277 28.195 180.277 28.5628C180.277 28.9226 180.357 29.1984 180.517 29.3903C180.677 29.5742 180.893 29.6661 181.165 29.6661C181.437 29.6661 181.652 29.5742 181.812 29.3903C181.972 29.1984 182.052 28.9226 182.052 28.5628C182.052 28.195 181.972 27.9191 181.812 27.7352C181.652 27.5433 181.437 27.4474 181.165 27.4474ZM191.34 30.3018C190.564 30.3018 189.856 30.1219 189.217 29.7621C188.577 29.3943 188.069 28.8866 187.694 28.2389C187.326 27.5833 187.142 26.8477 187.142 26.0322C187.142 25.2166 187.326 24.4851 187.694 23.8374C188.069 23.1818 188.577 22.6741 189.217 22.3143C189.856 21.9465 190.564 21.7626 191.34 21.7626C192.123 21.7626 192.835 21.9465 193.474 22.3143C194.114 22.6741 194.618 23.1778 194.986 23.8254C195.353 24.4731 195.537 25.2086 195.537 26.0322C195.537 26.8557 195.353 27.5913 194.986 28.2389C194.618 28.8866 194.114 29.3943 193.474 29.7621C192.835 30.1219 192.123 30.3018 191.34 30.3018ZM191.34 29.3543C191.923 29.3543 192.447 29.2184 192.911 28.9465C193.382 28.6747 193.75 28.2869 194.014 27.7832C194.286 27.2795 194.422 26.6958 194.422 26.0322C194.422 25.3606 194.286 24.7769 194.014 24.2812C193.75 23.7775 193.386 23.3897 192.923 23.1178C192.459 22.846 191.931 22.7101 191.34 22.7101C190.748 22.7101 190.22 22.846 189.757 23.1178C189.293 23.3897 188.925 23.7775 188.653 24.2812C188.389 24.7769 188.257 25.3606 188.257 26.0322C188.257 26.6958 188.389 27.2795 188.653 27.7832C188.925 28.2869 189.293 28.6747 189.757 28.9465C190.228 29.2184 190.756 29.3543 191.34 29.3543ZM199.425 29.2104L201.464 23.6455H202.627L200.048 30.2178H198.777L196.199 23.6455H197.374L199.425 29.2104ZM209.697 26.6798C209.697 26.8877 209.685 27.1076 209.662 27.3395H204.408C204.448 27.9871 204.668 28.4948 205.068 28.8626C205.476 29.2224 205.968 29.4023 206.543 29.4023C207.015 29.4023 207.407 29.2944 207.719 29.0785C208.038 28.8546 208.262 28.5588 208.39 28.191H209.566C209.39 28.8226 209.038 29.3383 208.51 29.7381C207.982 30.1299 207.327 30.3258 206.543 30.3258C205.92 30.3258 205.36 30.1859 204.864 29.906C204.376 29.6262 203.993 29.2304 203.713 28.7187C203.433 28.199 203.293 27.5993 203.293 26.9197C203.293 26.2401 203.429 25.6444 203.701 25.1327C203.973 24.621 204.352 24.2292 204.84 23.9574C205.336 23.6775 205.904 23.5376 206.543 23.5376C207.167 23.5376 207.719 23.6735 208.198 23.9454C208.678 24.2172 209.046 24.593 209.302 25.0727C209.566 25.5445 209.697 26.0802 209.697 26.6798ZM208.57 26.452C208.57 26.0362 208.478 25.6804 208.294 25.3846C208.11 25.0807 207.859 24.8528 207.539 24.7009C207.227 24.541 206.879 24.4611 206.495 24.4611C205.944 24.4611 205.472 24.637 205.08 24.9888C204.696 25.3406 204.476 25.8283 204.42 26.452H208.57ZM212.229 24.7129C212.421 24.3371 212.693 24.0453 213.045 23.8374C213.405 23.6295 213.841 23.5256 214.352 23.5256V24.653H214.064C212.841 24.653 212.229 25.3166 212.229 26.6438V30.2178H211.138V23.6455H212.229V24.7129ZM215.204 26.9077C215.204 26.2361 215.34 25.6484 215.612 25.1447C215.884 24.633 216.256 24.2372 216.727 23.9574C217.207 23.6775 217.739 23.5376 218.323 23.5376C218.898 23.5376 219.398 23.6615 219.822 23.9094C220.246 24.1572 220.561 24.4691 220.769 24.8449V23.6455H221.873V30.2178H220.769V28.9945C220.553 29.3783 220.23 29.6981 219.798 29.954C219.374 30.2018 218.878 30.3258 218.311 30.3258C217.727 30.3258 217.199 30.1819 216.727 29.894C216.256 29.6062 215.884 29.2024 215.612 28.6827C215.34 28.163 215.204 27.5713 215.204 26.9077ZM220.769 26.9197C220.769 26.424 220.669 25.9922 220.469 25.6244C220.27 25.2566 219.998 24.9768 219.654 24.7849C219.318 24.585 218.946 24.4851 218.538 24.4851C218.131 24.4851 217.759 24.581 217.423 24.7729C217.087 24.9648 216.819 25.2446 216.62 25.6124C216.42 25.9802 216.32 26.412 216.32 26.9077C216.32 27.4114 216.42 27.8512 216.62 28.227C216.819 28.5947 217.087 28.8786 217.423 29.0785C217.759 29.2704 218.131 29.3663 218.538 29.3663C218.946 29.3663 219.318 29.2704 219.654 29.0785C219.998 28.8786 220.27 28.5947 220.469 28.227C220.669 27.8512 220.769 27.4154 220.769 26.9197ZM224.808 21.3428V30.2178H223.717V21.3428H224.808ZM227.76 21.3428V30.2178H226.668V21.3428H227.76ZM238.406 24.3052C238.406 25.0008 238.166 25.5804 237.687 26.0442C237.215 26.4999 236.491 26.7278 235.516 26.7278H233.909V30.2178H232.817V21.8585H235.516C236.459 21.8585 237.175 22.0864 237.663 22.5421C238.158 22.9979 238.406 23.5856 238.406 24.3052ZM235.516 25.8283C236.123 25.8283 236.571 25.6964 236.859 25.4325C237.147 25.1687 237.291 24.7929 237.291 24.3052C237.291 23.2737 236.699 22.758 235.516 22.758H233.909V25.8283H235.516ZM245.759 26.6798C245.759 26.8877 245.747 27.1076 245.723 27.3395H240.47C240.51 27.9871 240.73 28.4948 241.13 28.8626C241.538 29.2224 242.029 29.4023 242.605 29.4023C243.077 29.4023 243.469 29.2944 243.78 29.0785C244.1 28.8546 244.324 28.5588 244.452 28.191H245.627C245.451 28.8226 245.1 29.3383 244.572 29.7381C244.044 30.1299 243.389 30.3258 242.605 30.3258C241.981 30.3258 241.422 30.1859 240.926 29.906C240.438 29.6262 240.054 29.2304 239.775 28.7187C239.495 28.199 239.355 27.5993 239.355 26.9197C239.355 26.2401 239.491 25.6444 239.763 25.1327C240.034 24.621 240.414 24.2292 240.902 23.9574C241.398 23.6775 241.965 23.5376 242.605 23.5376C243.229 23.5376 243.78 23.6735 244.26 23.9454C244.74 24.2172 245.108 24.593 245.363 25.0727C245.627 25.5445 245.759 26.0802 245.759 26.6798ZM244.632 26.452C244.632 26.0362 244.54 25.6804 244.356 25.3846C244.172 25.0807 243.92 24.8528 243.6 24.7009C243.289 24.541 242.941 24.4611 242.557 24.4611C242.005 24.4611 241.534 24.637 241.142 24.9888C240.758 25.3406 240.538 25.8283 240.482 26.452H244.632ZM248.291 24.7129C248.483 24.3371 248.755 24.0453 249.107 23.8374C249.467 23.6295 249.902 23.5256 250.414 23.5256V24.653H250.126C248.903 24.653 248.291 25.3166 248.291 26.6438V30.2178H247.2V23.6455H248.291V24.7129ZM254.348 24.545H252.969V30.2178H251.878V24.545H251.026V23.6455H251.878V23.1778C251.878 22.4422 252.066 21.9065 252.441 21.5707C252.825 21.2269 253.437 21.055 254.276 21.055V21.9665C253.797 21.9665 253.457 22.0624 253.257 22.2543C253.065 22.4382 252.969 22.746 252.969 23.1778V23.6455H254.348V24.545ZM258.487 30.3258C257.872 30.3258 257.312 30.1859 256.808 29.906C256.313 29.6262 255.921 29.2304 255.633 28.7187C255.353 28.199 255.213 27.5993 255.213 26.9197C255.213 26.2481 255.357 25.6564 255.645 25.1447C255.941 24.625 256.34 24.2292 256.844 23.9574C257.348 23.6775 257.912 23.5376 258.535 23.5376C259.159 23.5376 259.723 23.6775 260.226 23.9574C260.73 24.2292 261.126 24.621 261.414 25.1327C261.709 25.6444 261.857 26.2401 261.857 26.9197C261.857 27.5993 261.705 28.199 261.402 28.7187C261.106 29.2304 260.702 29.6262 260.19 29.906C259.679 30.1859 259.111 30.3258 258.487 30.3258ZM258.487 29.3663C258.879 29.3663 259.247 29.2744 259.591 29.0905C259.934 28.9066 260.21 28.6307 260.418 28.2629C260.634 27.8951 260.742 27.4474 260.742 26.9197C260.742 26.392 260.638 25.9442 260.43 25.5764C260.222 25.2086 259.95 24.9368 259.615 24.7609C259.279 24.577 258.915 24.4851 258.523 24.4851C258.123 24.4851 257.756 24.577 257.42 24.7609C257.092 24.9368 256.828 25.2086 256.628 25.5764C256.428 25.9442 256.328 26.392 256.328 26.9197C256.328 27.4554 256.424 27.9071 256.616 28.2749C256.816 28.6427 257.08 28.9186 257.408 29.1025C257.736 29.2784 258.096 29.3663 258.487 29.3663ZM264.384 24.7129C264.576 24.3371 264.847 24.0453 265.199 23.8374C265.559 23.6295 265.995 23.5256 266.507 23.5256V24.653H266.219C264.995 24.653 264.384 25.3166 264.384 26.6438V30.2178H263.292V23.6455H264.384V24.7129ZM275.67 23.5256C276.182 23.5256 276.637 23.6335 277.037 23.8494C277.437 24.0573 277.753 24.3731 277.985 24.7969C278.217 25.2206 278.332 25.7364 278.332 26.344V30.2178H277.253V26.4999C277.253 25.8443 277.089 25.3446 276.761 25.0008C276.442 24.649 276.006 24.4731 275.454 24.4731C274.886 24.4731 274.435 24.657 274.099 25.0248C273.763 25.3846 273.595 25.9083 273.595 26.5959V30.2178H272.516V26.4999C272.516 25.8443 272.352 25.3446 272.024 25.0008C271.704 24.649 271.268 24.4731 270.717 24.4731C270.149 24.4731 269.697 24.657 269.362 25.0248C269.026 25.3846 268.858 25.9083 268.858 26.5959V30.2178H267.766V23.6455H268.858V24.593C269.074 24.2492 269.362 23.9853 269.721 23.8014C270.089 23.6175 270.493 23.5256 270.933 23.5256C271.484 23.5256 271.972 23.6495 272.396 23.8974C272.82 24.1452 273.135 24.509 273.343 24.9888C273.527 24.525 273.831 24.1652 274.255 23.9094C274.679 23.6535 275.15 23.5256 275.67 23.5256ZM279.715 26.9077C279.715 26.2361 279.851 25.6484 280.123 25.1447C280.395 24.633 280.766 24.2372 281.238 23.9574C281.718 23.6775 282.25 23.5376 282.833 23.5376C283.409 23.5376 283.909 23.6615 284.332 23.9094C284.756 24.1572 285.072 24.4691 285.28 24.8449V23.6455H286.383V30.2178H285.28V28.9945C285.064 29.3783 284.74 29.6981 284.308 29.954C283.885 30.2018 283.389 30.3258 282.821 30.3258C282.238 30.3258 281.71 30.1819 281.238 29.894C280.766 29.6062 280.395 29.2024 280.123 28.6827C279.851 28.163 279.715 27.5713 279.715 26.9077ZM285.28 26.9197C285.28 26.424 285.18 25.9922 284.98 25.6244C284.78 25.2566 284.508 24.9768 284.164 24.7849C283.829 24.585 283.457 24.4851 283.049 24.4851C282.641 24.4851 282.27 24.581 281.934 24.7729C281.598 24.9648 281.33 25.2446 281.13 25.6124C280.93 25.9802 280.83 26.412 280.83 26.9077C280.83 27.4114 280.93 27.8512 281.13 28.227C281.33 28.5947 281.598 28.8786 281.934 29.0785C282.27 29.2704 282.641 29.3663 283.049 29.3663C283.457 29.3663 283.829 29.2704 284.164 29.0785C284.508 28.8786 284.78 28.5947 284.98 28.227C285.18 27.8512 285.28 27.4154 285.28 26.9197ZM291.43 23.5256C292.229 23.5256 292.877 23.7695 293.373 24.2572C293.868 24.7369 294.116 25.4325 294.116 26.344V30.2178H293.037V26.4999C293.037 25.8443 292.873 25.3446 292.545 25.0008C292.217 24.649 291.77 24.4731 291.202 24.4731C290.626 24.4731 290.166 24.653 289.823 25.0128C289.487 25.3726 289.319 25.8963 289.319 26.5839V30.2178H288.228V23.6455H289.319V24.581C289.535 24.2452 289.827 23.9853 290.194 23.8014C290.57 23.6175 290.982 23.5256 291.43 23.5256ZM295.491 26.9197C295.491 26.2401 295.627 25.6484 295.899 25.1447C296.171 24.633 296.547 24.2372 297.026 23.9574C297.514 23.6775 298.07 23.5376 298.693 23.5376C299.501 23.5376 300.165 23.7335 300.684 24.1253C301.212 24.517 301.56 25.0607 301.728 25.7563H300.552C300.44 25.3566 300.221 25.0407 299.893 24.8089C299.573 24.577 299.173 24.4611 298.693 24.4611C298.07 24.4611 297.566 24.6769 297.182 25.1087C296.799 25.5325 296.607 26.1361 296.607 26.9197C296.607 27.7112 296.799 28.3229 297.182 28.7547C297.566 29.1864 298.07 29.4023 298.693 29.4023C299.173 29.4023 299.573 29.2904 299.893 29.0665C300.213 28.8426 300.432 28.5228 300.552 28.107H301.728C301.552 28.7786 301.2 29.3183 300.672 29.7261C300.145 30.1259 299.485 30.3258 298.693 30.3258C298.07 30.3258 297.514 30.1859 297.026 29.906C296.547 29.6262 296.171 29.2304 295.899 28.7187C295.627 28.207 295.491 27.6073 295.491 26.9197ZM309.181 26.6798C309.181 26.8877 309.169 27.1076 309.145 27.3395H303.892C303.932 27.9871 304.151 28.4948 304.551 28.8626C304.959 29.2224 305.451 29.4023 306.026 29.4023C306.498 29.4023 306.89 29.2944 307.202 29.0785C307.522 28.8546 307.745 28.5588 307.873 28.191H309.049C308.873 28.8226 308.521 29.3383 307.993 29.7381C307.466 30.1299 306.81 30.3258 306.026 30.3258C305.403 30.3258 304.843 30.1859 304.347 29.906C303.86 29.6262 303.476 29.2304 303.196 28.7187C302.916 28.199 302.776 27.5993 302.776 26.9197C302.776 26.2401 302.912 25.6444 303.184 25.1327C303.456 24.621 303.836 24.2292 304.323 23.9574C304.819 23.6775 305.387 23.5376 306.026 23.5376C306.65 23.5376 307.202 23.6735 307.681 23.9454C308.161 24.2172 308.529 24.593 308.785 25.0727C309.049 25.5445 309.181 26.0802 309.181 26.6798ZM308.053 26.452C308.053 26.0362 307.961 25.6804 307.777 25.3846C307.594 25.0807 307.342 24.8528 307.022 24.7009C306.71 24.541 306.362 24.4611 305.978 24.4611C305.427 24.4611 304.955 24.637 304.563 24.9888C304.179 25.3406 303.96 25.8283 303.904 26.452H308.053Z" fill="#85878D"/>
<path d="M20 62.9127H1052" stroke="#E9E9E9" strokeWidth="1.17394" strokeLinecap="round" stroke-dasharray="7.04 7.83"/>
<path d="M20 235.913H1052" stroke="#E9E9E9" strokeWidth="1.17394" strokeLinecap="round" stroke-dasharray="7.04 7.83"/>
<path opacity="0.3" d="M284 120.913C237.2 107.713 93.1667 137.413 27 153.913V221.413H1054.5V84.4127C1038 84.4127 982 109.913 943.5 120.913C905 131.913 659.5 93.4127 619 84.4127C578.5 75.4127 342.5 137.413 284 120.913Z" fill="url(#paint0_linear_31_441)"/>
<path d="M29 152.913C94.8769 136.506 238.279 106.974 284.874 120.099C343.118 136.506 578.085 74.8566 618.407 83.8057C658.73 92.7548 903.155 131.037 941.486 120.099C979.818 109.161 1035.57 83.8057 1052 83.8057" stroke="#F59A3B" strokeWidth="5" strokeLinecap="square"/>
<path d="M600 82.9127C600 87.3309 603.582 90.9127 608 90.9127C612.418 90.9127 616 87.3309 616 82.9127C616 78.4944 612.418 74.9127 608 74.9127C603.582 74.9127 600 78.4944 600 82.9127ZM606.5 82.9127V84.9347H609.5V82.9127H606.5ZM606.5 88.9788V93.023H609.5V88.9788H606.5ZM606.5 97.0671V101.111H609.5V97.0671H606.5ZM606.5 105.155V109.199H609.5V105.155H606.5ZM606.5 113.244V117.288H609.5V113.244H606.5ZM606.5 121.332V125.376H609.5V121.332H606.5ZM606.5 129.42V133.464H609.5V129.42H606.5ZM606.5 137.508V141.552H609.5V137.508H606.5ZM606.5 145.596V149.641H609.5V145.596H606.5ZM606.5 153.685V157.729H609.5V153.685H606.5ZM606.5 161.773V165.817H609.5V161.773H606.5ZM606.5 169.861V173.905H609.5V169.861H606.5ZM606.5 177.949V181.994H609.5V177.949H606.5ZM606.5 186.038V190.082H609.5V186.038H606.5ZM606.5 194.126V198.17H609.5V194.126H606.5ZM606.5 202.214V206.258H609.5V202.214H606.5ZM606.5 210.302V214.347H609.5V210.302H606.5ZM606.5 218.391V220.413H609.5V218.391H606.5Z" fill="#F59A3B"/>
<g filter="url(#filter0_d_31_441)">
<rect x="409" y="21.9127" width="171" height="92" rx="11" fill="white" shape-rendering="crispEdges"/>
<path d="M423.72 44.4247C423.72 43.0407 423.952 41.9607 424.416 41.1847C424.888 40.4007 425.696 40.0087 426.84 40.0087C427.984 40.0087 428.788 40.4007 429.252 41.1847C429.724 41.9607 429.96 43.0407 429.96 44.4247C429.96 45.8247 429.724 46.9207 429.252 47.7127C428.788 48.4967 427.984 48.8887 426.84 48.8887C425.696 48.8887 424.888 48.4967 424.416 47.7127C423.952 46.9207 423.72 45.8247 423.72 44.4247ZM428.616 44.4247C428.616 43.7767 428.572 43.2287 428.484 42.7807C428.404 42.3327 428.236 41.9687 427.98 41.6887C427.724 41.4007 427.344 41.2567 426.84 41.2567C426.336 41.2567 425.956 41.4007 425.7 41.6887C425.444 41.9687 425.272 42.3327 425.184 42.7807C425.104 43.2287 425.064 43.7767 425.064 44.4247C425.064 45.0967 425.104 45.6607 425.184 46.1167C425.264 46.5727 425.432 46.9407 425.688 47.2207C425.952 47.5007 426.336 47.6407 426.84 47.6407C427.344 47.6407 427.724 47.5007 427.98 47.2207C428.244 46.9407 428.416 46.5727 428.496 46.1167C428.576 45.6607 428.616 45.0967 428.616 44.4247ZM436.112 42.1927C436.024 41.8247 435.864 41.5487 435.632 41.3647C435.4 41.1807 435.076 41.0887 434.66 41.0887C434.028 41.0887 433.556 41.3327 433.244 41.8207C432.932 42.3007 432.768 43.1007 432.752 44.2207C432.96 43.8687 433.264 43.5967 433.664 43.4047C434.064 43.2127 434.496 43.1167 434.96 43.1167C435.488 43.1167 435.952 43.2327 436.352 43.4647C436.76 43.6887 437.076 44.0167 437.299 44.4487C437.532 44.8807 437.648 45.3967 437.648 45.9967C437.648 46.5567 437.536 47.0567 437.312 47.4967C437.096 47.9367 436.772 48.2847 436.34 48.5407C435.908 48.7887 435.388 48.9127 434.78 48.9127C433.956 48.9127 433.308 48.7327 432.836 48.3727C432.372 48.0047 432.044 47.4887 431.852 46.8247C431.668 46.1607 431.576 45.3327 431.576 44.3407C431.576 41.4127 432.608 39.9487 434.672 39.9487C435.472 39.9487 436.1 40.1647 436.556 40.5967C437.02 41.0287 437.292 41.5607 437.372 42.1927H436.112ZM434.66 44.2687C434.172 44.2687 433.756 44.4167 433.412 44.7127C433.076 45.0007 432.908 45.4207 432.908 45.9727C432.908 46.5247 433.064 46.9647 433.376 47.2927C433.696 47.6127 434.14 47.7727 434.708 47.7727C435.212 47.7727 435.608 47.6167 435.896 47.3047C436.192 46.9927 436.34 46.5767 436.34 46.0567C436.34 45.5127 436.196 45.0807 435.908 44.7607C435.628 44.4327 435.212 44.2687 434.66 44.2687ZM446.952 40.5727V46.5847C446.952 47.3287 446.724 47.9167 446.268 48.3487C445.82 48.7807 445.228 48.9967 444.492 48.9967C443.756 48.9967 443.16 48.7807 442.704 48.3487C442.256 47.9167 442.032 47.3287 442.032 46.5847H443.412C443.42 46.9527 443.512 47.2447 443.688 47.4607C443.872 47.6767 444.14 47.7847 444.492 47.7847C444.844 47.7847 445.112 47.6767 445.296 47.4607C445.48 47.2367 445.572 46.9447 445.572 46.5847V40.5727H446.952ZM455.165 42.3007V48.9127H453.797V48.1327C453.581 48.4047 453.297 48.6207 452.945 48.7807C452.601 48.9327 452.233 49.0087 451.841 49.0087C451.321 49.0087 450.853 48.9007 450.437 48.6847C450.029 48.4687 449.705 48.1487 449.465 47.7247C449.233 47.3007 449.117 46.7887 449.117 46.1887V42.3007H450.473V45.9847C450.473 46.5767 450.621 47.0327 450.917 47.3527C451.213 47.6647 451.617 47.8207 452.129 47.8207C452.641 47.8207 453.045 47.6647 453.341 47.3527C453.645 47.0327 453.797 46.5767 453.797 45.9847V42.3007H455.165ZM458.338 40.0327V48.9127H456.97V40.0327H458.338ZM466.086 42.3007L462.03 52.0207H460.614L461.958 48.8047L459.354 42.3007H460.878L462.738 47.3407L464.67 42.3007H466.086ZM468.619 47.2687L467.167 50.5807H466.279L467.131 47.2687H468.619ZM473.507 47.0527C474.275 46.3887 474.879 45.8447 475.319 45.4207C475.767 44.9887 476.139 44.5407 476.435 44.0767C476.731 43.6127 476.879 43.1487 476.879 42.6847C476.879 42.2047 476.763 41.8287 476.531 41.5567C476.307 41.2847 475.951 41.1487 475.463 41.1487C474.991 41.1487 474.623 41.3007 474.359 41.6047C474.103 41.9007 473.967 42.3007 473.951 42.8047H472.631C472.655 41.8927 472.927 41.1967 473.447 40.7167C473.975 40.2287 474.643 39.9847 475.451 39.9847C476.323 39.9847 477.003 40.2247 477.491 40.7047C477.987 41.1847 478.235 41.8247 478.235 42.6247C478.235 43.2007 478.087 43.7567 477.791 44.2927C477.503 44.8207 477.155 45.2967 476.747 45.7207C476.347 46.1367 475.835 46.6207 475.211 47.1727L474.671 47.6527H478.475V48.7927H472.643V47.7967L473.507 47.0527ZM479.677 44.4247C479.677 43.0407 479.909 41.9607 480.373 41.1847C480.845 40.4007 481.653 40.0087 482.797 40.0087C483.941 40.0087 484.745 40.4007 485.209 41.1847C485.681 41.9607 485.917 43.0407 485.917 44.4247C485.917 45.8247 485.681 46.9207 485.209 47.7127C484.745 48.4967 483.941 48.8887 482.797 48.8887C481.653 48.8887 480.845 48.4967 480.373 47.7127C479.909 46.9207 479.677 45.8247 479.677 44.4247ZM484.573 44.4247C484.573 43.7767 484.529 43.2287 484.441 42.7807C484.361 42.3327 484.193 41.9687 483.937 41.6887C483.681 41.4007 483.301 41.2567 482.797 41.2567C482.293 41.2567 481.913 41.4007 481.657 41.6887C481.401 41.9687 481.229 42.3327 481.141 42.7807C481.061 43.2287 481.021 43.7767 481.021 44.4247C481.021 45.0967 481.061 45.6607 481.141 46.1167C481.221 46.5727 481.389 46.9407 481.645 47.2207C481.909 47.5007 482.293 47.6407 482.797 47.6407C483.301 47.6407 483.681 47.5007 483.937 47.2207C484.201 46.9407 484.373 46.5727 484.453 46.1167C484.533 45.6607 484.573 45.0967 484.573 44.4247ZM488.121 47.0527C488.889 46.3887 489.493 45.8447 489.933 45.4207C490.381 44.9887 490.753 44.5407 491.049 44.0767C491.345 43.6127 491.493 43.1487 491.493 42.6847C491.493 42.2047 491.377 41.8287 491.145 41.5567C490.921 41.2847 490.565 41.1487 490.077 41.1487C489.605 41.1487 489.237 41.3007 488.973 41.6047C488.717 41.9007 488.581 42.3007 488.565 42.8047H487.245C487.269 41.8927 487.541 41.1967 488.061 40.7167C488.589 40.2287 489.257 39.9847 490.065 39.9847C490.937 39.9847 491.617 40.2247 492.105 40.7047C492.601 41.1847 492.849 41.8247 492.849 42.6247C492.849 43.2007 492.701 43.7567 492.405 44.2927C492.117 44.8207 491.769 45.2967 491.361 45.7207C490.961 46.1367 490.449 46.6207 489.825 47.1727L489.285 47.6527H493.089V48.7927H487.257V47.7967L488.121 47.0527ZM494.266 42.3247C494.314 41.5807 494.598 41.0007 495.118 40.5847C495.646 40.1687 496.318 39.9607 497.134 39.9607C497.694 39.9607 498.178 40.0607 498.586 40.2607C498.994 40.4607 499.302 40.7327 499.51 41.0767C499.718 41.4207 499.822 41.8087 499.822 42.2407C499.822 42.7367 499.69 43.1607 499.426 43.5127C499.162 43.8647 498.846 44.1007 498.478 44.2207V44.2687C498.95 44.4127 499.318 44.6767 499.582 45.0607C499.846 45.4367 499.978 45.9207 499.978 46.5127C499.978 46.9847 499.87 47.4047 499.654 47.7727C499.438 48.1407 499.118 48.4327 498.694 48.6487C498.27 48.8567 497.762 48.9607 497.17 48.9607C496.306 48.9607 495.594 48.7407 495.034 48.3007C494.482 47.8527 494.186 47.2127 494.146 46.3807H495.466C495.498 46.8047 495.662 47.1527 495.958 47.4247C496.254 47.6887 496.654 47.8207 497.158 47.8207C497.646 47.8207 498.022 47.6887 498.286 47.4247C498.55 47.1527 498.682 46.8047 498.682 46.3807C498.682 45.8207 498.502 45.4247 498.142 45.1927C497.79 44.9527 497.246 44.8327 496.51 44.8327H496.198V43.7047H496.522C497.17 43.6967 497.662 43.5887 497.998 43.3807C498.342 43.1727 498.514 42.8447 498.514 42.3967C498.514 42.0127 498.39 41.7087 498.142 41.4847C497.894 41.2527 497.542 41.1367 497.086 41.1367C496.638 41.1367 496.29 41.2527 496.042 41.4847C495.794 41.7087 495.646 41.9887 495.598 42.3247H494.266Z" fill="#131123"/>
<rect x="423" y="61.9127" width="12" height="12" rx="3.97736" fill="#F59A3B"/>
<path d="M441.38 66.5127V65.6827H443.26V72.9127H442.34V66.5127H441.38ZM444.803 67.5027C444.85 66.8893 445.086 66.4093 445.513 66.0627C445.94 65.716 446.493 65.5427 447.173 65.5427C447.626 65.5427 448.016 65.626 448.343 65.7927C448.676 65.9527 448.926 66.1727 449.093 66.4527C449.266 66.7327 449.353 67.0493 449.353 67.4027C449.353 67.816 449.233 68.1727 448.993 68.4727C448.76 68.7727 448.453 68.966 448.073 69.0527V69.1027C448.506 69.2093 448.85 69.4193 449.103 69.7327C449.356 70.046 449.483 70.456 449.483 70.9627C449.483 71.3427 449.396 71.686 449.223 71.9927C449.05 72.2927 448.79 72.5293 448.443 72.7027C448.096 72.876 447.68 72.9627 447.193 72.9627C446.486 72.9627 445.906 72.7793 445.453 72.4127C445 72.0393 444.746 71.5127 444.693 70.8327H445.573C445.62 71.2327 445.783 71.5593 446.063 71.8127C446.343 72.066 446.716 72.1927 447.183 72.1927C447.65 72.1927 448.003 72.0727 448.243 71.8327C448.49 71.586 448.613 71.2693 448.613 70.8827C448.613 70.3827 448.446 70.0227 448.113 69.8027C447.78 69.5827 447.276 69.4727 446.603 69.4727H446.373V68.7127H446.613C447.226 68.706 447.69 68.606 448.003 68.4127C448.316 68.2127 448.473 67.906 448.473 67.4927C448.473 67.1393 448.356 66.856 448.123 66.6427C447.896 66.4293 447.57 66.3227 447.143 66.3227C446.73 66.3227 446.396 66.4293 446.143 66.6427C445.89 66.856 445.74 67.1427 445.693 67.5027H444.803ZM450.602 72.1827C451.448 71.5027 452.112 70.946 452.592 70.5127C453.072 70.0727 453.475 69.616 453.802 69.1427C454.135 68.6627 454.302 68.1927 454.302 67.7327C454.302 67.2993 454.195 66.9593 453.982 66.7127C453.775 66.4593 453.438 66.3327 452.972 66.3327C452.518 66.3327 452.165 66.476 451.912 66.7627C451.665 67.0427 451.532 67.4193 451.512 67.8927H450.632C450.658 67.146 450.885 66.5693 451.312 66.1627C451.738 65.756 452.288 65.5527 452.962 65.5527C453.648 65.5527 454.192 65.7427 454.592 66.1227C454.998 66.5027 455.202 67.026 455.202 67.6927C455.202 68.246 455.035 68.786 454.702 69.3127C454.375 69.8327 454.002 70.2927 453.582 70.6927C453.162 71.086 452.625 71.546 451.972 72.0727H455.412V72.8327H450.602V72.1827ZM463.4 71.3627H460.36L459.8 72.9127H458.84L461.36 65.9827H462.41L464.92 72.9127H463.96L463.4 71.3627ZM463.14 70.6227L461.88 67.1027L460.62 70.6227H463.14ZM465.678 70.1627C465.678 69.596 465.791 69.1027 466.018 68.6827C466.245 68.256 466.558 67.926 466.958 67.6927C467.365 67.4593 467.828 67.3427 468.348 67.3427C469.021 67.3427 469.575 67.506 470.008 67.8327C470.448 68.1593 470.738 68.6127 470.878 69.1927H469.898C469.805 68.8593 469.621 68.596 469.348 68.4027C469.081 68.2093 468.748 68.1127 468.348 68.1127C467.828 68.1127 467.408 68.2927 467.088 68.6527C466.768 69.006 466.608 69.5093 466.608 70.1627C466.608 70.8227 466.768 71.3327 467.088 71.6927C467.408 72.0527 467.828 72.2327 468.348 72.2327C468.748 72.2327 469.081 72.1393 469.348 71.9527C469.615 71.766 469.798 71.4993 469.898 71.1527H470.878C470.731 71.7127 470.438 72.1627 469.998 72.5027C469.558 72.836 469.008 73.0027 468.348 73.0027C467.828 73.0027 467.365 72.886 466.958 72.6527C466.558 72.4193 466.245 72.0893 466.018 71.6627C465.791 71.236 465.678 70.736 465.678 70.1627ZM473.202 68.1827V71.4127C473.202 71.6793 473.259 71.8693 473.372 71.9827C473.486 72.0893 473.682 72.1427 473.962 72.1427H474.632V72.9127H473.812C473.306 72.9127 472.926 72.796 472.672 72.5627C472.419 72.3293 472.292 71.946 472.292 71.4127V68.1827H471.582V67.4327H472.292V66.0527H473.202V67.4327H474.632V68.1827H473.202ZM476.205 66.5427C476.032 66.5427 475.885 66.4827 475.765 66.3627C475.645 66.2427 475.585 66.096 475.585 65.9227C475.585 65.7493 475.645 65.6027 475.765 65.4827C475.885 65.3627 476.032 65.3027 476.205 65.3027C476.372 65.3027 476.512 65.3627 476.625 65.4827C476.745 65.6027 476.805 65.7493 476.805 65.9227C476.805 66.096 476.745 66.2427 476.625 66.3627C476.512 66.4827 476.372 66.5427 476.205 66.5427ZM476.645 67.4327V72.9127H475.735V67.4327H476.645ZM480.236 72.0727L481.936 67.4327H482.906L480.756 72.9127H479.696L477.546 67.4327H478.526L480.236 72.0727ZM488.801 69.9627C488.801 70.136 488.791 70.3193 488.771 70.5127H484.391C484.425 71.0527 484.608 71.476 484.941 71.7827C485.281 72.0827 485.691 72.2327 486.171 72.2327C486.565 72.2327 486.891 72.1427 487.151 71.9627C487.418 71.776 487.605 71.5293 487.711 71.2227H488.691C488.545 71.7493 488.251 72.1793 487.811 72.5127C487.371 72.8393 486.825 73.0027 486.171 73.0027C485.651 73.0027 485.185 72.886 484.771 72.6527C484.365 72.4193 484.045 72.0893 483.811 71.6627C483.578 71.2293 483.461 70.7293 483.461 70.1627C483.461 69.596 483.575 69.0993 483.801 68.6727C484.028 68.246 484.345 67.9193 484.751 67.6927C485.165 67.4593 485.638 67.3427 486.171 67.3427C486.691 67.3427 487.151 67.456 487.551 67.6827C487.951 67.9093 488.258 68.2227 488.471 68.6227C488.691 69.016 488.801 69.4627 488.801 69.9627ZM487.861 69.7727C487.861 69.426 487.785 69.1293 487.631 68.8827C487.478 68.6293 487.268 68.4393 487.001 68.3127C486.741 68.1793 486.451 68.1127 486.131 68.1127C485.671 68.1127 485.278 68.2593 484.951 68.5527C484.631 68.846 484.448 69.2527 484.401 69.7727H487.861ZM493.578 72.1727H496.018V72.9127H492.668V65.9427H493.578V72.1727ZM501.985 69.9627C501.985 70.136 501.975 70.3193 501.955 70.5127H497.575C497.608 71.0527 497.792 71.476 498.125 71.7827C498.465 72.0827 498.875 72.2327 499.355 72.2327C499.748 72.2327 500.075 72.1427 500.335 71.9627C500.602 71.776 500.788 71.5293 500.895 71.2227H501.875C501.728 71.7493 501.435 72.1793 500.995 72.5127C500.555 72.8393 500.008 73.0027 499.355 73.0027C498.835 73.0027 498.368 72.886 497.955 72.6527C497.548 72.4193 497.228 72.0893 496.995 71.6627C496.762 71.2293 496.645 70.7293 496.645 70.1627C496.645 69.596 496.758 69.0993 496.985 68.6727C497.212 68.246 497.528 67.9193 497.935 67.6927C498.348 67.4593 498.822 67.3427 499.355 67.3427C499.875 67.3427 500.335 67.456 500.735 67.6827C501.135 67.9093 501.442 68.2227 501.655 68.6227C501.875 69.016 501.985 69.4627 501.985 69.9627ZM501.045 69.7727C501.045 69.426 500.968 69.1293 500.815 68.8827C500.662 68.6293 500.452 68.4393 500.185 68.3127C499.925 68.1793 499.635 68.1127 499.315 68.1127C498.855 68.1127 498.462 68.2593 498.135 68.5527C497.815 68.846 497.632 69.2527 497.585 69.7727H501.045ZM502.846 70.1527C502.846 69.5927 502.959 69.1027 503.186 68.6827C503.413 68.256 503.723 67.926 504.116 67.6927C504.516 67.4593 504.959 67.3427 505.446 67.3427C505.926 67.3427 506.343 67.446 506.696 67.6527C507.049 67.8593 507.313 68.1193 507.486 68.4327V67.4327H508.406V72.9127H507.486V71.8927C507.306 72.2127 507.036 72.4793 506.676 72.6927C506.323 72.8993 505.909 73.0027 505.436 73.0027C504.949 73.0027 504.509 72.8827 504.116 72.6427C503.723 72.4027 503.413 72.066 503.186 71.6327C502.959 71.1993 502.846 70.706 502.846 70.1527ZM507.486 70.1627C507.486 69.7493 507.403 69.3893 507.236 69.0827C507.069 68.776 506.843 68.5427 506.556 68.3827C506.276 68.216 505.966 68.1327 505.626 68.1327C505.286 68.1327 504.976 68.2127 504.696 68.3727C504.416 68.5327 504.193 68.766 504.026 69.0727C503.859 69.3793 503.776 69.7393 503.776 70.1527C503.776 70.5727 503.859 70.9393 504.026 71.2527C504.193 71.5593 504.416 71.796 504.696 71.9627C504.976 72.1227 505.286 72.2027 505.626 72.2027C505.966 72.2027 506.276 72.1227 506.556 71.9627C506.843 71.796 507.069 71.5593 507.236 71.2527C507.403 70.9393 507.486 70.576 507.486 70.1627ZM510.854 68.3227C511.014 68.0093 511.24 67.766 511.534 67.5927C511.834 67.4193 512.197 67.3327 512.624 67.3327V68.2727H512.384C511.364 68.2727 510.854 68.826 510.854 69.9327V72.9127H509.944V67.4327H510.854V68.3227ZM516.344 67.3327C517.011 67.3327 517.551 67.536 517.964 67.9427C518.378 68.3427 518.584 68.9227 518.584 69.6827V72.9127H517.684V69.8127C517.684 69.266 517.548 68.8493 517.274 68.5627C517.001 68.2693 516.628 68.1227 516.154 68.1227C515.674 68.1227 515.291 68.2727 515.004 68.5727C514.724 68.8727 514.584 69.3093 514.584 69.8827V72.9127H513.674V67.4327H514.584V68.2127C514.764 67.9327 515.008 67.716 515.314 67.5627C515.628 67.4093 515.971 67.3327 516.344 67.3327ZM525.071 69.9627C525.071 70.136 525.061 70.3193 525.041 70.5127H520.661C520.694 71.0527 520.877 71.476 521.211 71.7827C521.551 72.0827 521.961 72.2327 522.441 72.2327C522.834 72.2327 523.161 72.1427 523.421 71.9627C523.687 71.776 523.874 71.5293 523.981 71.2227H524.961C524.814 71.7493 524.521 72.1793 524.081 72.5127C523.641 72.8393 523.094 73.0027 522.441 73.0027C521.921 73.0027 521.454 72.886 521.041 72.6527C520.634 72.4193 520.314 72.0893 520.081 71.6627C519.847 71.2293 519.731 70.7293 519.731 70.1627C519.731 69.596 519.844 69.0993 520.071 68.6727C520.297 68.246 520.614 67.9193 521.021 67.6927C521.434 67.4593 521.907 67.3427 522.441 67.3427C522.961 67.3427 523.421 67.456 523.821 67.6827C524.221 67.9093 524.527 68.2227 524.741 68.6227C524.961 69.016 525.071 69.4627 525.071 69.9627ZM524.131 69.7727C524.131 69.426 524.054 69.1293 523.901 68.8827C523.747 68.6293 523.537 68.4393 523.271 68.3127C523.011 68.1793 522.721 68.1127 522.401 68.1127C521.941 68.1127 521.547 68.2593 521.221 68.5527C520.901 68.846 520.717 69.2527 520.671 69.7727H524.131ZM527.182 68.3227C527.342 68.0093 527.569 67.766 527.862 67.5927C528.162 67.4193 528.525 67.3327 528.952 67.3327V68.2727H528.712C527.692 68.2727 527.182 68.826 527.182 69.9327V72.9127H526.272V67.4327H527.182V68.3227Z" fill="#131123"/>
<rect x="423" y="84.9127" width="12" height="12" rx="3.97736" fill="#7AA43E"/>
<path d="M446.07 89.3927L443.29 95.9127H442.37L445.19 89.4827H441.33V88.7027H446.07V89.3927ZM451.689 89.4727H448.179V91.7527C448.332 91.5393 448.559 91.366 448.859 91.2327C449.159 91.0927 449.482 91.0227 449.829 91.0227C450.382 91.0227 450.832 91.1393 451.179 91.3727C451.526 91.5993 451.772 91.896 451.919 92.2627C452.072 92.6227 452.149 93.006 452.149 93.4127C452.149 93.8927 452.059 94.3227 451.879 94.7027C451.699 95.0827 451.422 95.3827 451.049 95.6027C450.682 95.8227 450.226 95.9327 449.679 95.9327C448.979 95.9327 448.412 95.7527 447.979 95.3927C447.546 95.0327 447.282 94.5527 447.189 93.9527H448.079C448.166 94.3327 448.349 94.6293 448.629 94.8427C448.909 95.056 449.262 95.1627 449.689 95.1627C450.216 95.1627 450.612 95.006 450.879 94.6927C451.146 94.3727 451.279 93.9527 451.279 93.4327C451.279 92.9127 451.146 92.5127 450.879 92.2327C450.612 91.946 450.219 91.8027 449.699 91.8027C449.346 91.8027 449.036 91.8893 448.769 92.0627C448.509 92.2293 448.319 92.4593 448.199 92.7527H447.339V88.6727H451.689V89.4727ZM453.158 90.3127C453.158 89.8593 453.295 89.4993 453.568 89.2327C453.842 88.9593 454.192 88.8227 454.618 88.8227C455.045 88.8227 455.395 88.9593 455.668 89.2327C455.942 89.4993 456.078 89.8593 456.078 90.3127C456.078 90.7727 455.942 91.1393 455.668 91.4127C455.395 91.6793 455.045 91.8127 454.618 91.8127C454.192 91.8127 453.842 91.6793 453.568 91.4127C453.295 91.1393 453.158 90.7727 453.158 90.3127ZM458.998 88.9327L454.948 95.9127H454.048L458.098 88.9327H458.998ZM454.618 89.3827C454.392 89.3827 454.212 89.4627 454.078 89.6227C453.952 89.776 453.888 90.006 453.888 90.3127C453.888 90.6193 453.952 90.8527 454.078 91.0127C454.212 91.1727 454.392 91.2527 454.618 91.2527C454.845 91.2527 455.025 91.1727 455.158 91.0127C455.292 90.846 455.358 90.6127 455.358 90.3127C455.358 90.006 455.292 89.776 455.158 89.6227C455.025 89.4627 454.845 89.3827 454.618 89.3827ZM456.988 94.5327C456.988 94.0727 457.125 93.7093 457.398 93.4427C457.672 93.1693 458.022 93.0327 458.448 93.0327C458.875 93.0327 459.222 93.1693 459.488 93.4427C459.762 93.7093 459.898 94.0727 459.898 94.5327C459.898 94.986 459.762 95.3493 459.488 95.6227C459.222 95.896 458.875 96.0327 458.448 96.0327C458.022 96.0327 457.672 95.8993 457.398 95.6327C457.125 95.3593 456.988 94.9927 456.988 94.5327ZM458.438 93.6027C458.212 93.6027 458.032 93.6827 457.898 93.8427C457.765 93.996 457.698 94.226 457.698 94.5327C457.698 94.8327 457.765 95.0627 457.898 95.2227C458.032 95.376 458.212 95.4527 458.438 95.4527C458.665 95.4527 458.845 95.376 458.978 95.2227C459.112 95.0627 459.178 94.8327 459.178 94.5327C459.178 94.226 459.112 93.996 458.978 93.8427C458.845 93.6827 458.665 93.6027 458.438 93.6027ZM466.922 95.9827C466.276 95.9827 465.686 95.8327 465.152 95.5327C464.619 95.226 464.196 94.8027 463.882 94.2627C463.576 93.716 463.422 93.1027 463.422 92.4227C463.422 91.7427 463.576 91.1327 463.882 90.5927C464.196 90.046 464.619 89.6227 465.152 89.3227C465.686 89.016 466.276 88.8627 466.922 88.8627C467.576 88.8627 468.169 89.016 468.702 89.3227C469.236 89.6227 469.656 90.0427 469.962 90.5827C470.269 91.1227 470.422 91.736 470.422 92.4227C470.422 93.1093 470.269 93.7227 469.962 94.2627C469.656 94.8027 469.236 95.226 468.702 95.5327C468.169 95.8327 467.576 95.9827 466.922 95.9827ZM466.922 95.1927C467.409 95.1927 467.846 95.0793 468.232 94.8527C468.626 94.626 468.932 94.3027 469.152 93.8827C469.379 93.4627 469.492 92.976 469.492 92.4227C469.492 91.8627 469.379 91.376 469.152 90.9627C468.932 90.5427 468.629 90.2193 468.242 89.9927C467.856 89.766 467.416 89.6527 466.922 89.6527C466.429 89.6527 465.989 89.766 465.602 89.9927C465.216 90.2193 464.909 90.5427 464.682 90.9627C464.462 91.376 464.352 91.8627 464.352 92.4227C464.352 92.976 464.462 93.4627 464.682 93.8827C464.909 94.3027 465.216 94.626 465.602 94.8527C465.996 95.0793 466.436 95.1927 466.922 95.1927ZM473.664 95.0727L475.364 90.4327H476.334L474.184 95.9127H473.124L470.974 90.4327H471.954L473.664 95.0727ZM482.229 92.9627C482.229 93.136 482.219 93.3193 482.199 93.5127H477.819C477.852 94.0527 478.036 94.476 478.369 94.7827C478.709 95.0827 479.119 95.2327 479.599 95.2327C479.992 95.2327 480.319 95.1427 480.579 94.9627C480.846 94.776 481.032 94.5293 481.139 94.2227H482.119C481.972 94.7493 481.679 95.1793 481.239 95.5127C480.799 95.8393 480.252 96.0027 479.599 96.0027C479.079 96.0027 478.612 95.886 478.199 95.6527C477.792 95.4193 477.472 95.0893 477.239 94.6627C477.006 94.2293 476.889 93.7293 476.889 93.1627C476.889 92.596 477.002 92.0993 477.229 91.6727C477.456 91.246 477.772 90.9193 478.179 90.6927C478.592 90.4593 479.066 90.3427 479.599 90.3427C480.119 90.3427 480.579 90.456 480.979 90.6827C481.379 90.9093 481.686 91.2227 481.899 91.6227C482.119 92.016 482.229 92.4627 482.229 92.9627ZM481.289 92.7727C481.289 92.426 481.212 92.1293 481.059 91.8827C480.906 91.6293 480.696 91.4393 480.429 91.3127C480.169 91.1793 479.879 91.1127 479.559 91.1127C479.099 91.1127 478.706 91.2593 478.379 91.5527C478.059 91.846 477.876 92.2527 477.829 92.7727H481.289ZM484.34 91.3227C484.5 91.0093 484.727 90.766 485.02 90.5927C485.32 90.4193 485.683 90.3327 486.11 90.3327V91.2727H485.87C484.85 91.2727 484.34 91.826 484.34 92.9327V95.9127H483.43V90.4327H484.34V91.3227ZM486.821 93.1527C486.821 92.5927 486.934 92.1027 487.161 91.6827C487.387 91.256 487.697 90.926 488.091 90.6927C488.491 90.4593 488.934 90.3427 489.421 90.3427C489.901 90.3427 490.317 90.446 490.671 90.6527C491.024 90.8593 491.287 91.1193 491.461 91.4327V90.4327H492.381V95.9127H491.461V94.8927C491.281 95.2127 491.011 95.4793 490.651 95.6927C490.297 95.8993 489.884 96.0027 489.411 96.0027C488.924 96.0027 488.484 95.8827 488.091 95.6427C487.697 95.4027 487.387 95.066 487.161 94.6327C486.934 94.1993 486.821 93.706 486.821 93.1527ZM491.461 93.1627C491.461 92.7493 491.377 92.3893 491.211 92.0827C491.044 91.776 490.817 91.5427 490.531 91.3827C490.251 91.216 489.941 91.1327 489.601 91.1327C489.261 91.1327 488.951 91.2127 488.671 91.3727C488.391 91.5327 488.167 91.766 488.001 92.0727C487.834 92.3793 487.751 92.7393 487.751 93.1527C487.751 93.5727 487.834 93.9393 488.001 94.2527C488.167 94.5593 488.391 94.796 488.671 94.9627C488.951 95.1227 489.261 95.2027 489.601 95.2027C489.941 95.2027 490.251 95.1227 490.531 94.9627C490.817 94.796 491.044 94.5593 491.211 94.2527C491.377 93.9393 491.461 93.576 491.461 93.1627ZM494.828 88.5127V95.9127H493.918V88.5127H494.828ZM497.289 88.5127V95.9127H496.379V88.5127H497.289ZM506.166 90.9827C506.166 91.5627 505.966 92.046 505.566 92.4327C505.173 92.8127 504.57 93.0027 503.756 93.0027H502.416V95.9127H501.506V88.9427H503.756C504.543 88.9427 505.14 89.1327 505.546 89.5127C505.96 89.8927 506.166 90.3827 506.166 90.9827ZM503.756 92.2527C504.263 92.2527 504.636 92.1427 504.876 91.9227C505.116 91.7027 505.236 91.3893 505.236 90.9827C505.236 90.1227 504.743 89.6927 503.756 89.6927H502.416V92.2527H503.756ZM512.297 92.9627C512.297 93.136 512.287 93.3193 512.267 93.5127H507.887C507.921 94.0527 508.104 94.476 508.437 94.7827C508.777 95.0827 509.187 95.2327 509.667 95.2327C510.061 95.2327 510.387 95.1427 510.647 94.9627C510.914 94.776 511.101 94.5293 511.207 94.2227H512.187C512.041 94.7493 511.747 95.1793 511.307 95.5127C510.867 95.8393 510.321 96.0027 509.667 96.0027C509.147 96.0027 508.681 95.886 508.267 95.6527C507.861 95.4193 507.541 95.0893 507.307 94.6627C507.074 94.2293 506.957 93.7293 506.957 93.1627C506.957 92.596 507.071 92.0993 507.297 91.6727C507.524 91.246 507.841 90.9193 508.247 90.6927C508.661 90.4593 509.134 90.3427 509.667 90.3427C510.187 90.3427 510.647 90.456 511.047 90.6827C511.447 90.9093 511.754 91.2227 511.967 91.6227C512.187 92.016 512.297 92.4627 512.297 92.9627ZM511.357 92.7727C511.357 92.426 511.281 92.1293 511.127 91.8827C510.974 91.6293 510.764 91.4393 510.497 91.3127C510.237 91.1793 509.947 91.1127 509.627 91.1127C509.167 91.1127 508.774 91.2593 508.447 91.5527C508.127 91.846 507.944 92.2527 507.897 92.7727H511.357ZM514.409 91.3227C514.569 91.0093 514.795 90.766 515.089 90.5927C515.389 90.4193 515.752 90.3327 516.179 90.3327V91.2727H515.939C514.919 91.2727 514.409 91.826 514.409 92.9327V95.9127H513.499V90.4327H514.409V91.3227ZM519.459 91.1827H518.309V95.9127H517.399V91.1827H516.689V90.4327H517.399V90.0427C517.399 89.4293 517.556 88.9827 517.869 88.7027C518.189 88.416 518.699 88.2727 519.399 88.2727V89.0327C518.999 89.0327 518.716 89.1127 518.549 89.2727C518.389 89.426 518.309 89.6827 518.309 90.0427V90.4327H519.459V91.1827ZM522.91 96.0027C522.397 96.0027 521.93 95.886 521.51 95.6527C521.097 95.4193 520.77 95.0893 520.53 94.6627C520.297 94.2293 520.18 93.7293 520.18 93.1627C520.18 92.6027 520.3 92.1093 520.54 91.6827C520.787 91.2493 521.12 90.9193 521.54 90.6927C521.96 90.4593 522.43 90.3427 522.95 90.3427C523.47 90.3427 523.94 90.4593 524.36 90.6927C524.78 90.9193 525.11 91.246 525.35 91.6727C525.597 92.0993 525.72 92.596 525.72 93.1627C525.72 93.7293 525.593 94.2293 525.34 94.6627C525.093 95.0893 524.757 95.4193 524.33 95.6527C523.903 95.886 523.43 96.0027 522.91 96.0027ZM522.91 95.2027C523.237 95.2027 523.543 95.126 523.83 94.9727C524.117 94.8193 524.347 94.5893 524.52 94.2827C524.7 93.976 524.79 93.6027 524.79 93.1627C524.79 92.7227 524.703 92.3493 524.53 92.0427C524.357 91.736 524.13 91.5093 523.85 91.3627C523.57 91.2093 523.267 91.1327 522.94 91.1327C522.607 91.1327 522.3 91.2093 522.02 91.3627C521.747 91.5093 521.527 91.736 521.36 92.0427C521.193 92.3493 521.11 92.7227 521.11 93.1627C521.11 93.6093 521.19 93.986 521.35 94.2927C521.517 94.5993 521.737 94.8293 522.01 94.9827C522.283 95.1293 522.583 95.2027 522.91 95.2027ZM527.826 91.3227C527.986 91.0093 528.213 90.766 528.506 90.5927C528.806 90.4193 529.17 90.3327 529.596 90.3327V91.2727H529.356C528.336 91.2727 527.826 91.826 527.826 92.9327V95.9127H526.916V90.4327H527.826V91.3227ZM537.237 90.3327C537.664 90.3327 538.044 90.4227 538.377 90.6027C538.71 90.776 538.974 91.0393 539.167 91.3927C539.36 91.746 539.457 92.176 539.457 92.6827V95.9127H538.557V92.8127C538.557 92.266 538.42 91.8493 538.147 91.5627C537.88 91.2693 537.517 91.1227 537.057 91.1227C536.584 91.1227 536.207 91.276 535.927 91.5827C535.647 91.8827 535.507 92.3193 535.507 92.8927V95.9127H534.607V92.8127C534.607 92.266 534.47 91.8493 534.197 91.5627C533.93 91.2693 533.567 91.1227 533.107 91.1227C532.634 91.1227 532.257 91.276 531.977 91.5827C531.697 91.8827 531.557 92.3193 531.557 92.8927V95.9127H530.647V90.4327H531.557V91.2227C531.737 90.936 531.977 90.716 532.277 90.5627C532.584 90.4093 532.92 90.3327 533.287 90.3327C533.747 90.3327 534.154 90.436 534.507 90.6427C534.86 90.8493 535.124 91.1527 535.297 91.5527C535.45 91.166 535.704 90.866 536.057 90.6527C536.41 90.4393 536.804 90.3327 537.237 90.3327ZM540.61 93.1527C540.61 92.5927 540.723 92.1027 540.95 91.6827C541.176 91.256 541.486 90.926 541.88 90.6927C542.28 90.4593 542.723 90.3427 543.21 90.3427C543.69 90.3427 544.106 90.446 544.46 90.6527C544.813 90.8593 545.076 91.1193 545.25 91.4327V90.4327H546.17V95.9127H545.25V94.8927C545.07 95.2127 544.8 95.4793 544.44 95.6927C544.086 95.8993 543.673 96.0027 543.2 96.0027C542.713 96.0027 542.273 95.8827 541.88 95.6427C541.486 95.4027 541.176 95.066 540.95 94.6327C540.723 94.1993 540.61 93.706 540.61 93.1527ZM545.25 93.1627C545.25 92.7493 545.166 92.3893 545 92.0827C544.833 91.776 544.606 91.5427 544.32 91.3827C544.04 91.216 543.73 91.1327 543.39 91.1327C543.05 91.1327 542.74 91.2127 542.46 91.3727C542.18 91.5327 541.956 91.766 541.79 92.0727C541.623 92.3793 541.54 92.7393 541.54 93.1527C541.54 93.5727 541.623 93.9393 541.79 94.2527C541.956 94.5593 542.18 94.796 542.46 94.9627C542.74 95.1227 543.05 95.2027 543.39 95.2027C543.73 95.2027 544.04 95.1227 544.32 94.9627C544.606 94.796 544.833 94.5593 545 94.2527C545.166 93.9393 545.25 93.576 545.25 93.1627ZM550.378 90.3327C551.044 90.3327 551.584 90.536 551.998 90.9427C552.411 91.3427 552.618 91.9227 552.618 92.6827V95.9127H551.718V92.8127C551.718 92.266 551.581 91.8493 551.308 91.5627C551.034 91.2693 550.661 91.1227 550.188 91.1227C549.708 91.1227 549.324 91.2727 549.038 91.5727C548.758 91.8727 548.618 92.3093 548.618 92.8827V95.9127H547.708V90.4327H548.618V91.2127C548.798 90.9327 549.041 90.716 549.348 90.5627C549.661 90.4093 550.004 90.3327 550.378 90.3327ZM553.764 93.1627C553.764 92.596 553.877 92.1027 554.104 91.6827C554.331 91.256 554.644 90.926 555.044 90.6927C555.451 90.4593 555.914 90.3427 556.434 90.3427C557.107 90.3427 557.661 90.506 558.094 90.8327C558.534 91.1593 558.824 91.6127 558.964 92.1927H557.984C557.891 91.8593 557.707 91.596 557.434 91.4027C557.167 91.2093 556.834 91.1127 556.434 91.1127C555.914 91.1127 555.494 91.2927 555.174 91.6527C554.854 92.006 554.694 92.5093 554.694 93.1627C554.694 93.8227 554.854 94.3327 555.174 94.6927C555.494 95.0527 555.914 95.2327 556.434 95.2327C556.834 95.2327 557.167 95.1393 557.434 94.9527C557.701 94.766 557.884 94.4993 557.984 94.1527H558.964C558.817 94.7127 558.524 95.1627 558.084 95.5027C557.644 95.836 557.094 96.0027 556.434 96.0027C555.914 96.0027 555.451 95.886 555.044 95.6527C554.644 95.4193 554.331 95.0893 554.104 94.6627C553.877 94.236 553.764 93.736 553.764 93.1627ZM565.178 92.9627C565.178 93.136 565.168 93.3193 565.148 93.5127H560.768C560.802 94.0527 560.985 94.476 561.318 94.7827C561.658 95.0827 562.068 95.2327 562.548 95.2327C562.942 95.2327 563.268 95.1427 563.528 94.9627C563.795 94.776 563.982 94.5293 564.088 94.2227H565.068C564.922 94.7493 564.628 95.1793 564.188 95.5127C563.748 95.8393 563.202 96.0027 562.548 96.0027C562.028 96.0027 561.562 95.886 561.148 95.6527C560.742 95.4193 560.422 95.0893 560.188 94.6627C559.955 94.2293 559.838 93.7293 559.838 93.1627C559.838 92.596 559.952 92.0993 560.178 91.6727C560.405 91.246 560.722 90.9193 561.128 90.6927C561.542 90.4593 562.015 90.3427 562.548 90.3427C563.068 90.3427 563.528 90.456 563.928 90.6827C564.328 90.9093 564.635 91.2227 564.848 91.6227C565.068 92.016 565.178 92.4627 565.178 92.9627ZM564.238 92.7727C564.238 92.426 564.162 92.1293 564.008 91.8827C563.855 91.6293 563.645 91.4393 563.378 91.3127C563.118 91.1793 562.828 91.1127 562.508 91.1127C562.048 91.1127 561.655 91.2593 561.328 91.5527C561.008 91.846 560.825 92.2527 560.778 92.7727H564.238Z" fill="#131123"/>
</g>
</g>
<rect x="0.391315" y="0.391315" width="1071.22" height="286.217" rx="9.00024" stroke="#E7EAE9" strokeWidth="0.782629"/>
<defs>
<filter id="filter0_d_31_441" x="379" y="-4.08734" width="231" height="152" filterUnits="userSpaceOnUse" color-interpolation-filters="sRGB">
<feFlood flood-opacity="0" result="BackgroundImageFix"/>
<feColorMatrix in="SourceAlpha" type="matrix" values="0 0 0 0 0 0 0 0 0 0 0 0 0 0 0 0 0 0 127 0" result="hardAlpha"/>
<feOffset dy="4"/>
<feGaussianBlur stdDeviation="15"/>
<feComposite in2="hardAlpha" operator="out"/>
<feColorMatrix type="matrix" values="0 0 0 0 0 0 0 0 0 0 0 0 0 0 0 0 0 0 0.05 0"/>
<feBlend mode="normal" in2="BackgroundImageFix" result="effect1_dropShadow_31_441"/>
<feBlend mode="normal" in="SourceGraphic" in2="effect1_dropShadow_31_441" result="shape"/>
</filter>
<linearGradient id="paint0_linear_31_441" x1="540.75" y1="83.5146" x2="540.75" y2="221.413" gradientUnits="userSpaceOnUse">
<stop stop-color="#F59A3B" stop-opacity="0.6"/>
<stop offset="1" stop-color="#F59A3B" stop-opacity="0"/>
</linearGradient>
<clipPath id="clip0_31_441">
<rect width="1072" height="287" rx="9.39155" fill="white"/>
</clipPath>
</defs>
</svg>
