<svg width="1072" height="287" viewBox="0 0 1072 287" fill="none" xmlns="http://www.w3.org/2000/svg">
<g clipPath="url(#clip0_192_5222)">
<path d="M20 97.9127H1052" stroke="#E9E9E9" strokeWidth="1.17394" strokeLinecap="round" stroke-dasharray="7.04 7.83"/>
<path d="M20 131.913H1052" stroke="#E9E9E9" strokeWidth="1.17394" strokeLinecap="round" stroke-dasharray="7.04 7.83"/>
<path d="M20 166.913H1052" stroke="#E9E9E9" strokeWidth="1.17394" strokeLinecap="round" stroke-dasharray="7.04 7.83"/>
<path d="M20 200.913H1052" stroke="#E9E9E9" strokeWidth="1.17394" strokeLinecap="round" stroke-dasharray="7.04 7.83"/>
<path d="M64.0402 256.333V261.195C64.0402 261.736 63.8734 262.17 63.5399 262.497C63.2064 262.818 62.7658 262.979 62.2183 262.979C61.6645 262.979 61.2209 262.815 60.8873 262.488C60.5538 262.154 60.387 261.701 60.387 261.129H61.246C61.2523 261.45 61.3341 261.711 61.4915 261.912C61.6551 262.113 61.8974 262.214 62.2183 262.214C62.5393 262.214 62.7784 262.12 62.9358 261.931C63.0931 261.736 63.1717 261.49 63.1717 261.195V256.333H64.0402ZM65.4115 260.307C65.4115 259.779 65.5185 259.316 65.7325 258.92C65.9465 258.517 66.2391 258.205 66.6104 257.985C66.988 257.765 67.4065 257.655 67.8659 257.655C68.319 257.655 68.7123 257.752 69.0458 257.947C69.3794 258.142 69.6279 258.388 69.7916 258.684V257.74H70.66V262.913H69.7916V261.95C69.6216 262.252 69.3668 262.504 69.0269 262.705C68.6934 262.9 68.3032 262.998 67.8564 262.998C67.397 262.998 66.9817 262.884 66.6104 262.658C66.2391 262.431 65.9465 262.113 65.7325 261.704C65.5185 261.295 65.4115 260.83 65.4115 260.307ZM69.7916 260.317C69.7916 259.927 69.7129 259.587 69.5556 259.297C69.3982 259.008 69.1843 258.788 68.9137 258.636C68.6494 258.479 68.3567 258.4 68.0358 258.4C67.7148 258.4 67.4222 258.476 67.1579 258.627C66.8936 258.778 66.6828 258.998 66.5254 259.288C66.3681 259.577 66.2894 259.917 66.2894 260.307C66.2894 260.704 66.3681 261.05 66.5254 261.346C66.6828 261.635 66.8936 261.859 67.1579 262.016C67.4222 262.167 67.7148 262.242 68.0358 262.242C68.3567 262.242 68.6494 262.167 68.9137 262.016C69.1843 261.859 69.3982 261.635 69.5556 261.346C69.7129 261.05 69.7916 260.707 69.7916 260.317ZM74.6321 257.645C75.2614 257.645 75.7711 257.837 76.1613 258.221C76.5515 258.599 76.7466 259.146 76.7466 259.864V262.913H75.897V259.986C75.897 259.47 75.768 259.077 75.51 258.806C75.2519 258.53 74.8995 258.391 74.4527 258.391C73.9996 258.391 73.6378 258.533 73.3671 258.816C73.1028 259.099 72.9707 259.511 72.9707 260.052V262.913H72.1117V257.74H72.9707V258.476C73.1406 258.212 73.3703 258.007 73.6598 257.862C73.9556 257.718 74.2797 257.645 74.6321 257.645Z" fill="#85878D"/>
<path d="M150.083 256.333V257.032H147.223V259.25H149.545V259.949H147.223V262.913H146.364V256.333H150.083ZM155.84 260.128C155.84 260.292 155.831 260.465 155.812 260.647H151.677C151.709 261.157 151.882 261.557 152.196 261.846C152.517 262.129 152.904 262.271 153.358 262.271C153.729 262.271 154.037 262.186 154.283 262.016C154.534 261.84 154.711 261.607 154.811 261.317H155.736C155.598 261.815 155.321 262.22 154.906 262.535C154.49 262.843 153.974 262.998 153.358 262.998C152.867 262.998 152.426 262.888 152.036 262.667C151.652 262.447 151.35 262.135 151.13 261.733C150.909 261.324 150.799 260.852 150.799 260.317C150.799 259.782 150.906 259.313 151.12 258.91C151.334 258.507 151.633 258.199 152.017 257.985C152.407 257.765 152.854 257.655 153.358 257.655C153.848 257.655 154.283 257.762 154.66 257.976C155.038 258.19 155.327 258.485 155.529 258.863C155.736 259.234 155.84 259.656 155.84 260.128ZM154.953 259.949C154.953 259.621 154.88 259.341 154.736 259.108C154.591 258.869 154.393 258.69 154.141 258.57C153.896 258.445 153.622 258.382 153.32 258.382C152.886 258.382 152.514 258.52 152.206 258.797C151.904 259.074 151.731 259.458 151.687 259.949H154.953ZM157.833 258.703C158.009 258.394 158.267 258.142 158.607 257.947C158.947 257.752 159.334 257.655 159.768 257.655C160.234 257.655 160.652 257.765 161.024 257.985C161.395 258.205 161.688 258.517 161.902 258.92C162.116 259.316 162.223 259.779 162.223 260.307C162.223 260.83 162.116 261.295 161.902 261.704C161.688 262.113 161.392 262.431 161.014 262.658C160.643 262.884 160.228 262.998 159.768 262.998C159.321 262.998 158.928 262.9 158.588 262.705C158.255 262.51 158.003 262.261 157.833 261.959V262.913H156.974V255.927H157.833V258.703ZM161.345 260.307C161.345 259.917 161.266 259.577 161.109 259.288C160.951 258.998 160.737 258.778 160.467 258.627C160.202 258.476 159.91 258.4 159.589 258.4C159.274 258.4 158.982 258.479 158.711 258.636C158.447 258.788 158.233 259.011 158.069 259.307C157.912 259.596 157.833 259.933 157.833 260.317C157.833 260.707 157.912 261.05 158.069 261.346C158.233 261.635 158.447 261.859 158.711 262.016C158.982 262.167 159.274 262.242 159.589 262.242C159.91 262.242 160.202 262.167 160.467 262.016C160.737 261.859 160.951 261.635 161.109 261.346C161.266 261.05 161.345 260.704 161.345 260.307Z" fill="#85878D"/>
<path d="M237.674 256.38V262.913H236.815V258.042L234.644 262.913H234.04L231.859 258.032V262.913H231V256.38H231.925L234.342 261.78L236.759 256.38H237.674ZM238.81 260.307C238.81 259.779 238.917 259.316 239.131 258.92C239.345 258.517 239.638 258.205 240.009 257.985C240.386 257.765 240.805 257.655 241.264 257.655C241.717 257.655 242.111 257.752 242.444 257.947C242.778 258.142 243.026 258.388 243.19 258.684V257.74H244.059V262.913H243.19V261.95C243.02 262.252 242.765 262.504 242.425 262.705C242.092 262.9 241.702 262.998 241.255 262.998C240.796 262.998 240.38 262.884 240.009 262.658C239.638 262.431 239.345 262.113 239.131 261.704C238.917 261.295 238.81 260.83 238.81 260.307ZM243.19 260.317C243.19 259.927 243.111 259.587 242.954 259.297C242.797 259.008 242.583 258.788 242.312 258.636C242.048 258.479 241.755 258.4 241.434 258.4C241.113 258.4 240.821 258.476 240.556 258.627C240.292 258.778 240.081 258.998 239.924 259.288C239.767 259.577 239.688 259.917 239.688 260.307C239.688 260.704 239.767 261.05 239.924 261.346C240.081 261.635 240.292 261.859 240.556 262.016C240.821 262.167 241.113 262.242 241.434 262.242C241.755 262.242 242.048 262.167 242.312 262.016C242.583 261.859 242.797 261.635 242.954 261.346C243.111 261.05 243.19 260.707 243.19 260.317ZM246.369 258.58C246.52 258.284 246.734 258.054 247.011 257.891C247.294 257.727 247.637 257.645 248.04 257.645V258.533H247.813C246.851 258.533 246.369 259.055 246.369 260.1V262.913H245.51V257.74H246.369V258.58Z" fill="#85878D"/>
<path d="M321.526 261.45H318.657L318.128 262.913H317.222L319.6 256.371H320.592L322.961 262.913H322.055L321.526 261.45ZM321.281 260.751L320.091 257.428L318.902 260.751H321.281ZM324.857 258.693C325.027 258.397 325.278 258.152 325.612 257.957C325.952 257.755 326.345 257.655 326.792 257.655C327.251 257.655 327.667 257.765 328.038 257.985C328.416 258.205 328.711 258.517 328.925 258.92C329.139 259.316 329.246 259.779 329.246 260.307C329.246 260.83 329.139 261.295 328.925 261.704C328.711 262.113 328.416 262.431 328.038 262.658C327.667 262.884 327.251 262.998 326.792 262.998C326.351 262.998 325.961 262.9 325.621 262.705C325.288 262.504 325.033 262.255 324.857 261.959V265.367H323.998V257.74H324.857V258.693ZM328.368 260.307C328.368 259.917 328.29 259.577 328.132 259.288C327.975 258.998 327.761 258.778 327.49 258.627C327.226 258.476 326.934 258.4 326.613 258.4C326.298 258.4 326.005 258.479 325.735 258.636C325.47 258.788 325.256 259.011 325.093 259.307C324.935 259.596 324.857 259.933 324.857 260.317C324.857 260.707 324.935 261.05 325.093 261.346C325.256 261.635 325.47 261.859 325.735 262.016C326.005 262.167 326.298 262.242 326.613 262.242C326.934 262.242 327.226 262.167 327.49 262.016C327.761 261.859 327.975 261.635 328.132 261.346C328.29 261.05 328.368 260.704 328.368 260.307ZM331.236 258.58C331.387 258.284 331.601 258.054 331.878 257.891C332.161 257.727 332.504 257.645 332.907 257.645V258.533H332.68C331.717 258.533 331.236 259.055 331.236 260.1V262.913H330.377V257.74H331.236V258.58Z" fill="#85878D"/>
<path d="M408.948 256.38V262.913H408.089V258.042L405.917 262.913H405.313L403.133 258.032V262.913H402.274V256.38H403.199L405.615 261.78L408.032 256.38H408.948ZM410.083 260.307C410.083 259.779 410.19 259.316 410.404 258.92C410.618 258.517 410.911 258.205 411.282 257.985C411.66 257.765 412.078 257.655 412.538 257.655C412.991 257.655 413.384 257.752 413.718 257.947C414.051 258.142 414.3 258.388 414.463 258.684V257.74H415.332V262.913H414.463V261.95C414.294 262.252 414.039 262.504 413.699 262.705C413.365 262.9 412.975 262.998 412.528 262.998C412.069 262.998 411.654 262.884 411.282 262.658C410.911 262.431 410.618 262.113 410.404 261.704C410.19 261.295 410.083 260.83 410.083 260.307ZM414.463 260.317C414.463 259.927 414.385 259.587 414.228 259.297C414.07 259.008 413.856 258.788 413.586 258.636C413.321 258.479 413.029 258.4 412.708 258.4C412.387 258.4 412.094 258.476 411.83 258.627C411.566 258.778 411.355 258.998 411.197 259.288C411.04 259.577 410.961 259.917 410.961 260.307C410.961 260.704 411.04 261.05 411.197 261.346C411.355 261.635 411.566 261.859 411.83 262.016C412.094 262.167 412.387 262.242 412.708 262.242C413.029 262.242 413.321 262.167 413.586 262.016C413.856 261.859 414.07 261.635 414.228 261.346C414.385 261.05 414.463 260.707 414.463 260.317ZM421.239 257.74L418.124 265.348H417.237L418.256 262.856L416.17 257.74H417.123L418.747 261.931L420.352 257.74H421.239Z" fill="#85878D"/>
<path d="M493.224 256.333V261.195C493.224 261.736 493.057 262.17 492.723 262.497C492.39 262.818 491.949 262.979 491.402 262.979C490.848 262.979 490.404 262.815 490.071 262.488C489.737 262.154 489.571 261.701 489.571 261.129H490.43C490.436 261.45 490.518 261.711 490.675 261.912C490.839 262.113 491.081 262.214 491.402 262.214C491.723 262.214 491.962 262.12 492.119 261.931C492.277 261.736 492.355 261.49 492.355 261.195V256.333H493.224ZM499.504 257.74V262.913H498.645V262.148C498.481 262.412 498.251 262.62 497.956 262.771C497.666 262.916 497.345 262.988 496.993 262.988C496.59 262.988 496.228 262.906 495.907 262.743C495.586 262.573 495.331 262.321 495.143 261.988C494.96 261.654 494.869 261.248 494.869 260.77V257.74H495.718V260.657C495.718 261.166 495.847 261.56 496.105 261.837C496.364 262.107 496.716 262.242 497.163 262.242C497.622 262.242 497.984 262.101 498.248 261.818C498.513 261.534 498.645 261.122 498.645 260.581V257.74H499.504ZM503.475 257.645C504.104 257.645 504.614 257.837 505.004 258.221C505.394 258.599 505.589 259.146 505.589 259.864V262.913H504.74V259.986C504.74 259.47 504.61 259.077 504.352 258.806C504.094 258.53 503.742 258.391 503.295 258.391C502.842 258.391 502.48 258.533 502.21 258.816C501.945 259.099 501.813 259.511 501.813 260.052V262.913H500.954V257.74H501.813V258.476C501.983 258.212 502.213 258.007 502.502 257.862C502.798 257.718 503.122 257.645 503.475 257.645ZM511.712 260.128C511.712 260.292 511.703 260.465 511.684 260.647H507.549C507.581 261.157 507.754 261.557 508.068 261.846C508.389 262.129 508.776 262.271 509.229 262.271C509.601 262.271 509.909 262.186 510.155 262.016C510.406 261.84 510.583 261.607 510.683 261.317H511.608C511.47 261.815 511.193 262.22 510.778 262.535C510.362 262.843 509.846 262.998 509.229 262.998C508.739 262.998 508.298 262.888 507.908 262.667C507.524 262.447 507.222 262.135 507.002 261.733C506.781 261.324 506.671 260.852 506.671 260.317C506.671 259.782 506.778 259.313 506.992 258.91C507.206 258.507 507.505 258.199 507.889 257.985C508.279 257.765 508.726 257.655 509.229 257.655C509.72 257.655 510.155 257.762 510.532 257.976C510.91 258.19 511.199 258.485 511.401 258.863C511.608 259.234 511.712 259.656 511.712 260.128ZM510.825 259.949C510.825 259.621 510.752 259.341 510.608 259.108C510.463 258.869 510.265 258.69 510.013 258.57C509.768 258.445 509.494 258.382 509.192 258.382C508.758 258.382 508.386 258.52 508.078 258.797C507.776 259.074 507.603 259.458 507.559 259.949H510.825Z" fill="#85878D"/>
<path d="M583.857 256.333V261.195C583.857 261.736 583.69 262.17 583.356 262.497C583.023 262.818 582.582 262.979 582.035 262.979C581.481 262.979 581.037 262.815 580.704 262.488C580.37 262.154 580.203 261.701 580.203 261.129H581.062C581.069 261.45 581.151 261.711 581.308 261.912C581.472 262.113 581.714 262.214 582.035 262.214C582.356 262.214 582.595 262.12 582.752 261.931C582.909 261.736 582.988 261.49 582.988 261.195V256.333H583.857ZM590.137 257.74V262.913H589.278V262.148C589.114 262.412 588.884 262.62 588.588 262.771C588.299 262.916 587.978 262.988 587.626 262.988C587.223 262.988 586.861 262.906 586.54 262.743C586.219 262.573 585.964 262.321 585.775 261.988C585.593 261.654 585.502 261.248 585.502 260.77V257.74H586.351V260.657C586.351 261.166 586.48 261.56 586.738 261.837C586.996 262.107 587.349 262.242 587.796 262.242C588.255 262.242 588.617 262.101 588.881 261.818C589.145 261.534 589.278 261.122 589.278 260.581V257.74H590.137ZM592.446 255.927V262.913H591.587V255.927H592.446ZM598.366 257.74L595.25 265.348H594.363L595.383 262.856L593.296 257.74H594.25L595.874 261.931L597.478 257.74H598.366Z" fill="#85878D"/>
<path d="M671.069 261.45H668.199L667.671 262.913H666.765L669.143 256.371H670.135L672.504 262.913H671.598L671.069 261.45ZM670.824 260.751L669.634 257.428L668.445 260.751H670.824ZM678.128 257.74V262.913H677.269V262.148C677.106 262.412 676.876 262.62 676.58 262.771C676.291 262.916 675.97 262.988 675.617 262.988C675.215 262.988 674.853 262.906 674.532 262.743C674.211 262.573 673.956 262.321 673.767 261.988C673.585 261.654 673.494 261.248 673.494 260.77V257.74H674.343V260.657C674.343 261.166 674.472 261.56 674.73 261.837C674.988 262.107 675.341 262.242 675.787 262.242C676.247 262.242 676.609 262.101 676.873 261.818C677.137 261.534 677.269 261.122 677.269 260.581V257.74H678.128ZM681.712 257.655C682.159 257.655 682.549 257.752 682.883 257.947C683.223 258.142 683.474 258.388 683.638 258.684V257.74H684.506V263.026C684.506 263.498 684.406 263.916 684.204 264.281C684.003 264.653 683.713 264.942 683.336 265.15C682.965 265.358 682.53 265.461 682.033 265.461C681.353 265.461 680.787 265.301 680.334 264.98C679.881 264.659 679.613 264.222 679.532 263.668H680.381C680.476 263.983 680.671 264.234 680.966 264.423C681.262 264.618 681.618 264.716 682.033 264.716C682.505 264.716 682.889 264.568 683.185 264.272C683.487 263.976 683.638 263.561 683.638 263.026V261.94C683.468 262.242 683.216 262.494 682.883 262.696C682.549 262.897 682.159 262.998 681.712 262.998C681.253 262.998 680.834 262.884 680.457 262.658C680.085 262.431 679.793 262.113 679.579 261.704C679.365 261.295 679.258 260.83 679.258 260.307C679.258 259.779 679.365 259.316 679.579 258.92C679.793 258.517 680.085 258.205 680.457 257.985C680.834 257.765 681.253 257.655 681.712 257.655ZM683.638 260.317C683.638 259.927 683.559 259.587 683.402 259.297C683.245 259.008 683.031 258.788 682.76 258.636C682.496 258.479 682.203 258.4 681.882 258.4C681.561 258.4 681.269 258.476 681.004 258.627C680.74 258.778 680.529 258.998 680.372 259.288C680.214 259.577 680.136 259.917 680.136 260.307C680.136 260.704 680.214 261.05 680.372 261.346C680.529 261.635 680.74 261.859 681.004 262.016C681.269 262.167 681.561 262.242 681.882 262.242C682.203 262.242 682.496 262.167 682.76 262.016C683.031 261.859 683.245 261.635 683.402 261.346C683.559 261.05 683.638 260.707 683.638 260.317Z" fill="#85878D"/>
<path d="M755.903 262.979C755.469 262.979 755.078 262.903 754.732 262.752C754.393 262.595 754.125 262.381 753.93 262.11C753.735 261.833 753.634 261.516 753.628 261.157H754.544C754.575 261.465 754.701 261.726 754.921 261.94C755.148 262.148 755.475 262.252 755.903 262.252C756.312 262.252 756.633 262.151 756.866 261.95C757.105 261.742 757.224 261.478 757.224 261.157C757.224 260.905 757.155 260.701 757.017 260.543C756.878 260.386 756.705 260.266 756.498 260.185C756.29 260.103 756.01 260.015 755.657 259.92C755.223 259.807 754.874 259.694 754.61 259.58C754.352 259.467 754.128 259.291 753.939 259.052C753.757 258.806 753.666 258.479 753.666 258.07C753.666 257.711 753.757 257.394 753.939 257.117C754.122 256.84 754.377 256.626 754.704 256.475C755.038 256.324 755.418 256.248 755.846 256.248C756.463 256.248 756.966 256.402 757.357 256.711C757.753 257.019 757.976 257.428 758.027 257.938H757.083C757.051 257.686 756.919 257.466 756.686 257.277C756.454 257.082 756.145 256.985 755.761 256.985C755.403 256.985 755.11 257.079 754.883 257.268C754.657 257.45 754.544 257.708 754.544 258.042C754.544 258.281 754.61 258.476 754.742 258.627C754.88 258.778 755.047 258.895 755.242 258.976C755.443 259.052 755.724 259.14 756.082 259.241C756.516 259.36 756.866 259.48 757.13 259.599C757.394 259.713 757.621 259.892 757.81 260.137C757.998 260.377 758.093 260.704 758.093 261.119C758.093 261.44 758.008 261.742 757.838 262.025C757.668 262.309 757.416 262.538 757.083 262.714C756.749 262.891 756.356 262.979 755.903 262.979ZM764.077 260.128C764.077 260.292 764.067 260.465 764.049 260.647H759.914C759.945 261.157 760.118 261.557 760.433 261.846C760.754 262.129 761.141 262.271 761.594 262.271C761.966 262.271 762.274 262.186 762.519 262.016C762.771 261.84 762.947 261.607 763.048 261.317H763.973C763.835 261.815 763.558 262.22 763.142 262.535C762.727 262.843 762.211 262.998 761.594 262.998C761.103 262.998 760.663 262.888 760.273 262.667C759.889 262.447 759.587 262.135 759.366 261.733C759.146 261.324 759.036 260.852 759.036 260.317C759.036 259.782 759.143 259.313 759.357 258.91C759.571 258.507 759.87 258.199 760.254 257.985C760.644 257.765 761.091 257.655 761.594 257.655C762.085 257.655 762.519 257.762 762.897 257.976C763.274 258.19 763.564 258.485 763.765 258.863C763.973 259.234 764.077 259.656 764.077 260.128ZM763.19 259.949C763.19 259.621 763.117 259.341 762.972 259.108C762.828 258.869 762.629 258.69 762.378 258.57C762.132 258.445 761.859 258.382 761.556 258.382C761.122 258.382 760.751 258.52 760.443 258.797C760.14 259.074 759.967 259.458 759.923 259.949H763.19ZM766.07 258.693C766.24 258.397 766.491 258.152 766.825 257.957C767.165 257.755 767.558 257.655 768.005 257.655C768.464 257.655 768.88 257.765 769.251 257.985C769.629 258.205 769.924 258.517 770.138 258.92C770.352 259.316 770.459 259.779 770.459 260.307C770.459 260.83 770.352 261.295 770.138 261.704C769.924 262.113 769.629 262.431 769.251 262.658C768.88 262.884 768.464 262.998 768.005 262.998C767.564 262.998 767.174 262.9 766.834 262.705C766.501 262.504 766.246 262.255 766.07 261.959V265.367H765.211V257.74H766.07V258.693ZM769.581 260.307C769.581 259.917 769.503 259.577 769.345 259.288C769.188 258.998 768.974 258.778 768.703 258.627C768.439 258.476 768.146 258.4 767.826 258.4C767.511 258.4 767.218 258.479 766.948 258.636C766.683 258.788 766.469 259.011 766.306 259.307C766.148 259.596 766.07 259.933 766.07 260.317C766.07 260.707 766.148 261.05 766.306 261.346C766.469 261.635 766.683 261.859 766.948 262.016C767.218 262.167 767.511 262.242 767.826 262.242C768.146 262.242 768.439 262.167 768.703 262.016C768.974 261.859 769.188 261.635 769.345 261.346C769.503 261.05 769.581 260.704 769.581 260.307ZM772.638 258.448V261.497C772.638 261.748 772.691 261.928 772.798 262.035C772.905 262.135 773.091 262.186 773.355 262.186H773.988V262.913H773.214C772.735 262.913 772.377 262.803 772.137 262.582C771.898 262.362 771.779 262 771.779 261.497V258.448H771.108V257.74H771.779V256.437H772.638V257.74H773.988V258.448H772.638Z" fill="#85878D"/>
<path d="M846.436 262.979C845.826 262.979 845.269 262.837 844.766 262.554C844.262 262.264 843.862 261.865 843.567 261.355C843.277 260.839 843.132 260.26 843.132 259.618C843.132 258.976 843.277 258.4 843.567 257.891C843.862 257.375 844.262 256.975 844.766 256.692C845.269 256.402 845.826 256.258 846.436 256.258C847.053 256.258 847.613 256.402 848.117 256.692C848.62 256.975 849.017 257.372 849.306 257.881C849.596 258.391 849.74 258.97 849.74 259.618C849.74 260.266 849.596 260.845 849.306 261.355C849.017 261.865 848.62 262.264 848.117 262.554C847.613 262.837 847.053 262.979 846.436 262.979ZM846.436 262.233C846.896 262.233 847.308 262.126 847.673 261.912C848.044 261.698 848.334 261.393 848.541 260.996C848.755 260.6 848.862 260.141 848.862 259.618C848.862 259.09 848.755 258.63 848.541 258.24C848.334 257.844 848.047 257.538 847.682 257.324C847.317 257.11 846.902 257.003 846.436 257.003C845.971 257.003 845.555 257.11 845.19 257.324C844.825 257.538 844.536 257.844 844.322 258.24C844.114 258.63 844.01 259.09 844.01 259.618C844.01 260.141 844.114 260.6 844.322 260.996C844.536 261.393 844.825 261.698 845.19 261.912C845.562 262.126 845.977 262.233 846.436 262.233ZM850.553 260.317C850.553 259.782 850.66 259.316 850.874 258.92C851.088 258.517 851.384 258.205 851.762 257.985C852.146 257.765 852.583 257.655 853.074 257.655C853.709 257.655 854.232 257.809 854.641 258.117C855.056 258.426 855.33 258.854 855.462 259.401H854.537C854.449 259.086 854.276 258.838 854.018 258.655C853.766 258.473 853.451 258.382 853.074 258.382C852.583 258.382 852.186 258.552 851.884 258.891C851.582 259.225 851.431 259.7 851.431 260.317C851.431 260.94 851.582 261.421 851.884 261.761C852.186 262.101 852.583 262.271 853.074 262.271C853.451 262.271 853.766 262.183 854.018 262.006C854.269 261.83 854.442 261.579 854.537 261.251H855.462C855.324 261.78 855.047 262.205 854.631 262.526C854.216 262.84 853.697 262.998 853.074 262.998C852.583 262.998 852.146 262.888 851.762 262.667C851.384 262.447 851.088 262.135 850.874 261.733C850.66 261.33 850.553 260.858 850.553 260.317ZM857.656 258.448V261.497C857.656 261.748 857.709 261.928 857.816 262.035C857.923 262.135 858.109 262.186 858.373 262.186H859.006V262.913H858.232C857.754 262.913 857.395 262.803 857.156 262.582C856.917 262.362 856.797 262 856.797 261.497V258.448H856.127V257.74H856.797V256.437H857.656V257.74H859.006V258.448H857.656Z" fill="#85878D"/>
<path d="M933.263 262.913H932.404L928.949 257.674V262.913H928.09V256.324H928.949L932.404 261.553V256.324H933.263V262.913ZM936.984 262.998C936.499 262.998 936.058 262.888 935.662 262.667C935.272 262.447 934.963 262.135 934.737 261.733C934.517 261.324 934.406 260.852 934.406 260.317C934.406 259.788 934.52 259.322 934.746 258.92C934.979 258.511 935.294 258.199 935.69 257.985C936.087 257.765 936.53 257.655 937.021 257.655C937.512 257.655 937.956 257.765 938.352 257.985C938.749 258.199 939.06 258.507 939.287 258.91C939.52 259.313 939.636 259.782 939.636 260.317C939.636 260.852 939.517 261.324 939.277 261.733C939.045 262.135 938.727 262.447 938.324 262.667C937.921 262.888 937.474 262.998 936.984 262.998ZM936.984 262.242C937.292 262.242 937.581 262.17 937.852 262.025C938.123 261.881 938.34 261.663 938.503 261.374C938.673 261.085 938.758 260.732 938.758 260.317C938.758 259.901 938.676 259.549 938.513 259.26C938.349 258.97 938.135 258.756 937.871 258.618C937.607 258.473 937.32 258.4 937.012 258.4C936.697 258.4 936.408 258.473 936.143 258.618C935.885 258.756 935.678 258.97 935.52 259.26C935.363 259.549 935.284 259.901 935.284 260.317C935.284 260.738 935.36 261.094 935.511 261.383C935.668 261.673 935.876 261.89 936.134 262.035C936.392 262.173 936.675 262.242 936.984 262.242ZM942.691 262.12L944.296 257.74H945.212L943.182 262.913H942.181L940.152 257.74H941.077L942.691 262.12Z" fill="#85878D"/>
<path d="M1015.78 256.333C1016.49 256.333 1017.11 256.468 1017.63 256.739C1018.16 257.003 1018.57 257.384 1018.84 257.881C1019.13 258.378 1019.27 258.964 1019.27 259.637C1019.27 260.31 1019.13 260.896 1018.84 261.393C1018.57 261.884 1018.16 262.261 1017.63 262.526C1017.11 262.784 1016.49 262.913 1015.78 262.913H1013.73V256.333H1015.78ZM1015.78 262.205C1016.62 262.205 1017.27 261.981 1017.72 261.534C1018.17 261.081 1018.39 260.449 1018.39 259.637C1018.39 258.819 1018.16 258.18 1017.71 257.721C1017.26 257.261 1016.62 257.032 1015.78 257.032H1014.59V262.205H1015.78ZM1025.12 260.128C1025.12 260.292 1025.11 260.465 1025.09 260.647H1020.96C1020.99 261.157 1021.16 261.557 1021.48 261.846C1021.8 262.129 1022.19 262.271 1022.64 262.271C1023.01 262.271 1023.32 262.186 1023.56 262.016C1023.82 261.84 1023.99 261.607 1024.09 261.317H1025.02C1024.88 261.815 1024.6 262.22 1024.19 262.535C1023.77 262.843 1023.25 262.998 1022.64 262.998C1022.15 262.998 1021.71 262.888 1021.32 262.667C1020.93 262.447 1020.63 262.135 1020.41 261.733C1020.19 261.324 1020.08 260.852 1020.08 260.317C1020.08 259.782 1020.19 259.313 1020.4 258.91C1020.61 258.507 1020.91 258.199 1021.3 257.985C1021.69 257.765 1022.13 257.655 1022.64 257.655C1023.13 257.655 1023.56 257.762 1023.94 257.976C1024.32 258.19 1024.61 258.485 1024.81 258.863C1025.02 259.234 1025.12 259.656 1025.12 260.128ZM1024.23 259.949C1024.23 259.621 1024.16 259.341 1024.02 259.108C1023.87 258.869 1023.67 258.69 1023.42 258.57C1023.18 258.445 1022.9 258.382 1022.6 258.382C1022.17 258.382 1021.79 258.52 1021.49 258.797C1021.18 259.074 1021.01 259.458 1020.97 259.949H1024.23ZM1025.93 260.317C1025.93 259.782 1026.04 259.316 1026.25 258.92C1026.47 258.517 1026.76 258.205 1027.14 257.985C1027.53 257.765 1027.96 257.655 1028.45 257.655C1029.09 257.655 1029.61 257.809 1030.02 258.117C1030.44 258.426 1030.71 258.854 1030.84 259.401H1029.92C1029.83 259.086 1029.66 258.838 1029.4 258.655C1029.15 258.473 1028.83 258.382 1028.45 258.382C1027.96 258.382 1027.57 258.552 1027.26 258.891C1026.96 259.225 1026.81 259.7 1026.81 260.317C1026.81 260.94 1026.96 261.421 1027.26 261.761C1027.57 262.101 1027.96 262.271 1028.45 262.271C1028.83 262.271 1029.15 262.183 1029.4 262.006C1029.65 261.83 1029.82 261.579 1029.92 261.251H1030.84C1030.7 261.78 1030.43 262.205 1030.01 262.526C1029.6 262.84 1029.08 262.998 1028.45 262.998C1027.96 262.998 1027.53 262.888 1027.14 262.667C1026.76 262.447 1026.47 262.135 1026.25 261.733C1026.04 261.33 1025.93 260.858 1025.93 260.317Z" fill="#85878D"/>
<rect x="17.5234" y="18.2628" width="15.91" height="15.91" rx="3.97736" fill="#F59A3B"/>
<path d="M45.5005 21.8608V22.7481H43.2224V30.2178H42.1313V22.7481H39.8413V21.8608H45.5005ZM52.8386 26.6808C52.8386 26.8886 52.8266 27.1084 52.8026 27.3402H47.551C47.591 27.9877 47.8108 28.4953 48.2105 28.863C48.6181 29.2227 49.1097 29.4025 49.6852 29.4025C50.1568 29.4025 50.5485 29.2946 50.8603 29.0788C51.18 28.855 51.4038 28.5592 51.5317 28.1915H52.7067C52.5309 28.823 52.1792 29.3386 51.6516 29.7382C51.124 30.1299 50.4686 30.3258 49.6852 30.3258C49.0618 30.3258 48.5022 30.1859 48.0066 29.9061C47.519 29.6263 47.1354 29.2307 46.8556 28.7191C46.5758 28.1995 46.4359 27.6 46.4359 26.9206C46.4359 26.2412 46.5718 25.6457 46.8436 25.1341C47.1154 24.6225 47.4951 24.2308 47.9827 23.9591C48.4782 23.6793 49.0458 23.5394 49.6852 23.5394C50.3087 23.5394 50.8603 23.6753 51.3399 23.9471C51.8195 24.2189 52.1871 24.5945 52.4429 25.0741C52.7067 25.5457 52.8386 26.0813 52.8386 26.6808ZM51.7115 26.453C51.7115 26.0373 51.6196 25.6816 51.4358 25.3859C51.2519 25.0821 51.0001 24.8543 50.6804 24.7024C50.3687 24.5426 50.021 24.4626 49.6373 24.4626C49.0857 24.4626 48.6141 24.6385 48.2225 24.9902C47.8388 25.3419 47.619 25.8295 47.563 26.453H51.7115ZM53.8711 26.9086C53.8711 26.2372 54.007 25.6497 54.2788 25.1461C54.5506 24.6345 54.9223 24.2388 55.3939 23.9591C55.8735 23.6793 56.405 23.5394 56.9885 23.5394C57.5641 23.5394 58.0636 23.6633 58.4873 23.9111C58.9109 24.1589 59.2267 24.4706 59.4345 24.8463V23.6473H60.5376V30.2178H59.4345V28.9949C59.2187 29.3785 58.895 29.6983 58.4633 29.9541C58.0397 30.2019 57.5441 30.3258 56.9766 30.3258C56.393 30.3258 55.8655 30.1819 55.3939 29.8941C54.9223 29.6064 54.5506 29.2027 54.2788 28.6831C54.007 28.1636 53.8711 27.5721 53.8711 26.9086ZM59.4345 26.9206C59.4345 26.425 59.3346 25.9934 59.1348 25.6257C58.9349 25.258 58.6631 24.9782 58.3194 24.7864C57.9837 24.5865 57.612 24.4866 57.2044 24.4866C56.7967 24.4866 56.425 24.5825 56.0893 24.7744C55.7536 24.9662 55.4858 25.246 55.286 25.6137C55.0861 25.9814 54.9862 26.413 54.9862 26.9086C54.9862 27.4122 55.0861 27.8518 55.286 28.2275C55.4858 28.5952 55.7536 28.879 56.0893 29.0788C56.425 29.2706 56.7967 29.3666 57.2044 29.3666C57.612 29.3666 57.9837 29.2706 58.3194 29.0788C58.6631 28.879 58.9349 28.5952 59.1348 28.2275C59.3346 27.8518 59.4345 27.4162 59.4345 26.9206ZM61.9738 26.9206C61.9738 26.2412 62.1096 25.6497 62.3814 25.1461C62.6532 24.6345 63.0289 24.2388 63.5085 23.9591C63.9961 23.6793 64.5516 23.5394 65.1751 23.5394C65.9824 23.5394 66.6459 23.7353 67.1654 24.1269C67.693 24.5186 68.0407 25.0621 68.2086 25.7576H67.0335C66.9216 25.3579 66.7018 25.0422 66.3741 24.8104C66.0544 24.5786 65.6547 24.4626 65.1751 24.4626C64.5516 24.4626 64.048 24.6785 63.6644 25.1101C63.2807 25.5338 63.0888 26.1373 63.0888 26.9206C63.0888 27.7119 63.2807 28.3234 63.6644 28.7551C64.048 29.1867 64.5516 29.4025 65.1751 29.4025C65.6547 29.4025 66.0544 29.2906 66.3741 29.0668C66.6938 28.843 66.9136 28.5233 67.0335 28.1076H68.2086C68.0327 28.779 67.681 29.3186 67.1534 29.7263C66.6259 30.1259 65.9664 30.3258 65.1751 30.3258C64.5516 30.3258 63.9961 30.1859 63.5085 29.9061C63.0289 29.6263 62.6532 29.2307 62.3814 28.7191C62.1096 28.2075 61.9738 27.608 61.9738 26.9206ZM72.9257 23.5274C73.4213 23.5274 73.8689 23.6353 74.2686 23.8512C74.6682 24.059 74.98 24.3747 75.2038 24.7984C75.4356 25.222 75.5515 25.7376 75.5515 26.3451V30.2178H74.4724V26.5009C74.4724 25.8455 74.3085 25.3459 73.9808 25.0022C73.6531 24.6505 73.2055 24.4746 72.6379 24.4746C72.0624 24.4746 71.6028 24.6545 71.2591 25.0142C70.9234 25.3739 70.7555 25.8975 70.7555 26.5849V30.2178H69.6644V21.3452H70.7555V24.5825C70.9713 24.2468 71.2671 23.987 71.6428 23.8032C72.0264 23.6194 72.4541 23.5274 72.9257 23.5274ZM83.3288 26.6808C83.3288 26.8886 83.3168 27.1084 83.2928 27.3402H78.0412C78.0812 27.9877 78.301 28.4953 78.7007 28.863C79.1083 29.2227 79.5999 29.4025 80.1754 29.4025C80.647 29.4025 81.0387 29.2946 81.3504 29.0788C81.6702 28.855 81.894 28.5592 82.0219 28.1915H83.1969C83.0211 28.823 82.6693 29.3386 82.1418 29.7382C81.6142 30.1299 80.9588 30.3258 80.1754 30.3258C79.5519 30.3258 78.9924 30.1859 78.4968 29.9061C78.0092 29.6263 77.6256 29.2307 77.3458 28.7191C77.066 28.1995 76.9261 27.6 76.9261 26.9206C76.9261 26.2412 77.062 25.6457 77.3338 25.1341C77.6056 24.6225 77.9853 24.2308 78.4728 23.9591C78.9684 23.6793 79.536 23.5394 80.1754 23.5394C80.7989 23.5394 81.3504 23.6753 81.83 23.9471C82.3096 24.2189 82.6773 24.5945 82.9331 25.0741C83.1969 25.5457 83.3288 26.0813 83.3288 26.6808ZM82.2017 26.453C82.2017 26.0373 82.1098 25.6816 81.926 25.3859C81.7421 25.0821 81.4903 24.8543 81.1706 24.7024C80.8589 24.5426 80.5111 24.4626 80.1275 24.4626C79.5759 24.4626 79.1043 24.6385 78.7126 24.9902C78.329 25.3419 78.1091 25.8295 78.0532 26.453H82.2017ZM85.8601 24.7144C86.0519 24.3388 86.3237 24.047 86.6754 23.8392C87.0351 23.6313 87.4707 23.5274 87.9823 23.5274V24.6545H87.6946C86.4716 24.6545 85.8601 25.3179 85.8601 26.6448V30.2178H84.769V23.6473H85.8601V24.7144ZM91.5679 30.3258C91.0643 30.3258 90.6127 30.2418 90.213 30.074C89.8134 29.8981 89.4976 29.6583 89.2658 29.3546C89.034 29.0428 88.9061 28.6871 88.8821 28.2875H90.0092C90.0412 28.6152 90.193 28.883 90.4648 29.0908C90.7446 29.2986 91.1083 29.4025 91.5559 29.4025C91.9716 29.4025 92.2993 29.3106 92.5391 29.1268C92.7789 28.9429 92.8988 28.7111 92.8988 28.4313C92.8988 28.1436 92.7709 27.9318 92.5151 27.7959C92.2593 27.652 91.8636 27.5121 91.3281 27.3762C90.8405 27.2483 90.4408 27.1204 90.1291 26.9925C89.8253 26.8567 89.5616 26.6608 89.3378 26.405C89.1219 26.1412 89.014 25.7975 89.014 25.3739C89.014 25.0382 89.1139 24.7304 89.3138 24.4507C89.5136 24.1709 89.7974 23.9511 90.1651 23.7912C90.5328 23.6233 90.9524 23.5394 91.424 23.5394C92.1514 23.5394 92.7389 23.7233 93.1865 24.091C93.6342 24.4587 93.874 24.9622 93.9059 25.6017H92.8149C92.7909 25.258 92.651 24.9822 92.3952 24.7744C92.1474 24.5666 91.8117 24.4626 91.388 24.4626C90.9964 24.4626 90.6846 24.5466 90.4528 24.7144C90.221 24.8823 90.1051 25.1021 90.1051 25.3739C90.1051 25.5897 90.1731 25.7696 90.3089 25.9134C90.4528 26.0493 90.6287 26.1612 90.8365 26.2492C91.0523 26.3291 91.3481 26.421 91.7238 26.5249C92.1954 26.6528 92.5791 26.7807 92.8748 26.9086C93.1706 27.0285 93.4223 27.2124 93.6302 27.4601C93.846 27.7079 93.9579 28.0317 93.9659 28.4313C93.9659 28.791 93.866 29.1148 93.6661 29.4025C93.4663 29.6903 93.1825 29.9181 92.8149 30.086C92.4552 30.2458 92.0395 30.3258 91.5679 30.3258Z" fill="#85878D"/>
<rect x="103.387" y="18.2631" width="15.9094" height="15.9094" rx="3.97736" fill="#7AA43E"/>
<path d="M130.828 30.3018C130.276 30.3018 129.78 30.2059 129.341 30.014C128.909 29.8141 128.569 29.5422 128.321 29.1984C128.073 28.8466 127.946 28.4428 127.938 27.9871H129.101C129.141 28.3789 129.301 28.7107 129.581 28.9825C129.868 29.2464 130.284 29.3783 130.828 29.3783C131.348 29.3783 131.755 29.2504 132.051 28.9945C132.355 28.7307 132.507 28.3949 132.507 27.9871C132.507 27.6673 132.419 27.4074 132.243 27.2075C132.067 27.0077 131.847 26.8557 131.583 26.7518C131.32 26.6479 130.964 26.5359 130.516 26.416C129.964 26.2721 129.521 26.1281 129.185 25.9842C128.857 25.8403 128.573 25.6164 128.333 25.3126C128.101 25.0008 127.985 24.585 127.985 24.0653C127.985 23.6096 128.101 23.2058 128.333 22.854C128.565 22.5022 128.889 22.2303 129.305 22.0384C129.729 21.8466 130.212 21.7506 130.756 21.7506C131.539 21.7506 132.179 21.9465 132.675 22.3383C133.179 22.7301 133.462 23.2498 133.526 23.8974H132.327C132.287 23.5776 132.119 23.2977 131.823 23.0579C131.528 22.81 131.136 22.6861 130.648 22.6861C130.192 22.6861 129.82 22.806 129.533 23.0459C129.245 23.2777 129.101 23.6056 129.101 24.0293C129.101 24.3332 129.185 24.581 129.353 24.7729C129.529 24.9648 129.741 25.1127 129.988 25.2167C130.244 25.3126 130.6 25.4245 131.056 25.5525C131.607 25.7044 132.051 25.8563 132.387 26.0082C132.723 26.1521 133.011 26.38 133.251 26.6918C133.49 26.9957 133.61 27.4114 133.61 27.9391C133.61 28.3469 133.502 28.7307 133.287 29.0905C133.071 29.4503 132.751 29.7421 132.327 29.966C131.903 30.1899 131.404 30.3018 130.828 30.3018ZM136.548 24.545V28.4189C136.548 28.7387 136.616 28.9666 136.752 29.1025C136.887 29.2304 137.123 29.2944 137.459 29.2944H138.263V30.2178H137.279C136.672 30.2178 136.216 30.0779 135.912 29.7981C135.608 29.5182 135.456 29.0585 135.456 28.4189V24.545H134.605V23.6455H135.456V21.9905H136.548V23.6455H138.263V24.545H136.548ZM145.414 23.6455V30.2178H144.322V29.2464C144.114 29.5822 143.823 29.8461 143.447 30.038C143.079 30.2218 142.671 30.3138 142.224 30.3138C141.712 30.3138 141.252 30.2099 140.844 30.002C140.437 29.7861 140.113 29.4663 139.873 29.0425C139.641 28.6187 139.525 28.103 139.525 27.4954V23.6455H140.604V27.3515C140.604 27.9991 140.768 28.4988 141.096 28.8506C141.424 29.1944 141.872 29.3663 142.439 29.3663C143.023 29.3663 143.483 29.1864 143.819 28.8266C144.154 28.4668 144.322 27.9431 144.322 27.2555V23.6455H145.414ZM146.849 26.9077C146.849 26.2361 146.985 25.6484 147.257 25.1447C147.528 24.633 147.9 24.2372 148.372 23.9574C148.852 23.6775 149.387 23.5376 149.979 23.5376C150.491 23.5376 150.966 23.6575 151.406 23.8974C151.846 24.1293 152.182 24.4371 152.414 24.8209V21.3428H153.517V30.2178H152.414V28.9825C152.198 29.3743 151.878 29.6981 151.454 29.954C151.03 30.2019 150.535 30.3258 149.967 30.3258C149.383 30.3258 148.852 30.1819 148.372 29.894C147.9 29.6062 147.528 29.2024 147.257 28.6827C146.985 28.163 146.849 27.5713 146.849 26.9077ZM152.414 26.9197C152.414 26.424 152.314 25.9922 152.114 25.6244C151.914 25.2566 151.642 24.9768 151.298 24.7849C150.962 24.585 150.591 24.4851 150.183 24.4851C149.775 24.4851 149.403 24.581 149.067 24.7729C148.732 24.9648 148.464 25.2446 148.264 25.6124C148.064 25.9802 147.964 26.412 147.964 26.9077C147.964 27.4114 148.064 27.8512 148.264 28.227C148.464 28.5948 148.732 28.8786 149.067 29.0785C149.403 29.2704 149.775 29.3663 150.183 29.3663C150.591 29.3663 150.962 29.2704 151.298 29.0785C151.642 28.8786 151.914 28.5948 152.114 28.227C152.314 27.8512 152.414 27.4154 152.414 26.9197ZM161.358 26.6798C161.358 26.8877 161.346 27.1076 161.322 27.3395H156.069C156.109 27.9871 156.329 28.4948 156.729 28.8626C157.136 29.2224 157.628 29.4023 158.204 29.4023C158.675 29.4023 159.067 29.2944 159.379 29.0785C159.699 28.8546 159.923 28.5588 160.051 28.191H161.226C161.05 28.8226 160.698 29.3383 160.171 29.7381C159.643 30.1299 158.987 30.3258 158.204 30.3258C157.58 30.3258 157.02 30.1859 156.525 29.906C156.037 29.6262 155.653 29.2304 155.373 28.7187C155.093 28.199 154.954 27.5993 154.954 26.9197C154.954 26.2401 155.089 25.6444 155.361 25.1327C155.633 24.621 156.013 24.2292 156.501 23.9574C156.996 23.6775 157.564 23.5376 158.204 23.5376C158.827 23.5376 159.379 23.6735 159.859 23.9454C160.339 24.2172 160.706 24.593 160.962 25.0727C161.226 25.5445 161.358 26.0802 161.358 26.6798ZM160.231 26.452C160.231 26.0362 160.139 25.6804 159.955 25.3846C159.771 25.0807 159.519 24.8529 159.199 24.7009C158.887 24.541 158.54 24.4611 158.156 24.4611C157.604 24.4611 157.132 24.637 156.741 24.9888C156.357 25.3406 156.137 25.8283 156.081 26.452H160.231ZM166.001 23.5256C166.8 23.5256 167.448 23.7695 167.944 24.2572C168.439 24.7369 168.687 25.4325 168.687 26.344V30.2178H167.608V26.4999C167.608 25.8443 167.444 25.3446 167.116 25.0008C166.788 24.649 166.341 24.4731 165.773 24.4731C165.197 24.4731 164.737 24.653 164.394 25.0128C164.058 25.3726 163.89 25.8963 163.89 26.5839V30.2178H162.799V23.6455H163.89V24.581C164.106 24.2452 164.398 23.9854 164.765 23.8015C165.141 23.6176 165.553 23.5256 166.001 23.5256ZM171.801 24.545V28.4189C171.801 28.7387 171.869 28.9666 172.005 29.1025C172.141 29.2304 172.377 29.2944 172.713 29.2944H173.516V30.2178H172.533C171.925 30.2178 171.469 30.0779 171.166 29.7981C170.862 29.5182 170.71 29.0585 170.71 28.4189V24.545H169.858V23.6455H170.71V21.9905H171.801V23.6455H173.516V24.545H171.801ZM177.165 30.3258C176.662 30.3258 176.21 30.2418 175.81 30.0739C175.41 29.898 175.095 29.6582 174.863 29.3543C174.631 29.0425 174.503 28.6867 174.479 28.2869H175.606C175.638 28.6148 175.79 28.8826 176.062 29.0905C176.342 29.2984 176.706 29.4023 177.153 29.4023C177.569 29.4023 177.897 29.3104 178.137 29.1265C178.377 28.9426 178.497 28.7107 178.497 28.4309C178.497 28.143 178.369 27.9311 178.113 27.7952C177.857 27.6513 177.461 27.5114 176.925 27.3754C176.438 27.2475 176.038 27.1196 175.726 26.9917C175.422 26.8557 175.158 26.6598 174.935 26.404C174.719 26.1401 174.611 25.7963 174.611 25.3726C174.611 25.0368 174.711 24.7289 174.911 24.4491C175.111 24.1692 175.394 23.9494 175.762 23.7895C176.13 23.6216 176.55 23.5376 177.021 23.5376C177.749 23.5376 178.337 23.7215 178.784 24.0893C179.232 24.4571 179.472 24.9608 179.504 25.6004H178.413C178.389 25.2566 178.249 24.9808 177.993 24.7729C177.745 24.565 177.409 24.4611 176.985 24.4611C176.594 24.4611 176.282 24.545 176.05 24.7129C175.818 24.8808 175.702 25.1007 175.702 25.3726C175.702 25.5885 175.77 25.7683 175.906 25.9123C176.05 26.0482 176.226 26.1601 176.434 26.2481C176.65 26.328 176.945 26.42 177.321 26.5239C177.793 26.6519 178.177 26.7798 178.473 26.9077C178.768 27.0276 179.02 27.2115 179.228 27.4594C179.444 27.7073 179.556 28.0311 179.564 28.4309C179.564 28.7907 179.464 29.1145 179.264 29.4023C179.064 29.6901 178.78 29.918 178.413 30.0859C178.053 30.2458 177.637 30.3258 177.165 30.3258Z" fill="#85878D"/>
<path d="M20 62.9127H1052" stroke="#E9E9E9" strokeWidth="1.17394" strokeLinecap="round" stroke-dasharray="7.04 7.83"/>
<path d="M20 235.913H1052" stroke="#E9E9E9" strokeWidth="1.17394" strokeLinecap="round" stroke-dasharray="7.04 7.83"/>
<path opacity="0.3" d="M284 120.913C237.2 107.713 93.1667 137.413 27 153.913V221.413H1054.5V84.4127C1038 84.4127 982 109.913 943.5 120.913C905 131.913 659.5 93.4127 619 84.4127C578.5 75.4127 342.5 137.413 284 120.913Z" fill="url(#paint0_linear_192_5222)"/>
<path d="M29 152.913C94.8769 136.506 238.279 106.974 284.874 120.099C343.118 136.506 578.085 74.8566 618.407 83.8057C658.73 92.7548 903.155 131.037 941.486 120.099C979.818 109.161 1035.57 83.8057 1052 83.8057" stroke="#F59A3B" strokeWidth="5" strokeLinecap="square"/>
<path opacity="0.3" d="M284 90.3981C237.2 77.1981 93.1667 106.898 27 123.398V190.898H1054.5V53.8981C1038 53.8981 982 79.3981 943.5 90.3981C905 101.398 659.5 62.8981 619 53.8981C578.5 44.8981 342.5 106.898 284 90.3981Z" fill="url(#paint1_linear_192_5222)"/>
<path d="M29 123C94.8769 106.593 238.279 77.0613 284.874 90.1866C343.118 106.593 578.085 44.9439 618.407 53.893C658.73 62.8421 903.155 101.124 941.486 90.1866C979.818 79.2488 1035.57 53.893 1052 53.893" stroke="#7AA43E" strokeWidth="5" strokeLinecap="square"/>
<path d="M600 82.9127C600 87.331 603.582 90.9127 608 90.9127C612.418 90.9127 616 87.331 616 82.9127C616 78.4944 612.418 74.9127 608 74.9127C603.582 74.9127 600 78.4944 600 82.9127ZM606.5 82.9127V84.9347H609.5V82.9127H606.5ZM606.5 88.9789V93.023H609.5V88.9789H606.5ZM606.5 97.0671V101.111H609.5V97.0671H606.5ZM606.5 105.155V109.199H609.5V105.155H606.5ZM606.5 113.244V117.288H609.5V113.244H606.5ZM606.5 121.332V125.376H609.5V121.332H606.5ZM606.5 129.42V133.464H609.5V129.42H606.5ZM606.5 137.508V141.552H609.5V137.508H606.5ZM606.5 145.596V149.641H609.5V145.596H606.5ZM606.5 153.685V157.729H609.5V153.685H606.5ZM606.5 161.773V165.817H609.5V161.773H606.5ZM606.5 169.861V173.905H609.5V169.861H606.5ZM606.5 177.949V181.994H609.5V177.949H606.5ZM606.5 186.038V190.082H609.5V186.038H606.5ZM606.5 194.126V198.17H609.5V194.126H606.5ZM606.5 202.214V206.258H609.5V202.214H606.5ZM606.5 210.302V214.347H609.5V210.302H606.5ZM606.5 218.391V220.413H609.5V218.391H606.5Z" fill="#F59A3B"/>
<g filter="url(#filter0_d_192_5222)">
<rect x="429" y="-1.08734" width="170" height="92" rx="11" fill="white" shape-rendering="crispEdges"/>
<path d="M443.72 21.4247C443.72 20.0407 443.952 18.9607 444.416 18.1847C444.888 17.4007 445.696 17.0087 446.84 17.0087C447.984 17.0087 448.788 17.4007 449.252 18.1847C449.724 18.9607 449.96 20.0407 449.96 21.4247C449.96 22.8247 449.724 23.9207 449.252 24.7127C448.788 25.4967 447.984 25.8887 446.84 25.8887C445.696 25.8887 444.888 25.4967 444.416 24.7127C443.952 23.9207 443.72 22.8247 443.72 21.4247ZM448.616 21.4247C448.616 20.7767 448.572 20.2287 448.484 19.7807C448.404 19.3327 448.236 18.9687 447.98 18.6887C447.724 18.4007 447.344 18.2567 446.84 18.2567C446.336 18.2567 445.956 18.4007 445.7 18.6887C445.444 18.9687 445.272 19.3327 445.184 19.7807C445.104 20.2287 445.064 20.7767 445.064 21.4247C445.064 22.0967 445.104 22.6607 445.184 23.1167C445.264 23.5727 445.432 23.9407 445.688 24.2207C445.952 24.5007 446.336 24.6407 446.84 24.6407C447.344 24.6407 447.724 24.5007 447.98 24.2207C448.244 23.9407 448.416 23.5727 448.496 23.1167C448.576 22.6607 448.616 22.0967 448.616 21.4247ZM456.112 19.1927C456.024 18.8247 455.864 18.5487 455.632 18.3647C455.4 18.1807 455.076 18.0887 454.66 18.0887C454.028 18.0887 453.556 18.3327 453.244 18.8207C452.932 19.3007 452.768 20.1007 452.752 21.2207C452.96 20.8687 453.264 20.5967 453.664 20.4047C454.064 20.2127 454.496 20.1167 454.96 20.1167C455.488 20.1167 455.952 20.2327 456.352 20.4647C456.76 20.6887 457.076 21.0167 457.299 21.4487C457.532 21.8807 457.648 22.3967 457.648 22.9967C457.648 23.5567 457.536 24.0567 457.312 24.4967C457.096 24.9367 456.772 25.2847 456.34 25.5407C455.908 25.7887 455.388 25.9127 454.78 25.9127C453.956 25.9127 453.308 25.7327 452.836 25.3727C452.372 25.0047 452.044 24.4887 451.852 23.8247C451.668 23.1607 451.576 22.3327 451.576 21.3407C451.576 18.4127 452.608 16.9487 454.672 16.9487C455.472 16.9487 456.1 17.1647 456.556 17.5967C457.02 18.0287 457.292 18.5607 457.372 19.1927H456.112ZM454.66 21.2687C454.172 21.2687 453.756 21.4167 453.412 21.7127C453.076 22.0007 452.908 22.4207 452.908 22.9727C452.908 23.5247 453.064 23.9647 453.376 24.2927C453.696 24.6127 454.14 24.7727 454.708 24.7727C455.212 24.7727 455.608 24.6167 455.896 24.3047C456.192 23.9927 456.34 23.5767 456.34 23.0567C456.34 22.5127 456.196 22.0807 455.908 21.7607C455.628 21.4327 455.212 21.2687 454.66 21.2687ZM466.952 17.5727V23.5847C466.952 24.3287 466.724 24.9167 466.268 25.3487C465.82 25.7807 465.228 25.9967 464.492 25.9967C463.756 25.9967 463.16 25.7807 462.704 25.3487C462.256 24.9167 462.032 24.3287 462.032 23.5847H463.412C463.42 23.9527 463.512 24.2447 463.688 24.4607C463.872 24.6767 464.14 24.7847 464.492 24.7847C464.844 24.7847 465.112 24.6767 465.296 24.4607C465.48 24.2367 465.572 23.9447 465.572 23.5847V17.5727H466.952ZM475.165 19.3007V25.9127H473.797V25.1327C473.581 25.4047 473.297 25.6207 472.945 25.7807C472.601 25.9327 472.233 26.0087 471.841 26.0087C471.321 26.0087 470.853 25.9007 470.437 25.6847C470.029 25.4687 469.705 25.1487 469.465 24.7247C469.233 24.3007 469.117 23.7887 469.117 23.1887V19.3007H470.473V22.9847C470.473 23.5767 470.621 24.0327 470.917 24.3527C471.213 24.6647 471.617 24.8207 472.129 24.8207C472.641 24.8207 473.045 24.6647 473.341 24.3527C473.645 24.0327 473.797 23.5767 473.797 22.9847V19.3007H475.165ZM478.338 17.0327V25.9127H476.97V17.0327H478.338ZM486.086 19.3007L482.03 29.0207H480.614L481.958 25.8047L479.354 19.3007H480.878L482.738 24.3407L484.67 19.3007H486.086ZM488.619 24.2687L487.167 27.5807H486.279L487.131 24.2687H488.619ZM493.507 24.0527C494.275 23.3887 494.879 22.8447 495.319 22.4207C495.767 21.9887 496.139 21.5407 496.435 21.0767C496.731 20.6127 496.879 20.1487 496.879 19.6847C496.879 19.2047 496.763 18.8287 496.531 18.5567C496.307 18.2847 495.951 18.1487 495.463 18.1487C494.991 18.1487 494.623 18.3007 494.359 18.6047C494.103 18.9007 493.967 19.3007 493.951 19.8047H492.631C492.655 18.8927 492.927 18.1967 493.447 17.7167C493.975 17.2287 494.643 16.9847 495.451 16.9847C496.323 16.9847 497.003 17.2247 497.491 17.7047C497.987 18.1847 498.235 18.8247 498.235 19.6247C498.235 20.2007 498.087 20.7567 497.791 21.2927C497.503 21.8207 497.155 22.2967 496.747 22.7207C496.347 23.1367 495.835 23.6207 495.211 24.1727L494.671 24.6527H498.475V25.7927H492.643V24.7967L493.507 24.0527ZM499.677 21.4247C499.677 20.0407 499.909 18.9607 500.373 18.1847C500.845 17.4007 501.653 17.0087 502.797 17.0087C503.941 17.0087 504.745 17.4007 505.209 18.1847C505.681 18.9607 505.917 20.0407 505.917 21.4247C505.917 22.8247 505.681 23.9207 505.209 24.7127C504.745 25.4967 503.941 25.8887 502.797 25.8887C501.653 25.8887 500.845 25.4967 500.373 24.7127C499.909 23.9207 499.677 22.8247 499.677 21.4247ZM504.573 21.4247C504.573 20.7767 504.529 20.2287 504.441 19.7807C504.361 19.3327 504.193 18.9687 503.937 18.6887C503.681 18.4007 503.301 18.2567 502.797 18.2567C502.293 18.2567 501.913 18.4007 501.657 18.6887C501.401 18.9687 501.229 19.3327 501.141 19.7807C501.061 20.2287 501.021 20.7767 501.021 21.4247C501.021 22.0967 501.061 22.6607 501.141 23.1167C501.221 23.5727 501.389 23.9407 501.645 24.2207C501.909 24.5007 502.293 24.6407 502.797 24.6407C503.301 24.6407 503.681 24.5007 503.937 24.2207C504.201 23.9407 504.373 23.5727 504.453 23.1167C504.533 22.6607 504.573 22.0967 504.573 21.4247ZM508.121 24.0527C508.889 23.3887 509.493 22.8447 509.933 22.4207C510.381 21.9887 510.753 21.5407 511.049 21.0767C511.345 20.6127 511.493 20.1487 511.493 19.6847C511.493 19.2047 511.377 18.8287 511.145 18.5567C510.921 18.2847 510.565 18.1487 510.077 18.1487C509.605 18.1487 509.237 18.3007 508.973 18.6047C508.717 18.9007 508.581 19.3007 508.565 19.8047H507.245C507.269 18.8927 507.541 18.1967 508.061 17.7167C508.589 17.2287 509.257 16.9847 510.065 16.9847C510.937 16.9847 511.617 17.2247 512.105 17.7047C512.601 18.1847 512.849 18.8247 512.849 19.6247C512.849 20.2007 512.701 20.7567 512.405 21.2927C512.117 21.8207 511.769 22.2967 511.361 22.7207C510.961 23.1367 510.449 23.6207 509.825 24.1727L509.285 24.6527H513.089V25.7927H507.257V24.7967L508.121 24.0527ZM514.266 19.3247C514.314 18.5807 514.598 18.0007 515.118 17.5847C515.646 17.1687 516.318 16.9607 517.134 16.9607C517.694 16.9607 518.178 17.0607 518.586 17.2607C518.994 17.4607 519.302 17.7327 519.51 18.0767C519.718 18.4207 519.822 18.8087 519.822 19.2407C519.822 19.7367 519.69 20.1607 519.426 20.5127C519.162 20.8647 518.846 21.1007 518.478 21.2207V21.2687C518.95 21.4127 519.318 21.6767 519.582 22.0607C519.846 22.4367 519.978 22.9207 519.978 23.5127C519.978 23.9847 519.87 24.4047 519.654 24.7727C519.438 25.1407 519.118 25.4327 518.694 25.6487C518.27 25.8567 517.762 25.9607 517.17 25.9607C516.306 25.9607 515.594 25.7407 515.034 25.3007C514.482 24.8527 514.186 24.2127 514.146 23.3807H515.466C515.498 23.8047 515.662 24.1527 515.958 24.4247C516.254 24.6887 516.654 24.8207 517.158 24.8207C517.646 24.8207 518.022 24.6887 518.286 24.4247C518.55 24.1527 518.682 23.8047 518.682 23.3807C518.682 22.8207 518.502 22.4247 518.142 22.1927C517.79 21.9527 517.246 21.8327 516.51 21.8327H516.198V20.7047H516.522C517.17 20.6967 517.662 20.5887 517.998 20.3807C518.342 20.1727 518.514 19.8447 518.514 19.3967C518.514 19.0127 518.39 18.7087 518.142 18.4847C517.894 18.2527 517.542 18.1367 517.086 18.1367C516.638 18.1367 516.29 18.2527 516.042 18.4847C515.794 18.7087 515.646 18.9887 515.598 19.3247H514.266Z" fill="#131123"/>
<rect x="443" y="38.9127" width="12" height="12" rx="3.97736" fill="#F59A3B"/>
<path d="M466.07 43.3927L463.29 49.9127H462.37L465.19 43.4827H461.33V42.7027H466.07V43.3927ZM471.689 43.4727H468.179V45.7527C468.332 45.5393 468.559 45.366 468.859 45.2327C469.159 45.0927 469.482 45.0227 469.829 45.0227C470.382 45.0227 470.832 45.1393 471.179 45.3727C471.526 45.5993 471.772 45.896 471.919 46.2627C472.072 46.6227 472.149 47.006 472.149 47.4127C472.149 47.8927 472.059 48.3227 471.879 48.7027C471.699 49.0827 471.422 49.3827 471.049 49.6027C470.682 49.8227 470.226 49.9327 469.679 49.9327C468.979 49.9327 468.412 49.7527 467.979 49.3927C467.546 49.0327 467.282 48.5527 467.189 47.9527H468.079C468.166 48.3327 468.349 48.6293 468.629 48.8427C468.909 49.056 469.262 49.1627 469.689 49.1627C470.216 49.1627 470.612 49.006 470.879 48.6927C471.146 48.3727 471.279 47.9527 471.279 47.4327C471.279 46.9127 471.146 46.5127 470.879 46.2327C470.612 45.946 470.219 45.8027 469.699 45.8027C469.346 45.8027 469.036 45.8893 468.769 46.0627C468.509 46.2293 468.319 46.4593 468.199 46.7527H467.339V42.6727H471.689V43.4727ZM473.158 44.3127C473.158 43.8593 473.295 43.4993 473.568 43.2327C473.842 42.9593 474.192 42.8227 474.618 42.8227C475.045 42.8227 475.395 42.9593 475.668 43.2327C475.942 43.4993 476.078 43.8593 476.078 44.3127C476.078 44.7727 475.942 45.1393 475.668 45.4127C475.395 45.6793 475.045 45.8127 474.618 45.8127C474.192 45.8127 473.842 45.6793 473.568 45.4127C473.295 45.1393 473.158 44.7727 473.158 44.3127ZM478.998 42.9327L474.948 49.9127H474.048L478.098 42.9327H478.998ZM474.618 43.3827C474.392 43.3827 474.212 43.4627 474.078 43.6227C473.952 43.776 473.888 44.006 473.888 44.3127C473.888 44.6193 473.952 44.8527 474.078 45.0127C474.212 45.1727 474.392 45.2527 474.618 45.2527C474.845 45.2527 475.025 45.1727 475.158 45.0127C475.292 44.846 475.358 44.6127 475.358 44.3127C475.358 44.006 475.292 43.776 475.158 43.6227C475.025 43.4627 474.845 43.3827 474.618 43.3827ZM476.988 48.5327C476.988 48.0727 477.125 47.7093 477.398 47.4427C477.672 47.1693 478.022 47.0327 478.448 47.0327C478.875 47.0327 479.222 47.1693 479.488 47.4427C479.762 47.7093 479.898 48.0727 479.898 48.5327C479.898 48.986 479.762 49.3493 479.488 49.6227C479.222 49.896 478.875 50.0327 478.448 50.0327C478.022 50.0327 477.672 49.8993 477.398 49.6327C477.125 49.3593 476.988 48.9927 476.988 48.5327ZM478.438 47.6027C478.212 47.6027 478.032 47.6827 477.898 47.8427C477.765 47.996 477.698 48.226 477.698 48.5327C477.698 48.8327 477.765 49.0627 477.898 49.2227C478.032 49.376 478.212 49.4527 478.438 49.4527C478.665 49.4527 478.845 49.376 478.978 49.2227C479.112 49.0627 479.178 48.8327 479.178 48.5327C479.178 48.226 479.112 47.996 478.978 47.8427C478.845 47.6827 478.665 47.6027 478.438 47.6027ZM487.882 48.3627H484.842L484.282 49.9127H483.322L485.842 42.9827H486.892L489.402 49.9127H488.442L487.882 48.3627ZM487.622 47.6227L486.362 44.1027L485.102 47.6227H487.622ZM492.54 49.0727L494.24 44.4327H495.21L493.06 49.9127H492L489.85 44.4327H490.83L492.54 49.0727ZM501.106 46.9627C501.106 47.136 501.096 47.3193 501.076 47.5127H496.696C496.729 48.0527 496.913 48.476 497.246 48.7827C497.586 49.0827 497.996 49.2327 498.476 49.2327C498.869 49.2327 499.196 49.1427 499.456 48.9627C499.723 48.776 499.909 48.5293 500.016 48.2227H500.996C500.849 48.7493 500.556 49.1793 500.116 49.5127C499.676 49.8393 499.129 50.0027 498.476 50.0027C497.956 50.0027 497.489 49.886 497.076 49.6527C496.669 49.4193 496.349 49.0893 496.116 48.6627C495.883 48.2293 495.766 47.7293 495.766 47.1627C495.766 46.596 495.879 46.0993 496.106 45.6727C496.333 45.246 496.649 44.9193 497.056 44.6927C497.469 44.4593 497.943 44.3427 498.476 44.3427C498.996 44.3427 499.456 44.456 499.856 44.6827C500.256 44.9093 500.563 45.2227 500.776 45.6227C500.996 46.016 501.106 46.4627 501.106 46.9627ZM500.166 46.7727C500.166 46.426 500.089 46.1293 499.936 45.8827C499.783 45.6293 499.573 45.4393 499.306 45.3127C499.046 45.1793 498.756 45.1127 498.436 45.1127C497.976 45.1127 497.583 45.2593 497.256 45.5527C496.936 45.846 496.753 46.2527 496.706 46.7727H500.166ZM503.217 45.3227C503.377 45.0093 503.604 44.766 503.897 44.5927C504.197 44.4193 504.56 44.3327 504.987 44.3327V45.2727H504.747C503.727 45.2727 503.217 45.826 503.217 46.9327V49.9127H502.307V44.4327H503.217V45.3227ZM505.698 47.1527C505.698 46.5927 505.811 46.1027 506.038 45.6827C506.264 45.256 506.574 44.926 506.968 44.6927C507.368 44.4593 507.811 44.3427 508.298 44.3427C508.778 44.3427 509.194 44.446 509.548 44.6527C509.901 44.8593 510.164 45.1193 510.338 45.4327V44.4327H511.258V49.9127H510.338V48.8927C510.158 49.2127 509.888 49.4793 509.528 49.6927C509.174 49.8993 508.761 50.0027 508.288 50.0027C507.801 50.0027 507.361 49.8827 506.968 49.6427C506.574 49.4027 506.264 49.066 506.038 48.6327C505.811 48.1993 505.698 47.706 505.698 47.1527ZM510.338 47.1627C510.338 46.7493 510.254 46.3893 510.088 46.0827C509.921 45.776 509.694 45.5427 509.408 45.3827C509.128 45.216 508.818 45.1327 508.478 45.1327C508.138 45.1327 507.828 45.2127 507.548 45.3727C507.268 45.5327 507.044 45.766 506.878 46.0727C506.711 46.3793 506.628 46.7393 506.628 47.1527C506.628 47.5727 506.711 47.9393 506.878 48.2527C507.044 48.5593 507.268 48.796 507.548 48.9627C507.828 49.1227 508.138 49.2027 508.478 49.2027C508.818 49.2027 509.128 49.1227 509.408 48.9627C509.694 48.796 509.921 48.5593 510.088 48.2527C510.254 47.9393 510.338 47.576 510.338 47.1627ZM515.055 44.3427C515.529 44.3427 515.942 44.446 516.295 44.6527C516.655 44.8593 516.922 45.1193 517.095 45.4327V44.4327H518.015V50.0327C518.015 50.5327 517.909 50.976 517.695 51.3627C517.482 51.756 517.175 52.0627 516.775 52.2827C516.382 52.5027 515.922 52.6127 515.395 52.6127C514.675 52.6127 514.075 52.4427 513.595 52.1027C513.115 51.7627 512.832 51.2993 512.745 50.7127H513.645C513.745 51.046 513.952 51.3127 514.265 51.5127C514.579 51.7193 514.955 51.8227 515.395 51.8227C515.895 51.8227 516.302 51.666 516.615 51.3527C516.935 51.0393 517.095 50.5993 517.095 50.0327V48.8827C516.915 49.2027 516.649 49.4693 516.295 49.6827C515.942 49.896 515.529 50.0027 515.055 50.0027C514.569 50.0027 514.125 49.8827 513.725 49.6427C513.332 49.4027 513.022 49.066 512.795 48.6327C512.569 48.1993 512.455 47.706 512.455 47.1527C512.455 46.5927 512.569 46.1027 512.795 45.6827C513.022 45.256 513.332 44.926 513.725 44.6927C514.125 44.4593 514.569 44.3427 515.055 44.3427ZM517.095 47.1627C517.095 46.7493 517.012 46.3893 516.845 46.0827C516.679 45.776 516.452 45.5427 516.165 45.3827C515.885 45.216 515.575 45.1327 515.235 45.1327C514.895 45.1327 514.585 45.2127 514.305 45.3727C514.025 45.5327 513.802 45.766 513.635 46.0727C513.469 46.3793 513.385 46.7393 513.385 47.1527C513.385 47.5727 513.469 47.9393 513.635 48.2527C513.802 48.5593 514.025 48.796 514.305 48.9627C514.585 49.1227 514.895 49.2027 515.235 49.2027C515.575 49.2027 515.885 49.1227 516.165 48.9627C516.452 48.796 516.679 48.5593 516.845 48.2527C517.012 47.9393 517.095 47.576 517.095 47.1627ZM524.553 46.9627C524.553 47.136 524.543 47.3193 524.523 47.5127H520.143C520.177 48.0527 520.36 48.476 520.693 48.7827C521.033 49.0827 521.443 49.2327 521.923 49.2327C522.317 49.2327 522.643 49.1427 522.903 48.9627C523.17 48.776 523.357 48.5293 523.463 48.2227H524.443C524.297 48.7493 524.003 49.1793 523.563 49.5127C523.123 49.8393 522.577 50.0027 521.923 50.0027C521.403 50.0027 520.937 49.886 520.523 49.6527C520.117 49.4193 519.797 49.0893 519.563 48.6627C519.33 48.2293 519.213 47.7293 519.213 47.1627C519.213 46.596 519.327 46.0993 519.553 45.6727C519.78 45.246 520.097 44.9193 520.503 44.6927C520.917 44.4593 521.39 44.3427 521.923 44.3427C522.443 44.3427 522.903 44.456 523.303 44.6827C523.703 44.9093 524.01 45.2227 524.223 45.6227C524.443 46.016 524.553 46.4627 524.553 46.9627ZM523.613 46.7727C523.613 46.426 523.537 46.1293 523.383 45.8827C523.23 45.6293 523.02 45.4393 522.753 45.3127C522.493 45.1793 522.203 45.1127 521.883 45.1127C521.423 45.1127 521.03 45.2593 520.703 45.5527C520.383 45.846 520.2 46.2527 520.153 46.7727H523.613ZM532.71 42.9427V43.6827H530.81V49.9127H529.9V43.6827H527.99V42.9427H532.71ZM534.301 43.5427C534.127 43.5427 533.981 43.4827 533.861 43.3627C533.741 43.2427 533.681 43.096 533.681 42.9227C533.681 42.7493 533.741 42.6027 533.861 42.4827C533.981 42.3627 534.127 42.3027 534.301 42.3027C534.467 42.3027 534.607 42.3627 534.721 42.4827C534.841 42.6027 534.901 42.7493 534.901 42.9227C534.901 43.096 534.841 43.2427 534.721 43.3627C534.607 43.4827 534.467 43.5427 534.301 43.5427ZM534.741 44.4327V49.9127H533.831V44.4327H534.741ZM542.881 44.3327C543.308 44.3327 543.688 44.4227 544.021 44.6027C544.355 44.776 544.618 45.0393 544.811 45.3927C545.005 45.746 545.101 46.176 545.101 46.6827V49.9127H544.201V46.8127C544.201 46.266 544.065 45.8493 543.791 45.5627C543.525 45.2693 543.161 45.1227 542.701 45.1227C542.228 45.1227 541.851 45.276 541.571 45.5827C541.291 45.8827 541.151 46.3193 541.151 46.8927V49.9127H540.251V46.8127C540.251 46.266 540.115 45.8493 539.841 45.5627C539.575 45.2693 539.211 45.1227 538.751 45.1227C538.278 45.1227 537.901 45.276 537.621 45.5827C537.341 45.8827 537.201 46.3193 537.201 46.8927V49.9127H536.291V44.4327H537.201V45.2227C537.381 44.936 537.621 44.716 537.921 44.5627C538.228 44.4093 538.565 44.3327 538.931 44.3327C539.391 44.3327 539.798 44.436 540.151 44.6427C540.505 44.8493 540.768 45.1527 540.941 45.5527C541.095 45.166 541.348 44.866 541.701 44.6527C542.055 44.4393 542.448 44.3327 542.881 44.3327ZM551.594 46.9627C551.594 47.136 551.584 47.3193 551.564 47.5127H547.184C547.218 48.0527 547.401 48.476 547.734 48.7827C548.074 49.0827 548.484 49.2327 548.964 49.2327C549.358 49.2327 549.684 49.1427 549.944 48.9627C550.211 48.776 550.398 48.5293 550.504 48.2227H551.484C551.338 48.7493 551.044 49.1793 550.604 49.5127C550.164 49.8393 549.618 50.0027 548.964 50.0027C548.444 50.0027 547.978 49.886 547.564 49.6527C547.158 49.4193 546.838 49.0893 546.604 48.6627C546.371 48.2293 546.254 47.7293 546.254 47.1627C546.254 46.596 546.368 46.0993 546.594 45.6727C546.821 45.246 547.138 44.9193 547.544 44.6927C547.958 44.4593 548.431 44.3427 548.964 44.3427C549.484 44.3427 549.944 44.456 550.344 44.6827C550.744 44.9093 551.051 45.2227 551.264 45.6227C551.484 46.016 551.594 46.4627 551.594 46.9627ZM550.654 46.7727C550.654 46.426 550.578 46.1293 550.424 45.8827C550.271 45.6293 550.061 45.4393 549.794 45.3127C549.534 45.1793 549.244 45.1127 548.924 45.1127C548.464 45.1127 548.071 45.2593 547.744 45.5527C547.424 45.846 547.241 46.2527 547.194 46.7727H550.654ZM557.671 49.9827C557.211 49.9827 556.798 49.9027 556.431 49.7427C556.071 49.576 555.788 49.3493 555.581 49.0627C555.375 48.7693 555.268 48.4327 555.261 48.0527H556.231C556.265 48.3793 556.398 48.656 556.631 48.8827C556.871 49.1027 557.218 49.2127 557.671 49.2127C558.105 49.2127 558.445 49.106 558.691 48.8927C558.945 48.6727 559.071 48.3927 559.071 48.0527C559.071 47.786 558.998 47.5693 558.851 47.4027C558.705 47.236 558.521 47.1093 558.301 47.0227C558.081 46.936 557.785 46.8427 557.411 46.7427C556.951 46.6227 556.581 46.5027 556.301 46.3827C556.028 46.2627 555.791 46.076 555.591 45.8227C555.398 45.5627 555.301 45.216 555.301 44.7827C555.301 44.4027 555.398 44.066 555.591 43.7727C555.785 43.4793 556.055 43.2527 556.401 43.0927C556.755 42.9327 557.158 42.8527 557.611 42.8527C558.265 42.8527 558.798 43.016 559.211 43.3427C559.631 43.6693 559.868 44.1027 559.921 44.6427H558.921C558.888 44.376 558.748 44.1427 558.501 43.9427C558.255 43.736 557.928 43.6327 557.521 43.6327C557.141 43.6327 556.831 43.7327 556.591 43.9327C556.351 44.126 556.231 44.3993 556.231 44.7527C556.231 45.006 556.301 45.2127 556.441 45.3727C556.588 45.5327 556.765 45.656 556.971 45.7427C557.185 45.8227 557.481 45.916 557.861 46.0227C558.321 46.1493 558.691 46.276 558.971 46.4027C559.251 46.5227 559.491 46.7127 559.691 46.9727C559.891 47.226 559.991 47.5727 559.991 48.0127C559.991 48.3527 559.901 48.6727 559.721 48.9727C559.541 49.2727 559.275 49.516 558.921 49.7027C558.568 49.8893 558.151 49.9827 557.671 49.9827ZM562.241 45.4427C562.421 45.1293 562.687 44.8693 563.041 44.6627C563.401 44.4493 563.817 44.3427 564.291 44.3427C564.777 44.3427 565.217 44.4593 565.611 44.6927C566.011 44.926 566.324 45.256 566.551 45.6827C566.777 46.1027 566.891 46.5927 566.891 47.1527C566.891 47.706 566.777 48.1993 566.551 48.6327C566.324 49.066 566.011 49.4027 565.611 49.6427C565.217 49.8827 564.777 50.0027 564.291 50.0027C563.824 50.0027 563.411 49.8993 563.051 49.6927C562.697 49.4793 562.427 49.216 562.241 48.9027V52.5127H561.331V44.4327H562.241V45.4427ZM565.961 47.1527C565.961 46.7393 565.877 46.3793 565.711 46.0727C565.544 45.766 565.317 45.5327 565.031 45.3727C564.751 45.2127 564.441 45.1327 564.101 45.1327C563.767 45.1327 563.457 45.216 563.171 45.3827C562.891 45.5427 562.664 45.7793 562.491 46.0927C562.324 46.3993 562.241 46.756 562.241 47.1627C562.241 47.576 562.324 47.9393 562.491 48.2527C562.664 48.5593 562.891 48.796 563.171 48.9627C563.457 49.1227 563.767 49.2027 564.101 49.2027C564.441 49.2027 564.751 49.1227 565.031 48.9627C565.317 48.796 565.544 48.5593 565.711 48.2527C565.877 47.9393 565.961 47.5727 565.961 47.1527ZM573.088 46.9627C573.088 47.136 573.078 47.3193 573.058 47.5127H568.678C568.712 48.0527 568.895 48.476 569.228 48.7827C569.568 49.0827 569.978 49.2327 570.458 49.2327C570.852 49.2327 571.178 49.1427 571.438 48.9627C571.705 48.776 571.892 48.5293 571.998 48.2227H572.978C572.832 48.7493 572.538 49.1793 572.098 49.5127C571.658 49.8393 571.112 50.0027 570.458 50.0027C569.938 50.0027 569.472 49.886 569.058 49.6527C568.652 49.4193 568.332 49.0893 568.098 48.6627C567.865 48.2293 567.748 47.7293 567.748 47.1627C567.748 46.596 567.862 46.0993 568.088 45.6727C568.315 45.246 568.632 44.9193 569.038 44.6927C569.452 44.4593 569.925 44.3427 570.458 44.3427C570.978 44.3427 571.438 44.456 571.838 44.6827C572.238 44.9093 572.545 45.2227 572.758 45.6227C572.978 46.016 573.088 46.4627 573.088 46.9627ZM572.148 46.7727C572.148 46.426 572.072 46.1293 571.918 45.8827C571.765 45.6293 571.555 45.4393 571.288 45.3127C571.028 45.1793 570.738 45.1127 570.418 45.1127C569.958 45.1127 569.565 45.2593 569.238 45.5527C568.918 45.846 568.735 46.2527 568.688 46.7727H572.148ZM576.96 44.3327C577.626 44.3327 578.166 44.536 578.58 44.9427C578.993 45.3427 579.2 45.9227 579.2 46.6827V49.9127H578.3V46.8127C578.3 46.266 578.163 45.8493 577.89 45.5627C577.616 45.2693 577.243 45.1227 576.77 45.1227C576.29 45.1227 575.906 45.2727 575.62 45.5727C575.34 45.8727 575.2 46.3093 575.2 46.8827V49.9127H574.29V44.4327H575.2V45.2127C575.38 44.9327 575.623 44.716 575.93 44.5627C576.243 44.4093 576.586 44.3327 576.96 44.3327ZM581.796 45.1827V48.4127C581.796 48.6793 581.853 48.8693 581.966 48.9827C582.079 49.0893 582.276 49.1427 582.556 49.1427H583.226V49.9127H582.406C581.899 49.9127 581.519 49.796 581.266 49.5627C581.013 49.3293 580.886 48.946 580.886 48.4127V45.1827H580.176V44.4327H580.886V43.0527H581.796V44.4327H583.226V45.1827H581.796Z" fill="#131123"/>
<rect x="443" y="61.9127" width="12" height="12" rx="3.97736" fill="#7AA43E"/>
<path d="M462.94 69.1527C462.567 69.006 462.28 68.7927 462.08 68.5127C461.88 68.2327 461.78 67.8927 461.78 67.4927C461.78 67.1327 461.87 66.8093 462.05 66.5227C462.23 66.2293 462.497 65.9993 462.85 65.8327C463.21 65.6593 463.643 65.5727 464.15 65.5727C464.657 65.5727 465.087 65.6593 465.44 65.8327C465.8 65.9993 466.07 66.2293 466.25 66.5227C466.437 66.8093 466.53 67.1327 466.53 67.4927C466.53 67.8793 466.427 68.2193 466.22 68.5127C466.013 68.7993 465.73 69.0127 465.37 69.1527C465.783 69.2793 466.11 69.5027 466.35 69.8227C466.597 70.136 466.72 70.516 466.72 70.9627C466.72 71.396 466.613 71.776 466.4 72.1027C466.187 72.4227 465.883 72.6727 465.49 72.8527C465.103 73.026 464.657 73.1127 464.15 73.1127C463.643 73.1127 463.197 73.026 462.81 72.8527C462.43 72.6727 462.133 72.4227 461.92 72.1027C461.707 71.776 461.6 71.396 461.6 70.9627C461.6 70.516 461.72 70.1327 461.96 69.8127C462.2 69.4927 462.527 69.2727 462.94 69.1527ZM465.65 67.6027C465.65 67.196 465.517 66.8827 465.25 66.6627C464.983 66.4427 464.617 66.3327 464.15 66.3327C463.69 66.3327 463.327 66.4427 463.06 66.6627C462.793 66.8827 462.66 67.1993 462.66 67.6127C462.66 67.986 462.797 68.286 463.07 68.5127C463.35 68.7393 463.71 68.8527 464.15 68.8527C464.597 68.8527 464.957 68.7393 465.23 68.5127C465.51 68.2793 465.65 67.976 465.65 67.6027ZM464.15 69.5527C463.657 69.5527 463.253 69.6693 462.94 69.9027C462.627 70.1293 462.47 70.4727 462.47 70.9327C462.47 71.3593 462.62 71.7027 462.92 71.9627C463.227 72.2227 463.637 72.3527 464.15 72.3527C464.663 72.3527 465.07 72.2227 465.37 71.9627C465.67 71.7027 465.82 71.3593 465.82 70.9327C465.82 70.486 465.667 70.146 465.36 69.9127C465.053 69.6727 464.65 69.5527 464.15 69.5527ZM472.539 66.4727H469.029V68.7527C469.182 68.5393 469.409 68.366 469.709 68.2327C470.009 68.0927 470.332 68.0227 470.679 68.0227C471.232 68.0227 471.682 68.1393 472.029 68.3727C472.375 68.5993 472.622 68.896 472.769 69.2627C472.922 69.6227 472.999 70.006 472.999 70.4127C472.999 70.8927 472.909 71.3227 472.729 71.7027C472.549 72.0827 472.272 72.3827 471.899 72.6027C471.532 72.8227 471.075 72.9327 470.529 72.9327C469.829 72.9327 469.262 72.7527 468.829 72.3927C468.395 72.0327 468.132 71.5527 468.039 70.9527H468.929C469.015 71.3327 469.199 71.6293 469.479 71.8427C469.759 72.056 470.112 72.1627 470.539 72.1627C471.065 72.1627 471.462 72.006 471.729 71.6927C471.995 71.3727 472.129 70.9527 472.129 70.4327C472.129 69.9127 471.995 69.5127 471.729 69.2327C471.462 68.946 471.069 68.8027 470.549 68.8027C470.195 68.8027 469.885 68.8893 469.619 69.0627C469.359 69.2293 469.169 69.4593 469.049 69.7527H468.189V65.6727H472.539V66.4727ZM474.008 67.3127C474.008 66.8593 474.145 66.4993 474.418 66.2327C474.691 65.9593 475.041 65.8227 475.468 65.8227C475.895 65.8227 476.245 65.9593 476.518 66.2327C476.791 66.4993 476.928 66.8593 476.928 67.3127C476.928 67.7727 476.791 68.1393 476.518 68.4127C476.245 68.6793 475.895 68.8127 475.468 68.8127C475.041 68.8127 474.691 68.6793 474.418 68.4127C474.145 68.1393 474.008 67.7727 474.008 67.3127ZM479.848 65.9327L475.798 72.9127H474.898L478.948 65.9327H479.848ZM475.468 66.3827C475.241 66.3827 475.061 66.4627 474.928 66.6227C474.801 66.776 474.738 67.006 474.738 67.3127C474.738 67.6193 474.801 67.8527 474.928 68.0127C475.061 68.1727 475.241 68.2527 475.468 68.2527C475.695 68.2527 475.875 68.1727 476.008 68.0127C476.141 67.846 476.208 67.6127 476.208 67.3127C476.208 67.006 476.141 66.776 476.008 66.6227C475.875 66.4627 475.695 66.3827 475.468 66.3827ZM477.838 71.5327C477.838 71.0727 477.975 70.7093 478.248 70.4427C478.521 70.1693 478.871 70.0327 479.298 70.0327C479.725 70.0327 480.071 70.1693 480.338 70.4427C480.611 70.7093 480.748 71.0727 480.748 71.5327C480.748 71.986 480.611 72.3493 480.338 72.6227C480.071 72.896 479.725 73.0327 479.298 73.0327C478.871 73.0327 478.521 72.8993 478.248 72.6327C477.975 72.3593 477.838 71.9927 477.838 71.5327ZM479.288 70.6027C479.061 70.6027 478.881 70.6827 478.748 70.8427C478.615 70.996 478.548 71.226 478.548 71.5327C478.548 71.8327 478.615 72.0627 478.748 72.2227C478.881 72.376 479.061 72.4527 479.288 72.4527C479.515 72.4527 479.695 72.376 479.828 72.2227C479.961 72.0627 480.028 71.8327 480.028 71.5327C480.028 71.226 479.961 70.996 479.828 70.8427C479.695 70.6827 479.515 70.6027 479.288 70.6027ZM488.732 71.3627H485.692L485.132 72.9127H484.172L486.692 65.9827H487.742L490.252 72.9127H489.292L488.732 71.3627ZM488.472 70.6227L487.212 67.1027L485.952 70.6227H488.472ZM493.39 72.0727L495.09 67.4327H496.06L493.91 72.9127H492.85L490.7 67.4327H491.68L493.39 72.0727ZM501.956 69.9627C501.956 70.136 501.946 70.3193 501.926 70.5127H497.546C497.579 71.0527 497.762 71.476 498.096 71.7827C498.436 72.0827 498.846 72.2327 499.326 72.2327C499.719 72.2327 500.046 72.1427 500.306 71.9627C500.572 71.776 500.759 71.5293 500.866 71.2227H501.846C501.699 71.7493 501.406 72.1793 500.966 72.5127C500.526 72.8393 499.979 73.0027 499.326 73.0027C498.806 73.0027 498.339 72.886 497.926 72.6527C497.519 72.4193 497.199 72.0893 496.966 71.6627C496.732 71.2293 496.616 70.7293 496.616 70.1627C496.616 69.596 496.729 69.0993 496.956 68.6727C497.182 68.246 497.499 67.9193 497.906 67.6927C498.319 67.4593 498.792 67.3427 499.326 67.3427C499.846 67.3427 500.306 67.456 500.706 67.6827C501.106 67.9093 501.412 68.2227 501.626 68.6227C501.846 69.016 501.956 69.4627 501.956 69.9627ZM501.016 69.7727C501.016 69.426 500.939 69.1293 500.786 68.8827C500.632 68.6293 500.422 68.4393 500.156 68.3127C499.896 68.1793 499.606 68.1127 499.286 68.1127C498.826 68.1127 498.432 68.2593 498.106 68.5527C497.786 68.846 497.602 69.2527 497.556 69.7727H501.016ZM504.067 68.3227C504.227 68.0093 504.453 67.766 504.747 67.5927C505.047 67.4193 505.41 67.3327 505.837 67.3327V68.2727H505.597C504.577 68.2727 504.067 68.826 504.067 69.9327V72.9127H503.157V67.4327H504.067V68.3227ZM506.547 70.1527C506.547 69.5927 506.661 69.1027 506.887 68.6827C507.114 68.256 507.424 67.926 507.817 67.6927C508.217 67.4593 508.661 67.3427 509.147 67.3427C509.627 67.3427 510.044 67.446 510.397 67.6527C510.751 67.8593 511.014 68.1193 511.187 68.4327V67.4327H512.107V72.9127H511.187V71.8927C511.007 72.2127 510.737 72.4793 510.377 72.6927C510.024 72.8993 509.611 73.0027 509.137 73.0027C508.651 73.0027 508.211 72.8827 507.817 72.6427C507.424 72.4027 507.114 72.066 506.887 71.6327C506.661 71.1993 506.547 70.706 506.547 70.1527ZM511.187 70.1627C511.187 69.7493 511.104 69.3893 510.937 69.0827C510.771 68.776 510.544 68.5427 510.257 68.3827C509.977 68.216 509.667 68.1327 509.327 68.1327C508.987 68.1327 508.677 68.2127 508.397 68.3727C508.117 68.5327 507.894 68.766 507.727 69.0727C507.561 69.3793 507.477 69.7393 507.477 70.1527C507.477 70.5727 507.561 70.9393 507.727 71.2527C507.894 71.5593 508.117 71.796 508.397 71.9627C508.677 72.1227 508.987 72.2027 509.327 72.2027C509.667 72.2027 509.977 72.1227 510.257 71.9627C510.544 71.796 510.771 71.5593 510.937 71.2527C511.104 70.9393 511.187 70.576 511.187 70.1627ZM515.905 67.3427C516.378 67.3427 516.792 67.446 517.145 67.6527C517.505 67.8593 517.772 68.1193 517.945 68.4327V67.4327H518.865V73.0327C518.865 73.5327 518.758 73.976 518.545 74.3627C518.332 74.756 518.025 75.0627 517.625 75.2827C517.232 75.5027 516.772 75.6127 516.245 75.6127C515.525 75.6127 514.925 75.4427 514.445 75.1027C513.965 74.7627 513.682 74.2993 513.595 73.7127H514.495C514.595 74.046 514.802 74.3127 515.115 74.5127C515.428 74.7193 515.805 74.8227 516.245 74.8227C516.745 74.8227 517.152 74.666 517.465 74.3527C517.785 74.0393 517.945 73.5993 517.945 73.0327V71.8827C517.765 72.2027 517.498 72.4693 517.145 72.6827C516.792 72.896 516.378 73.0027 515.905 73.0027C515.418 73.0027 514.975 72.8827 514.575 72.6427C514.182 72.4027 513.872 72.066 513.645 71.6327C513.418 71.1993 513.305 70.706 513.305 70.1527C513.305 69.5927 513.418 69.1027 513.645 68.6827C513.872 68.256 514.182 67.926 514.575 67.6927C514.975 67.4593 515.418 67.3427 515.905 67.3427ZM517.945 70.1627C517.945 69.7493 517.862 69.3893 517.695 69.0827C517.528 68.776 517.302 68.5427 517.015 68.3827C516.735 68.216 516.425 68.1327 516.085 68.1327C515.745 68.1327 515.435 68.2127 515.155 68.3727C514.875 68.5327 514.652 68.766 514.485 69.0727C514.318 69.3793 514.235 69.7393 514.235 70.1527C514.235 70.5727 514.318 70.9393 514.485 71.2527C514.652 71.5593 514.875 71.796 515.155 71.9627C515.435 72.1227 515.745 72.2027 516.085 72.2027C516.425 72.2027 516.735 72.1227 517.015 71.9627C517.302 71.796 517.528 71.5593 517.695 71.2527C517.862 70.9393 517.945 70.576 517.945 70.1627ZM525.403 69.9627C525.403 70.136 525.393 70.3193 525.373 70.5127H520.993C521.026 71.0527 521.209 71.476 521.543 71.7827C521.883 72.0827 522.293 72.2327 522.773 72.2327C523.166 72.2327 523.493 72.1427 523.753 71.9627C524.019 71.776 524.206 71.5293 524.313 71.2227H525.293C525.146 71.7493 524.853 72.1793 524.413 72.5127C523.973 72.8393 523.426 73.0027 522.773 73.0027C522.253 73.0027 521.786 72.886 521.373 72.6527C520.966 72.4193 520.646 72.0893 520.413 71.6627C520.179 71.2293 520.063 70.7293 520.063 70.1627C520.063 69.596 520.176 69.0993 520.403 68.6727C520.629 68.246 520.946 67.9193 521.353 67.6927C521.766 67.4593 522.239 67.3427 522.773 67.3427C523.293 67.3427 523.753 67.456 524.153 67.6827C524.553 67.9093 524.859 68.2227 525.073 68.6227C525.293 69.016 525.403 69.4627 525.403 69.9627ZM524.463 69.7727C524.463 69.426 524.386 69.1293 524.233 68.8827C524.079 68.6293 523.869 68.4393 523.603 68.3127C523.343 68.1793 523.053 68.1127 522.733 68.1127C522.273 68.1127 521.879 68.2593 521.553 68.5527C521.233 68.846 521.049 69.2527 521.003 69.7727H524.463ZM533.56 65.9427V66.6827H531.66V72.9127H530.75V66.6827H528.84V65.9427H533.56ZM535.15 66.5427C534.977 66.5427 534.83 66.4827 534.71 66.3627C534.59 66.2427 534.53 66.096 534.53 65.9227C534.53 65.7493 534.59 65.6027 534.71 65.4827C534.83 65.3627 534.977 65.3027 535.15 65.3027C535.317 65.3027 535.457 65.3627 535.57 65.4827C535.69 65.6027 535.75 65.7493 535.75 65.9227C535.75 66.096 535.69 66.2427 535.57 66.3627C535.457 66.4827 535.317 66.5427 535.15 66.5427ZM535.59 67.4327V72.9127H534.68V67.4327H535.59ZM543.731 67.3327C544.158 67.3327 544.538 67.4227 544.871 67.6027C545.204 67.776 545.468 68.0393 545.661 68.3927C545.854 68.746 545.951 69.176 545.951 69.6827V72.9127H545.051V69.8127C545.051 69.266 544.914 68.8493 544.641 68.5627C544.374 68.2693 544.011 68.1227 543.551 68.1227C543.078 68.1227 542.701 68.276 542.421 68.5827C542.141 68.8827 542.001 69.3193 542.001 69.8927V72.9127H541.101V69.8127C541.101 69.266 540.964 68.8493 540.691 68.5627C540.424 68.2693 540.061 68.1227 539.601 68.1227C539.128 68.1227 538.751 68.276 538.471 68.5827C538.191 68.8827 538.051 69.3193 538.051 69.8927V72.9127H537.141V67.4327H538.051V68.2227C538.231 67.936 538.471 67.716 538.771 67.5627C539.078 67.4093 539.414 67.3327 539.781 67.3327C540.241 67.3327 540.648 67.436 541.001 67.6427C541.354 67.8493 541.618 68.1527 541.791 68.5527C541.944 68.166 542.198 67.866 542.551 67.6527C542.904 67.4393 543.298 67.3327 543.731 67.3327ZM552.444 69.9627C552.444 70.136 552.434 70.3193 552.414 70.5127H548.034C548.067 71.0527 548.25 71.476 548.584 71.7827C548.924 72.0827 549.334 72.2327 549.814 72.2327C550.207 72.2327 550.534 72.1427 550.794 71.9627C551.06 71.776 551.247 71.5293 551.354 71.2227H552.334C552.187 71.7493 551.894 72.1793 551.454 72.5127C551.014 72.8393 550.467 73.0027 549.814 73.0027C549.294 73.0027 548.827 72.886 548.414 72.6527C548.007 72.4193 547.687 72.0893 547.454 71.6627C547.22 71.2293 547.104 70.7293 547.104 70.1627C547.104 69.596 547.217 69.0993 547.444 68.6727C547.67 68.246 547.987 67.9193 548.394 67.6927C548.807 67.4593 549.28 67.3427 549.814 67.3427C550.334 67.3427 550.794 67.456 551.194 67.6827C551.594 67.9093 551.9 68.2227 552.114 68.6227C552.334 69.016 552.444 69.4627 552.444 69.9627ZM551.504 69.7727C551.504 69.426 551.427 69.1293 551.274 68.8827C551.12 68.6293 550.91 68.4393 550.644 68.3127C550.384 68.1793 550.094 68.1127 549.774 68.1127C549.314 68.1127 548.92 68.2593 548.594 68.5527C548.274 68.846 548.09 69.2527 548.044 69.7727H551.504ZM558.521 72.9827C558.061 72.9827 557.648 72.9027 557.281 72.7427C556.921 72.576 556.638 72.3493 556.431 72.0627C556.224 71.7693 556.118 71.4327 556.111 71.0527H557.081C557.114 71.3793 557.248 71.656 557.481 71.8827C557.721 72.1027 558.068 72.2127 558.521 72.2127C558.954 72.2127 559.294 72.106 559.541 71.8927C559.794 71.6727 559.921 71.3927 559.921 71.0527C559.921 70.786 559.848 70.5693 559.701 70.4027C559.554 70.236 559.371 70.1093 559.151 70.0227C558.931 69.936 558.634 69.8427 558.261 69.7427C557.801 69.6227 557.431 69.5027 557.151 69.3827C556.878 69.2627 556.641 69.076 556.441 68.8227C556.248 68.5627 556.151 68.216 556.151 67.7827C556.151 67.4027 556.248 67.066 556.441 66.7727C556.634 66.4793 556.904 66.2527 557.251 66.0927C557.604 65.9327 558.008 65.8527 558.461 65.8527C559.114 65.8527 559.648 66.016 560.061 66.3427C560.481 66.6693 560.718 67.1027 560.771 67.6427H559.771C559.738 67.376 559.598 67.1427 559.351 66.9427C559.104 66.736 558.778 66.6327 558.371 66.6327C557.991 66.6327 557.681 66.7327 557.441 66.9327C557.201 67.126 557.081 67.3993 557.081 67.7527C557.081 68.006 557.151 68.2127 557.291 68.3727C557.438 68.5327 557.614 68.656 557.821 68.7427C558.034 68.8227 558.331 68.916 558.711 69.0227C559.171 69.1493 559.541 69.276 559.821 69.4027C560.101 69.5227 560.341 69.7127 560.541 69.9727C560.741 70.226 560.841 70.5727 560.841 71.0127C560.841 71.3527 560.751 71.6727 560.571 71.9727C560.391 72.2727 560.124 72.516 559.771 72.7027C559.418 72.8893 559.001 72.9827 558.521 72.9827ZM563.09 68.4427C563.27 68.1293 563.537 67.8693 563.89 67.6627C564.25 67.4493 564.667 67.3427 565.14 67.3427C565.627 67.3427 566.067 67.4593 566.46 67.6927C566.86 67.926 567.173 68.256 567.4 68.6827C567.627 69.1027 567.74 69.5927 567.74 70.1527C567.74 70.706 567.627 71.1993 567.4 71.6327C567.173 72.066 566.86 72.4027 566.46 72.6427C566.067 72.8827 565.627 73.0027 565.14 73.0027C564.673 73.0027 564.26 72.8993 563.9 72.6927C563.547 72.4793 563.277 72.216 563.09 71.9027V75.5127H562.18V67.4327H563.09V68.4427ZM566.81 70.1527C566.81 69.7393 566.727 69.3793 566.56 69.0727C566.393 68.766 566.167 68.5327 565.88 68.3727C565.6 68.2127 565.29 68.1327 564.95 68.1327C564.617 68.1327 564.307 68.216 564.02 68.3827C563.74 68.5427 563.513 68.7793 563.34 69.0927C563.173 69.3993 563.09 69.756 563.09 70.1627C563.09 70.576 563.173 70.9393 563.34 71.2527C563.513 71.5593 563.74 71.796 564.02 71.9627C564.307 72.1227 564.617 72.2027 564.95 72.2027C565.29 72.2027 565.6 72.1227 565.88 71.9627C566.167 71.796 566.393 71.5593 566.56 71.2527C566.727 70.9393 566.81 70.5727 566.81 70.1527ZM573.938 69.9627C573.938 70.136 573.928 70.3193 573.908 70.5127H569.528C569.561 71.0527 569.745 71.476 570.078 71.7827C570.418 72.0827 570.828 72.2327 571.308 72.2327C571.701 72.2327 572.028 72.1427 572.288 71.9627C572.555 71.776 572.741 71.5293 572.848 71.2227H573.828C573.681 71.7493 573.388 72.1793 572.948 72.5127C572.508 72.8393 571.961 73.0027 571.308 73.0027C570.788 73.0027 570.321 72.886 569.908 72.6527C569.501 72.4193 569.181 72.0893 568.948 71.6627C568.715 71.2293 568.598 70.7293 568.598 70.1627C568.598 69.596 568.711 69.0993 568.938 68.6727C569.165 68.246 569.481 67.9193 569.888 67.6927C570.301 67.4593 570.775 67.3427 571.308 67.3427C571.828 67.3427 572.288 67.456 572.688 67.6827C573.088 67.9093 573.395 68.2227 573.608 68.6227C573.828 69.016 573.938 69.4627 573.938 69.9627ZM572.998 69.7727C572.998 69.426 572.921 69.1293 572.768 68.8827C572.615 68.6293 572.405 68.4393 572.138 68.3127C571.878 68.1793 571.588 68.1127 571.268 68.1127C570.808 68.1127 570.415 68.2593 570.088 68.5527C569.768 68.846 569.585 69.2527 569.538 69.7727H572.998ZM577.809 67.3327C578.476 67.3327 579.016 67.536 579.429 67.9427C579.842 68.3427 580.049 68.9227 580.049 69.6827V72.9127H579.149V69.8127C579.149 69.266 579.012 68.8493 578.739 68.5627C578.466 68.2693 578.092 68.1227 577.619 68.1227C577.139 68.1227 576.756 68.2727 576.469 68.5727C576.189 68.8727 576.049 69.3093 576.049 69.8827V72.9127H575.139V67.4327H576.049V68.2127C576.229 67.9327 576.472 67.716 576.779 67.5627C577.092 67.4093 577.436 67.3327 577.809 67.3327ZM582.646 68.1827V71.4127C582.646 71.6793 582.702 71.8693 582.816 71.9827C582.929 72.0893 583.126 72.1427 583.406 72.1427H584.076V72.9127H583.256C582.749 72.9127 582.369 72.796 582.116 72.5627C581.862 72.3293 581.736 71.946 581.736 71.4127V68.1827H581.026V67.4327H581.736V66.0527H582.646V67.4327H584.076V68.1827H582.646Z" fill="#131123"/>
</g>
</g>
<rect x="0.391315" y="0.391315" width="1071.22" height="286.217" rx="9.00024" stroke="#E7EAE9" strokeWidth="0.782629"/>
<defs>
<filter id="filter0_d_192_5222" x="399" y="-27.0873" width="230" height="152" filterUnits="userSpaceOnUse" color-interpolation-filters="sRGB">
<feFlood flood-opacity="0" result="BackgroundImageFix"/>
<feColorMatrix in="SourceAlpha" type="matrix" values="0 0 0 0 0 0 0 0 0 0 0 0 0 0 0 0 0 0 127 0" result="hardAlpha"/>
<feOffset dy="4"/>
<feGaussianBlur stdDeviation="15"/>
<feComposite in2="hardAlpha" operator="out"/>
<feColorMatrix type="matrix" values="0 0 0 0 0 0 0 0 0 0 0 0 0 0 0 0 0 0 0.05 0"/>
<feBlend mode="normal" in2="BackgroundImageFix" result="effect1_dropShadow_192_5222"/>
<feBlend mode="normal" in="SourceGraphic" in2="effect1_dropShadow_192_5222" result="shape"/>
</filter>
<linearGradient id="paint0_linear_192_5222" x1="540.75" y1="83.5146" x2="540.75" y2="221.413" gradientUnits="userSpaceOnUse">
<stop stop-color="#F59A3B" stop-opacity="0.6"/>
<stop offset="1" stop-color="#F59A3B" stop-opacity="0"/>
</linearGradient>
<linearGradient id="paint1_linear_192_5222" x1="540.75" y1="53" x2="540.75" y2="190.898" gradientUnits="userSpaceOnUse">
<stop stop-color="#7AA43E" stop-opacity="0.6"/>
<stop offset="1" stop-color="#7AA43E" stop-opacity="0"/>
</linearGradient>
<clipPath id="clip0_192_5222">
<rect width="1072" height="287" rx="9.39155" fill="white"/>
</clipPath>
</defs>
</svg>
